<?xml version="1.0" standalone="no"?>
<!DOCTYPE svg PUBLIC "-//W3C//DTD SVG 20010904//EN"
 "http://www.w3.org/TR/2001/REC-SVG-20010904/DTD/svg10.dtd">
<svg version="1.0" xmlns="http://www.w3.org/2000/svg"
 width="300.000000pt" height="416.000000pt" viewBox="0 0 300.000000 416.000000"
 preserveAspectRatio="xMidYMid meet">
<metadata>
Created by potrace 1.10, written by Peter Selinger 2001-2011
</metadata>
<g transform="translate(0.000000,416.000000) scale(0.100000,-0.100000)"
fill="#000000" stroke="none">
<path d="M32 2078 l3 -2053 1465 0 1465 0 3 2053 2 2052 -1470 0 -1470 0 2
-2052z m2928 -3 l0 -2035 -1455 0 -1455 0 0 2035 0 2035 1455 0 1455 0 0
-2035z"/>
<path d="M585 3984 c-6 -2 -106 -98 -222 -213 -180 -179 -209 -211 -197 -222
13 -11 50 22 242 214 152 152 220 227 207 226 -11 0 -25 -3 -30 -5z"/>
<path d="M427 3716 c-245 -241 -276 -274 -262 -286 14 -12 51 21 303 273 235
235 282 287 262 287 -19 0 -91 -65 -303 -274z"/>
<path d="M1005 3878 c61 -62 115 -116 120 -121 6 -4 2 -7 -10 -5 -12 2 -19 -2
-17 -10 5 -25 -32 5 -143 117 -68 69 -117 111 -130 111 -13 0 -134 -114 -348
-328 -282 -282 -326 -330 -313 -341 13 -11 62 34 336 308 176 177 324 321 328
321 9 0 232 -225 232 -234 0 -3 -6 -5 -12 -3 -8 1 -12 -6 -11 -18 1 -11 0 -14
-3 -7 -3 6 -9 12 -13 12 -4 0 -46 38 -92 85 -47 47 -94 85 -104 85 -12 0 -147
-127 -347 -327 -292 -292 -326 -329 -313 -343 14 -13 50 21 338 308 l322 322
85 -86 c51 -52 80 -88 72 -91 -6 -3 -10 -9 -7 -14 16 -25 -36 11 -78 54 -33
34 -57 50 -74 50 -20 0 -95 -70 -349 -324 -288 -288 -322 -325 -309 -339 14
-13 51 21 338 308 l322 322 50 -50 50 -50 -392 -392 c-332 -332 -391 -395
-379 -406 11 -12 80 52 441 411 285 284 425 429 420 438 -5 7 -4 10 2 6 10 -7
353 320 353 336 0 20 -61 -11 -107 -56 -41 -40 -52 -56 -47 -72 4 -11 -28 15
-70 58 -57 57 -84 77 -103 77 -24 0 -19 -7 55 -84 82 -84 93 -98 70 -93 -7 1
-12 -4 -10 -11 5 -24 -30 4 -123 97 -65 67 -96 91 -115 91 -21 0 -10 -15 85
-112z"/>
<path d="M1455 3981 c-11 -5 -313 -299 -670 -655 -522 -518 -647 -648 -635
-656 8 -5 17 -10 20 -10 3 0 304 299 670 665 366 366 658 665 650 664 -8 0
-24 -4 -35 -8z"/>
<path d="M1578 3982 c-10 -4 -337 -326 -728 -717 -575 -574 -708 -712 -697
-722 10 -10 151 126 742 717 402 402 723 730 715 729 -8 0 -23 -3 -32 -7z"/>
<path d="M1700 3983 c-8 -3 -362 -352 -787 -776 -615 -614 -770 -774 -761
-785 9 -10 170 145 797 770 432 431 787 786 789 791 4 8 -15 8 -38 0z"/>
<path d="M1815 3980 c-11 -4 -101 -89 -199 -189 l-180 -180 65 -60 c41 -39 73
-60 89 -61 18 0 79 55 267 242 134 133 243 246 243 250 0 5 -10 8 -23 8 -16 0
-89 -67 -257 -235 l-235 -235 -43 43 c-51 49 -71 80 -47 71 11 -5 71 49 198
175 173 171 194 202 122 171z"/>
<path d="M1879 3693 l-294 -294 -88 91 -88 90 -399 -396 c-220 -219 -396 -402
-393 -407 3 -6 2 -7 -4 -4 -5 3 -114 -99 -241 -227 -180 -180 -229 -235 -220
-244 7 -7 15 -12 19 -12 7 0 109 -99 109 -106 0 -2 -6 -1 -13 1 -7 3 -41 -24
-76 -59 -56 -57 -63 -67 -51 -81 12 -14 21 -8 86 56 l73 72 47 -47 48 -48
-132 -131 c-110 -109 -130 -133 -119 -144 11 -11 34 8 140 114 83 85 122 130
114 135 -7 4 -7 8 -2 8 14 0 55 -29 55 -39 0 -4 -66 -73 -147 -154 -134 -132
-146 -148 -132 -162 14 -14 29 -1 158 130 78 79 140 148 138 153 -3 4 3 8 13
8 10 0 18 -3 18 -6 -1 -17 4 -19 16 -8 13 11 -12 39 -157 185 -158 159 -170
174 -155 189 14 15 28 4 167 -135 83 -83 159 -151 169 -151 9 0 235 218 502
485 464 464 487 485 503 467 16 -17 -8 -42 -504 -537 -919 -918 -884 -882
-870 -899 11 -14 38 9 194 165 142 142 177 183 166 191 -11 8 -11 9 2 5 12 -4
63 41 170 149 84 85 157 154 162 154 4 0 20 -13 34 -30 27 -33 31 -34 53 -20
12 8 10 14 -15 40 -16 17 -35 28 -43 25 -15 -5 -8 9 16 38 15 17 18 15 54 -20
21 -20 38 -41 38 -46 0 -6 -191 -199 -425 -430 -394 -389 -450 -452 -407 -452
10 0 2642 2623 2642 2633 0 2 -11 2 -25 0 -17 -2 -260 -238 -820 -797 -437
-436 -793 -797 -790 -801 3 -5 -4 -6 -15 -3 -11 3 -20 1 -20 -4 0 -6 -10 -23
-21 -37 l-22 -28 -43 43 c-45 44 -46 57 -3 80 14 7 17 6 14 -4 -3 -7 8 -26 25
-42 26 -25 32 -27 40 -15 14 22 13 26 -20 53 -33 28 -36 37 -18 55 9 9 20 4
50 -25 30 -29 41 -34 50 -25 9 9 4 20 -25 50 l-38 38 231 230 c127 126 261
258 298 294 308 302 922 915 922 922 0 5 -7 11 -16 15 -12 4 -148 -126 -498
-476 l-481 -481 -174 174 c-95 96 -171 180 -169 187 11 32 39 12 177 -126 112
-110 154 -146 170 -143 21 3 882 854 873 863 -3 3 -12 5 -21 5 -9 0 -203 -187
-431 -415 -228 -228 -420 -415 -425 -415 -12 0 -285 272 -285 283 0 4 3 6 8 6
20 -3 25 2 12 12 -12 8 -11 9 6 5 11 -4 70 -56 130 -116 64 -64 118 -110 129
-110 12 0 161 142 395 375 310 310 371 375 350 375 -20 0 -102 -75 -385 -354
l-360 -355 -102 101 c-56 55 -106 98 -110 95 -4 -3 -9 6 -9 20 -2 17 2 23 12
19 9 -3 11 0 7 12 -6 15 -5 16 13 2 10 -8 52 -47 93 -87 54 -53 81 -73 100
-73 21 0 86 60 331 305 168 168 303 306 300 306 -41 11 -58 -4 -341 -288z
m-604 -403 l40 -41 -245 -244 c-135 -134 -244 -250 -244 -259 1 -8 -4 -12 -12
-9 -9 3 -49 -31 -103 -86 -49 -50 -91 -91 -94 -91 -8 0 -87 82 -87 90 0 5 -3
10 -7 13 -5 2 -3 3 3 1 6 -1 16 2 22 8 8 8 23 -1 53 -31 33 -32 45 -39 56 -29
12 9 7 19 -29 57 -24 25 -46 48 -51 51 -4 4 1 14 10 22 17 15 22 13 68 -32 37
-37 52 -46 62 -38 10 8 4 21 -32 59 -47 51 -53 61 -32 57 7 -2 11 5 9 16 -3
14 12 4 49 -32 40 -38 57 -48 66 -40 10 8 8 16 -8 40 -12 16 -28 32 -36 35
-19 7 -38 44 -21 41 8 -2 12 5 10 16 -3 14 12 4 49 -32 40 -38 57 -48 66 -40
10 8 3 21 -32 59 -43 46 -57 68 -34 53 15 -9 443 421 434 436 -15 23 29 -8 70
-50z m83 -70 c-1 -3 2 -12 6 -20 4 -11 -110 -131 -404 -425 -226 -226 -415
-410 -420 -410 -5 0 -45 36 -90 79 -63 62 -78 82 -69 92 18 22 26 18 81 -41
31 -33 59 -55 72 -55 25 0 803 761 793 776 -3 6 3 10 13 10 10 0 18 -3 18 -6z
m63 -76 c13 -12 -42 -71 -435 -464 l-451 -451 -114 116 c-88 90 -111 119 -102
128 14 14 62 17 54 4 -3 -5 28 -42 68 -83 52 -53 81 -74 98 -74 20 0 115 90
438 412 243 243 411 418 408 426 -5 14 9 8 36 -14z m-400 -558 l-481 -481
-134 134 c-74 73 -138 131 -143 128 -13 -8 -8 42 5 55 9 9 41 -17 130 -105 86
-85 125 -117 143 -117 19 0 125 101 474 450 428 428 450 448 468 433 17 -16
-4 -39 -462 -497z m-507 31 c-6 -17 61 -81 76 -72 18 11 -4 -26 -29 -49 -20
-19 -21 -18 -64 20 -50 45 -77 79 -55 72 7 -3 26 6 41 18 32 27 38 29 31 11z
m553 -304 c4 3 8 -5 8 -18 0 -13 -3 -21 -7 -19 -4 3 -19 -3 -33 -12 -20 -13
-24 -13 -20 -2 7 18 -49 73 -66 63 -14 -9 -5 10 19 38 15 17 18 16 53 -19 20
-20 41 -34 46 -31z"/>
<path d="M217 3957 c-24 -19 -28 -28 -25 -61 2 -22 8 -41 15 -43 9 -3 10 6 6
33 -5 30 -2 39 17 54 12 9 21 22 19 28 -3 8 -15 3 -32 -11z"/>
<path d="M280 3940 c0 -20 -5 -30 -15 -30 -8 0 -15 5 -15 11 0 5 -4 7 -10 4
-5 -3 -10 -26 -10 -51 0 -24 5 -44 10 -44 6 0 10 14 10 30 0 20 5 30 15 30 8
0 15 -5 15 -11 0 -5 5 -7 10 -4 6 3 10 26 10 51 0 24 -4 44 -10 44 -5 0 -10
-13 -10 -30z"/>
<path d="M310 3911 c0 -28 -5 -44 -15 -47 -15 -6 -21 -34 -7 -34 4 0 17 8 30
18 19 15 23 26 20 57 -4 54 -28 59 -28 6z"/>
<path d="M1482 2587 c-1193 -1192 -1369 -1375 -1312 -1355 5 2 608 601 1340
1333 1077 1076 1328 1332 1317 1342 -10 10 -266 -241 -1345 -1320z"/>
<path d="M1481 2466 c-793 -793 -1331 -1338 -1327 -1345 4 -6 10 -11 14 -11 4
0 608 598 1342 1329 1203 1198 1334 1331 1320 1345 -14 14 -147 -116 -1349
-1318z"/>
<path d="M1482 2347 c-1186 -1186 -1332 -1335 -1317 -1347 15 -12 165 135
1348 1318 1184 1184 1330 1333 1317 1347 -14 13 -163 -133 -1348 -1318z"/>
<path d="M1478 2220 c-736 -734 -1338 -1342 -1338 -1351 0 -23 96 -113 113
-106 34 13 21 -8 -47 -73 -63 -62 -69 -71 -56 -84 13 -14 23 -8 85 53 65 64
71 68 87 54 10 -9 18 -14 18 -11 0 3 -32 38 -70 77 -49 49 -75 68 -86 64 -14
-5 -14 -3 -6 13 6 10 610 617 1341 1348 1035 1035 1328 1333 1319 1343 -6 7
-13 12 -17 11 -3 -1 -608 -603 -1343 -1338z"/>
<path d="M2205 2688 c-335 -334 -612 -608 -615 -608 -2 0 -24 19 -48 42 -34
34 -45 40 -52 29 -5 -9 -5 -22 0 -32 16 -30 80 -79 103 -79 16 0 193 171 637
615 522 522 612 617 600 627 -13 11 -108 -80 -625 -594z"/>
<path d="M2195 2550 l-599 -599 -79 76 c-70 69 -80 75 -89 59 -9 -15 2 -30 63
-92 53 -53 81 -74 99 -74 37 0 1238 1201 1218 1218 -11 9 -134 -109 -613 -588z"/>
<path d="M2183 2418 l-593 -593 -107 107 c-87 85 -110 104 -120 94 -9 -11 12
-36 101 -125 62 -61 119 -111 127 -111 7 0 283 269 614 598 562 559 620 622
576 622 -3 0 -273 -267 -598 -592z"/>
<path d="M2188 2303 l-598 -598 -137 137 c-111 110 -140 134 -150 124 -9 -11
17 -42 129 -155 89 -89 149 -141 161 -141 14 0 223 202 624 602 467 467 600
605 591 615 -6 7 -13 13 -17 13 -3 0 -275 -269 -603 -597z"/>
<path d="M2193 2188 l-603 -603 -164 164 c-138 138 -166 162 -181 153 -16 -8
3 -31 141 -168 87 -88 166 -168 174 -179 13 -17 13 -18 -1 -13 -11 5 -157
-135 -518 -496 -404 -404 -499 -504 -485 -510 19 -7 51 24 1664 1623 471 468
607 608 598 618 -6 7 -13 13 -17 13 -3 0 -277 -271 -608 -602z"/>
<path d="M2380 2155 c-239 -240 -782 -781 -1207 -1202 -610 -605 -770 -770
-761 -780 6 -8 15 -12 20 -11 4 2 460 455 1013 1008 l1005 1005 175 -175 c161
-160 189 -197 160 -207 -6 -2 -79 64 -163 147 -83 82 -159 150 -169 150 -10 0
-229 -211 -504 -486 -319 -319 -492 -485 -501 -481 -8 3 -21 1 -29 -3 -10 -7
31 -54 164 -187 l177 -177 433 434 c237 238 425 428 416 422 -14 -11 -25 -4
-70 43 -30 31 -64 58 -77 62 -21 5 -74 -44 -422 -392 -379 -379 -399 -397
-416 -381 -16 17 3 38 402 437 230 230 422 418 426 417 4 -2 46 -41 93 -87
l87 -84 56 57 c32 31 49 54 39 50 -13 -5 -46 21 -135 110 -85 84 -125 116
-142 116 -19 0 -130 -106 -479 -454 -381 -382 -456 -452 -467 -441 -8 7 -14
18 -14 23 0 6 -3 12 -7 15 -5 2 -2 2 5 0 7 -1 227 211 489 473 l476 476 151
-151 150 -152 45 45 45 45 -57 55 c-31 30 -57 58 -57 61 0 3 26 30 57 59 51
48 56 55 44 70 -13 16 -19 12 -68 -36 -32 -31 -51 -58 -48 -67 4 -11 1 -11
-17 1 -13 9 -24 22 -26 30 -1 7 38 54 88 102 73 72 88 91 78 103 -9 12 -27 -2
-104 -78 -95 -95 -111 -102 -134 -58 -9 17 -9 20 0 14 8 -5 53 34 126 106 90
90 111 116 102 127 -9 11 -34 -10 -129 -104 -120 -120 -135 -128 -159 -85 -8
16 -8 19 2 16 7 -3 77 59 158 140 130 130 143 146 129 160 -14 14 -30 1 -163
-135 -81 -82 -151 -150 -155 -150 -5 0 -14 6 -20 14 -9 10 26 50 169 192 164
162 195 201 165 211 -5 1 -206 -193 -445 -432z m300 -464 c0 -6 -7 -14 -16
-18 -11 -4 -43 21 -103 81 -65 65 -94 87 -110 84 -12 -2 -203 -184 -447 -426
-438 -436 -442 -440 -457 -382 -3 11 0 17 7 14 6 -2 211 196 456 441 l445 445
113 -113 c61 -63 112 -119 112 -126z m-173 -63 c52 -52 66 -75 39 -65 -18 7
-56 -25 -61 -50 -1 -10 -8 -17 -14 -16 -9 3 -156 -139 -259 -251 -19 -20 -38
-36 -44 -36 -6 0 -7 -7 -4 -16 4 -11 2 -15 -8 -11 -14 6 -63 -48 -58 -65 1 -4
-3 -7 -10 -6 -7 2 -12 -2 -13 -9 0 -6 -4 -15 -9 -20 -5 -5 -6 -2 -1 6 5 9 4
12 -3 7 -7 -4 -12 -14 -12 -22 0 -8 -4 -12 -10 -9 -5 3 -10 -1 -10 -10 0 -11
-5 -15 -15 -12 -15 6 -31 -8 -18 -16 5 -2 3 -3 -3 -1 -6 1 -58 -45 -115 -102
-57 -57 -97 -104 -89 -104 11 0 11 -3 2 -12 -9 -9 -24 -1 -64 37 -29 28 -55
51 -57 53 -5 3 771 782 779 782 2 0 28 -23 57 -52z"/>
<path d="M2420 1595 c-10 -12 -10 -18 1 -31 12 -14 14 -14 25 1 9 12 14 13 19
4 4 -6 1 -15 -6 -20 -11 -7 -11 -9 2 -9 21 0 30 22 18 41 -7 11 -12 12 -29 1
-22 -13 -27 -3 -8 16 8 8 8 12 1 12 -6 0 -16 -7 -23 -15z"/>
<path d="M2380 1555 c-10 -12 -10 -19 -2 -27 9 -9 12 -8 12 5 0 9 5 17 10 17
6 0 10 -13 10 -30 0 -32 9 -37 28 -18 17 17 15 33 -2 19 -12 -10 -15 -7 -18
15 -4 33 -20 41 -38 19z"/>
<path d="M2306 1522 c-11 -18 2 -44 35 -70 36 -29 40 -9 6 29 -13 13 -26 31
-29 39 -3 11 -6 11 -12 2z"/>
<path d="M2268 1441 c-15 -18 -15 -21 8 -42 28 -26 45 -18 21 9 -10 10 -17 22
-17 25 0 13 23 7 42 -10 10 -9 21 -13 24 -10 8 7 -36 46 -51 47 -6 0 -18 -9
-27 -19z"/>
<path d="M2217 1394 c-25 -25 8 -70 43 -59 32 10 24 59 -10 63 -14 2 -29 0
-33 -4z m47 -35 c-8 -14 -34 -11 -34 4 0 8 3 17 7 20 9 9 34 -13 27 -24z"/>
<path d="M2146 1354 c-33 -32 -8 -84 39 -84 26 0 51 33 39 52 -5 7 -10 3 -16
-11 -12 -32 -53 -25 -53 9 0 18 5 25 18 24 9 -1 17 4 17 12 0 19 -25 18 -44
-2z"/>
<path d="M2090 1297 c0 -9 7 -22 15 -29 9 -7 23 -19 31 -27 9 -8 19 -10 23 -5
4 5 -9 24 -31 43 -27 24 -38 29 -38 18z"/>
<path d="M2030 1243 c0 -11 63 -73 74 -73 10 0 -30 50 -54 67 -11 8 -20 10
-20 6z"/>
<path d="M2070 1240 c0 -5 5 -10 12 -10 6 0 20 -7 30 -17 25 -22 36 -8 13 17
-19 21 -55 27 -55 10z"/>
<path d="M2010 1185 c-17 -20 -2 -38 26 -31 14 4 24 2 24 -4 0 -5 -7 -10 -16
-10 -8 0 -13 -4 -9 -10 8 -13 32 -2 40 17 9 24 -9 37 -34 24 -25 -14 -28 -3
-3 15 15 12 15 13 1 14 -9 0 -22 -7 -29 -15z"/>
<path d="M1967 1138 c-9 -5 -17 -17 -17 -26 1 -16 2 -16 14 1 18 24 29 21 15
-4 -7 -14 -8 -24 -1 -31 11 -11 32 -3 32 13 0 6 -4 7 -10 4 -5 -3 -10 -1 -10
5 0 7 8 9 20 5 27 -8 25 6 -3 26 -16 12 -28 14 -40 7z"/>
<path d="M1900 1110 c0 -5 7 -13 16 -18 14 -8 14 -10 0 -21 -13 -11 -19 -11
-31 -1 -33 28 -27 -3 8 -37 34 -35 65 -41 37 -8 -10 12 -10 18 1 31 11 14 13
14 21 -1 5 -8 14 -13 19 -9 6 4 -3 20 -22 40 -33 34 -49 42 -49 24z"/>
<path d="M225 2036 c-85 -82 -94 -94 -80 -106 14 -12 28 -2 110 81 77 77 91
96 80 106 -11 10 -32 -6 -110 -81z"/>
<path d="M908 1404 l-386 -387 -32 37 c-35 39 -38 40 -60 26 -22 -14 54 -90
90 -90 20 0 105 80 415 390 214 215 384 390 377 390 -7 0 -10 5 -7 10 26 41
-59 -39 -397 -376z"/>
<path d="M2027 952 c-433 -433 -785 -791 -781 -795 4 -4 13 -7 20 -7 6 0 364
350 794 777 613 610 780 782 775 796 -4 9 -10 17 -14 17 -3 0 -361 -355 -794
-788z"/>
<path d="M938 1313 l-418 -418 -67 67 c-55 54 -70 64 -80 53 -9 -10 3 -27 62
-84 40 -39 79 -71 86 -71 18 0 862 844 849 848 -6 2 -8 8 -4 13 25 41 -66 -46
-428 -408z"/>
<path d="M1279 1528 c-80 -79 -283 -280 -452 -448 l-307 -304 -100 99 c-81 80
-102 97 -110 85 -7 -12 14 -38 93 -117 57 -59 110 -103 121 -103 11 0 193 173
469 448 374 373 448 452 440 466 -8 15 -31 -4 -154 -126z"/>
<path d="M2088 889 c-400 -399 -725 -729 -721 -732 3 -4 13 -7 22 -7 9 0 340
324 736 720 611 611 717 722 705 732 -13 11 -126 -98 -742 -713z"/>
<path d="M1003 1129 l-479 -480 -133 132 c-99 100 -135 129 -141 119 -13 -21
-2 -35 128 -162 85 -85 126 -118 143 -118 35 0 994 960 975 976 -10 9 -116
-91 -493 -467z"/>
<path d="M2153 828 c-365 -365 -663 -666 -663 -670 0 -36 114 71 694 651 587
587 675 681 638 681 -4 0 -305 -298 -669 -662z"/>
<path d="M2212 767 c-331 -331 -602 -605 -602 -610 0 -4 8 -7 18 -7 23 0 147
125 138 139 -4 6 -2 11 5 11 6 0 46 -34 88 -75 48 -47 86 -75 99 -75 12 0 22
1 22 3 0 2 -39 43 -87 91 -74 74 -91 86 -105 77 -10 -6 -18 -10 -18 -9 0 2 35
37 78 78 42 41 71 67 63 57 -13 -16 -3 -29 110 -143 73 -72 133 -124 144 -124
12 0 144 124 344 324 288 288 323 326 311 341 -12 15 -48 -18 -334 -304 l-321
-321 -122 121 c-114 112 -121 121 -106 138 14 17 21 13 111 -76 72 -71 102
-93 119 -91 14 2 143 124 346 326 266 264 321 324 310 334 -12 9 -74 -48 -337
-311 l-322 -322 -88 91 c-76 78 -91 88 -105 78 -9 -7 5 9 31 35 25 27 53 47
62 45 9 -2 163 145 396 377 307 306 378 382 367 392 -10 10 -129 -103 -615
-590z"/>
<path d="M2490 785 c-173 -173 -320 -315 -326 -315 -6 0 -35 25 -64 56 -46 48
-55 54 -67 41 -13 -12 -6 -22 47 -73 40 -38 70 -59 86 -59 18 0 103 80 344
320 259 258 318 322 307 332 -10 10 -73 -47 -327 -302z"/>
<path d="M1377 1029 c-8 -5 -204 -197 -434 -427 -354 -353 -418 -421 -409
-435 9 -15 74 46 436 408 l425 425 145 -144 c79 -80 146 -149 148 -154 1 -5
-4 -15 -12 -21 -13 -11 -35 6 -138 108 -75 74 -130 121 -143 121 -13 0 -145
-125 -384 -364 -291 -291 -362 -367 -353 -378 9 -11 82 57 373 344 199 197
365 358 369 358 4 0 57 -52 119 -115 95 -97 111 -118 101 -130 -16 -19 -19
-17 -127 88 -67 66 -85 79 -105 74 -12 -4 -158 -141 -322 -306 -261 -261 -298
-302 -286 -316 11 -13 50 21 311 282 164 164 302 299 307 301 5 1 45 -36 90
-83 45 -47 85 -85 89 -85 5 0 46 39 93 88 47 48 78 82 69 75 -13 -10 -38 11
-164 137 -81 82 -156 151 -165 153 -10 2 -24 1 -33 -4z"/>
<path d="M2518 446 c-159 -159 -288 -291 -288 -293 0 -2 10 -3 23 -3 16 0 101
79 302 280 238 238 277 282 265 292 -13 11 -59 -31 -302 -276z"/>
<path d="M234 594 c-77 -78 -89 -95 -78 -105 12 -10 32 4 108 77 89 84 109
117 76 120 -8 1 -56 -41 -106 -92z"/>
<path d="M381 653 c8 -9 29 -30 47 -47 l33 -29 -157 -158 c-133 -133 -156
-160 -145 -173 11 -13 35 8 170 142 177 177 171 161 92 245 -35 37 -66 53 -40
20z"/>
<path d="M1132 426 c-216 -215 -243 -245 -231 -259 12 -14 41 12 255 224 l240
240 46 -46 c26 -25 52 -53 60 -62 11 -15 11 -16 -6 -9 -16 6 -52 -25 -198
-171 -98 -98 -178 -181 -178 -185 0 -32 61 18 230 187 l195 196 -66 64 c-37
36 -75 65 -85 65 -10 0 -126 -108 -262 -244z"/>
<path d="M265 500 c-95 -95 -117 -122 -107 -132 10 -10 37 12 133 108 97 97
118 123 107 132 -11 9 -38 -13 -133 -108z"/>
<path d="M2567 378 c-203 -203 -225 -228 -200 -228 23 0 65 37 247 219 197
197 237 246 193 239 -7 -1 -115 -105 -240 -230z"/>
<path d="M345 340 c-176 -176 -188 -190 -160 -190 26 0 56 26 204 174 124 124
172 179 168 190 -4 9 -10 16 -14 16 -4 0 -93 -86 -198 -190z"/>
<path d="M1851 376 c-9 -10 11 -35 94 -117 66 -65 115 -105 130 -107 14 -2 25
-2 25 0 0 4 -232 238 -236 238 -1 0 -7 -6 -13 -14z"/>
</g>
</svg>
