<svg baseProfile="full" height="416" version="1.1" width="300" xmlns="http://www.w3.org/2000/svg" xmlns:ev="http://www.w3.org/2001/xml-events" xmlns:xlink="http://www.w3.org/1999/xlink"><defs /><rect fill="white" height="416" width="300" x="0" y="0" /><polyline fill="none" points="-10.0,60.0 29.597979746446654,99.59797974644667 109.50104602052653,19.694913472366807" stroke="#B596C8" stroke-linecap="square" stroke-linejoin="round" stroke-width="6" /><polyline fill="none" points="-14.242640687119286,64.24264068711929 29.597979746446654,108.08326112068525 113.74368670764582,23.937554159486098" stroke="#FFFFFF" stroke-linecap="square" stroke-linejoin="round" stroke-width="6" /><polyline fill="none" points="-18.48528137423857,68.48528137423857 29.59797974644665,116.5685424949238 117.9863273947651,28.180194846605374" stroke="#B596C8" stroke-linecap="square" stroke-linejoin="round" stroke-width="6" /><polyline fill="none" points="-22.72792206135786,72.72792206135784 29.597979746446647,125.05382386916237 122.22896808188437,32.42283553372465" stroke="#FFFFFF" stroke-linecap="square" stroke-linejoin="round" stroke-width="6" /><polyline fill="none" points="-26.970562748477143,76.97056274847714 29.597979746446647,133.53910524340097 126.47160876900367,36.66547622084397" stroke="#B596C8" stroke-linecap="square" stroke-linejoin="round" stroke-width="6" /><polyline fill="none" points="-31.21320343559643,81.21320343559643 29.597979746446644,142.02438661763952 130.71424945612296,40.90811690796323" stroke="#FFFFFF" stroke-linecap="square" stroke-linejoin="round" stroke-width="6" /><polyline fill="none" points="-35.45584412271572,85.4558441227157 29.59797974644664,150.50966799187808 134.95689014324222,45.15075759508251" stroke="#B596C8" stroke-linecap="square" stroke-linejoin="round" stroke-width="6" /><polyline fill="none" points="-6.0,56.0 73.90306627407988,-23.903066274079862 153.80613254815972,56.00000000000003 549.7859300126263,-339.9797974644665" stroke="#63C3DC" stroke-linecap="square" stroke-linejoin="round" stroke-width="6" /><polyline fill="none" points="-1.7573593128807152,60.242640687119284 73.90306627407988,-15.417784899841301 153.80613254815972,64.48528137423858 554.0285706997456,-335.7371567773473" stroke="#FFFFFF" stroke-linecap="square" stroke-linejoin="round" stroke-width="6" /><polyline fill="none" points="2.4852813742385695,64.48528137423857 73.90306627407988,-6.932503525602726 153.80613254815972,72.97056274847716 558.2712113868649,-331.494516090228" stroke="#63C3DC" stroke-linecap="square" stroke-linejoin="round" stroke-width="6" /><polyline fill="none" points="6.727922061357855,68.72792206135786 73.90306627407988,1.5527778486358557 153.80613254815972,81.45584412271575 562.5138520739843,-327.25187540310867" stroke="#FFFFFF" stroke-linecap="square" stroke-linejoin="round" stroke-width="6" /><polyline fill="none" points="10.970562748477139,72.97056274847714 73.90306627407988,10.03805922287441 153.80613254815972,89.9411254969543 566.7564927611036,-323.00923471598946" stroke="#63C3DC" stroke-linecap="square" stroke-linejoin="round" stroke-width="6" /><polyline fill="none" points="15.213203435596423,77.21320343559643 73.90306627407988,18.523340597112984 153.80613254815972,98.42640687119288 570.9991334482228,-318.76659402887014" stroke="#FFFFFF" stroke-linecap="square" stroke-linejoin="round" stroke-width="6" /><polyline fill="none" points="19.45584412271571,81.45584412271572 73.90306627407988,27.008621971351566 153.80613254815972,106.91168824543146 575.2417741353421,-314.5239533417508" stroke="#63C3DC" stroke-linecap="square" stroke-linejoin="round" stroke-width="6" /><polyline fill="none" points="-10.0,220.0 69.90306627407988,140.09693372592014 190.11121907579292,260.30508652763325" stroke="#B596C8" stroke-linecap="square" stroke-linejoin="round" stroke-width="6" /><polyline fill="none" points="-5.757359312880715,224.2426406871193 69.90306627407988,148.5822151001587 185.86857838867365,264.5477272147525" stroke="#FFFFFF" stroke-linecap="square" stroke-linejoin="round" stroke-width="6" /><polyline fill="none" points="-1.5147186257614305,228.48528137423858 69.90306627407988,157.06749647439727 181.62593770155436,268.79036790187183" stroke="#B596C8" stroke-linecap="square" stroke-linejoin="round" stroke-width="6" /><polyline fill="none" points="2.727922061357855,232.72792206135784 69.90306627407988,165.55277784863586 177.38329701443507,273.0330085889911" stroke="#FFFFFF" stroke-linecap="square" stroke-linejoin="round" stroke-width="6" /><polyline fill="none" points="6.970562748477139,236.97056274847714 69.90306627407988,174.0380592228744 173.1406563273158,277.27564927611036" stroke="#B596C8" stroke-linecap="square" stroke-linejoin="round" stroke-width="6" /><polyline fill="none" points="11.213203435596423,241.21320343559643 69.90306627407988,182.523340597113 168.8980156401965,281.5182899632297" stroke="#FFFFFF" stroke-linecap="square" stroke-linejoin="round" stroke-width="6" /><polyline fill="none" points="15.45584412271571,245.45584412271572 69.90306627407988,191.00862197135157 164.65537495307723,285.760930650349" stroke="#B596C8" stroke-linecap="square" stroke-linejoin="round" stroke-width="6" /><polyline fill="none" points="74.0,136.0 153.9030662740799,56.09693372592014" stroke="#63C3DC" stroke-width="6" /><polyline fill="none" points="78.24264068711929,140.2426406871193 158.14570696119915,60.33957441303943" stroke="#FFFFFF" stroke-width="6" /><polyline fill="none" points="82.48528137423857,144.48528137423858 162.38834764831844,64.58221510015872" stroke="#63C3DC" stroke-width="6" /><polyline fill="none" points="86.72792206135786,148.72792206135784 166.63098833543773,68.82485578727798" stroke="#FFFFFF" stroke-width="6" /><polyline fill="none" points="90.97056274847714,152.97056274847714 170.873629022557,73.06749647439727" stroke="#63C3DC" stroke-width="6" /><polyline fill="none" points="95.21320343559643,157.21320343559643 175.11626970967632,77.31013716151656" stroke="#FFFFFF" stroke-width="6" /><polyline fill="none" points="99.45584412271572,161.45584412271572 179.35891039679558,81.55277784863586" stroke="#63C3DC" stroke-width="6" /><polyline fill="none" points="154.0,56.0 193.59797974644667,16.402020253553346 273.50104602052653,96.30508652763324 669.4808434849931,-299.6747109368333" stroke="#63C3DC" stroke-linecap="square" stroke-linejoin="round" stroke-width="6" /><polyline fill="none" points="158.2426406871193,60.242640687119284 193.59797974644667,24.887301627791913 273.50104602052653,104.7903679018718 673.7234841721124,-295.4320702497141" stroke="#FFFFFF" stroke-linecap="square" stroke-linejoin="round" stroke-width="6" /><polyline fill="none" points="162.48528137423858,64.48528137423857 193.59797974644667,33.37258300203048 273.50104602052653,113.27564927611037 677.9661248592317,-291.1894295625948" stroke="#63C3DC" stroke-linecap="square" stroke-linejoin="round" stroke-width="6" /><polyline fill="none" points="166.72792206135784,68.72792206135786 193.59797974644664,41.857864376269056 273.5010460205265,121.76093065034894 682.208765546351,-286.9467888754755" stroke="#FFFFFF" stroke-linecap="square" stroke-linejoin="round" stroke-width="6" /><polyline fill="none" points="170.97056274847714,72.97056274847714 193.59797974644667,50.34314575050762 273.50104602052653,130.24621202458752 686.4514062334704,-282.7041481883562" stroke="#63C3DC" stroke-linecap="square" stroke-linejoin="round" stroke-width="6" /><polyline fill="none" points="175.21320343559643,77.21320343559643 193.59797974644667,58.82842712474619 273.50104602052653,138.73149339882607 690.6940469205896,-278.46150750123695" stroke="#FFFFFF" stroke-linecap="square" stroke-linejoin="round" stroke-width="6" /><polyline fill="none" points="179.45584412271572,81.45584412271572 193.59797974644667,67.31370849898477 273.50104602052653,147.21677477306466 694.9366876077089,-274.21886681411763" stroke="#63C3DC" stroke-linecap="square" stroke-linejoin="round" stroke-width="6" /><polyline fill="none" points="52.0,400.0 172.20815280171308,279.7918471982869" stroke="#63C3DC" stroke-width="6" /><polyline fill="none" points="56.242640687119284,404.24264068711926 176.45079348883237,284.0344878854062" stroke="#FFFFFF" stroke-width="6" /><polyline fill="none" points="60.48528137423857,408.4852813742386 180.69343417595167,288.2771285725255" stroke="#63C3DC" stroke-width="6" /><polyline fill="none" points="64.72792206135786,412.72792206135784 184.93607486307093,292.51976925964476" stroke="#FFFFFF" stroke-width="6" /><polyline fill="none" points="68.97056274847714,416.97056274847716 189.17871555019022,296.7624099467641" stroke="#63C3DC" stroke-width="6" /><polyline fill="none" points="73.21320343559643,421.2132034355964 193.4213562373095,301.00505063388334" stroke="#FFFFFF" stroke-width="6" /><polyline fill="none" points="77.45584412271572,425.4558441227157 197.6639969244288,305.2476913210026" stroke="#63C3DC" stroke-width="6" /><polyline fill="none" points="170.0,282.0 249.9030662740799,202.09693372592014 329.8061325481597,282.0" stroke="#B596C8" stroke-linecap="square" stroke-linejoin="round" stroke-width="6" /><polyline fill="none" points="174.2426406871193,286.24264068711926 249.9030662740799,210.5822151001587 325.56349186104046,286.2426406871193" stroke="#FFFFFF" stroke-linecap="square" stroke-linejoin="round" stroke-width="6" /><polyline fill="none" points="178.48528137423858,290.4852813742386 249.9030662740799,219.06749647439727 321.32085117392114,290.4852813742386" stroke="#B596C8" stroke-linecap="square" stroke-linejoin="round" stroke-width="6" /><polyline fill="none" points="182.72792206135784,294.72792206135784 249.90306627407986,227.55277784863586 317.0782104868019,294.7279220613579" stroke="#FFFFFF" stroke-linecap="square" stroke-linejoin="round" stroke-width="6" /><polyline fill="none" points="186.97056274847714,298.97056274847716 249.90306627407986,236.03805922287444 312.83556979968256,298.97056274847716" stroke="#B596C8" stroke-linecap="square" stroke-linejoin="round" stroke-width="6" /><polyline fill="none" points="191.21320343559643,303.2132034355964 249.9030662740799,244.523340597113 308.5929291125633,303.2132034355964" stroke="#FFFFFF" stroke-linecap="square" stroke-linejoin="round" stroke-width="6" /><polyline fill="none" points="195.45584412271572,307.4558441227157 249.9030662740799,253.00862197135154 304.35028842544403,307.4558441227157" stroke="#B596C8" stroke-linecap="square" stroke-linejoin="round" stroke-width="6" /><polyline fill="none" points="132.0,400.0 211.9030662740799,320.09693372592017 332.111219075793,440.3050865276333" stroke="#B596C8" stroke-linecap="square" stroke-linejoin="round" stroke-width="6" /><polyline fill="none" points="136.2426406871193,404.24264068711926 211.9030662740799,328.5822151001587 327.86857838867365,444.5477272147525" stroke="#FFFFFF" stroke-linecap="square" stroke-linejoin="round" stroke-width="6" /><polyline fill="none" points="140.48528137423858,408.4852813742386 211.9030662740799,337.0674964743973 323.6259377015544,448.79036790187183" stroke="#B596C8" stroke-linecap="square" stroke-linejoin="round" stroke-width="6" /><polyline fill="none" points="144.72792206135784,412.72792206135784 211.90306627407986,345.55277784863586 319.3832970144351,453.0330085889911" stroke="#FFFFFF" stroke-linecap="square" stroke-linejoin="round" stroke-width="6" /><polyline fill="none" points="148.97056274847714,416.97056274847716 211.90306627407986,354.03805922287444 315.1406563273158,457.2756492761104" stroke="#B596C8" stroke-linecap="square" stroke-linejoin="round" stroke-width="6" /><polyline fill="none" points="153.21320343559643,421.2132034355964 211.9030662740799,362.52334059711296 310.8980156401965,461.5182899632296" stroke="#FFFFFF" stroke-linecap="square" stroke-linejoin="round" stroke-width="6" /><polyline fill="none" points="157.45584412271572,425.4558441227157 211.9030662740799,371.00862197135154 306.6553749530772,465.76093065034894" stroke="#B596C8" stroke-linecap="square" stroke-linejoin="round" stroke-width="6" /><polyline fill="none" points="216.0,316.0 611.9797974644666,-79.97979746446657" stroke="#63C3DC" stroke-width="6" /><polyline fill="none" points="220.2426406871193,320.24264068711926 616.222438151586,-75.73715677734731" stroke="#FFFFFF" stroke-width="6" /><polyline fill="none" points="224.48528137423858,324.4852813742386 620.4650788387053,-71.49451609022799" stroke="#63C3DC" stroke-width="6" /><polyline fill="none" points="228.72792206135784,328.72792206135784 624.7077195258245,-67.25187540310873" stroke="#FFFFFF" stroke-width="6" /><polyline fill="none" points="232.97056274847714,332.97056274847716 628.9503602129438,-63.00923471598941" stroke="#63C3DC" stroke-width="6" /><polyline fill="none" points="237.21320343559643,337.2132034355964 633.193000900063,-58.766594028870145" stroke="#FFFFFF" stroke-width="6" /><polyline fill="none" points="241.45584412271572,341.4558441227157 637.4356415871823,-54.52395334175088" stroke="#63C3DC" stroke-width="6" /><polyline fill="none" points="212.0,400.0 332.2081528017131,279.7918471982869 371.8061325481597,319.3898269447336" stroke="#B596C8" stroke-linecap="square" stroke-linejoin="round" stroke-width="6" /><polyline fill="none" points="216.2426406871193,404.24264068711926 332.2081528017131,288.2771285725255 367.56349186104046,323.6324676318529" stroke="#FFFFFF" stroke-linecap="square" stroke-linejoin="round" stroke-width="6" /><polyline fill="none" points="220.48528137423858,408.4852813742386 332.2081528017131,296.7624099467641 363.32085117392114,327.8751083189722" stroke="#B596C8" stroke-linecap="square" stroke-linejoin="round" stroke-width="6" /><polyline fill="none" points="224.72792206135784,412.72792206135784 332.2081528017131,305.24769132100266 359.0782104868019,332.11774900609146" stroke="#FFFFFF" stroke-linecap="square" stroke-linejoin="round" stroke-width="6" /><polyline fill="none" points="228.97056274847714,416.97056274847716 332.2081528017131,313.73297269524124 354.8355697996826,336.3603896932108" stroke="#B596C8" stroke-linecap="square" stroke-linejoin="round" stroke-width="6" /><polyline fill="none" points="233.21320343559643,421.2132034355964 332.2081528017131,322.21825406947977 350.5929291125633,340.60303038033" stroke="#FFFFFF" stroke-linecap="square" stroke-linejoin="round" stroke-width="6" /><polyline fill="none" points="237.45584412271572,425.4558441227157 332.2081528017131,330.70353544371835 346.35028842544403,344.8456710674493" stroke="#B596C8" stroke-linecap="square" stroke-linejoin="round" stroke-width="6" /><polyline fill="none" points="334.0,278.0 729.9797974644666,-117.97979746446657" stroke="#63C3DC" stroke-width="6" /><polyline fill="none" points="338.24264068711926,282.24264068711926 734.222438151586,-113.73715677734731" stroke="#FFFFFF" stroke-width="6" /><polyline fill="none" points="342.4852813742386,286.4852813742386 738.4650788387053,-109.49451609022799" stroke="#63C3DC" stroke-width="6" /><polyline fill="none" points="346.72792206135784,290.72792206135784 742.7077195258245,-105.25187540310873" stroke="#FFFFFF" stroke-width="6" /><polyline fill="none" points="350.97056274847716,294.97056274847716 746.9503602129438,-101.00923471598941" stroke="#63C3DC" stroke-width="6" /><polyline fill="none" points="355.2132034355964,299.2132034355964 751.193000900063,-96.76659402887014" stroke="#FFFFFF" stroke-width="6" /><polyline fill="none" points="359.4558441227157,303.4558441227157 755.4356415871823,-92.52395334175088" stroke="#63C3DC" stroke-width="6" /><polyline fill="none" points="-10.0,140.0 385.9797974644666,-255.97979746446657" stroke="#63C3DC" stroke-width="6" /><polyline fill="none" points="-5.757359312880715,144.2426406871193 390.2224381515859,-251.73715677734728" stroke="#FFFFFF" stroke-width="6" /><polyline fill="none" points="-1.5147186257614305,148.48528137423858 394.4650788387052,-247.494516090228" stroke="#63C3DC" stroke-width="6" /><polyline fill="none" points="2.727922061357855,152.72792206135784 398.7077195258245,-243.25187540310873" stroke="#FFFFFF" stroke-width="6" /><polyline fill="none" points="6.970562748477139,156.97056274847714 402.9503602129438,-239.00923471598944" stroke="#63C3DC" stroke-width="6" /><polyline fill="none" points="11.213203435596423,161.21320343559643 407.19300090006305,-234.76659402887014" stroke="#FFFFFF" stroke-width="6" /><polyline fill="none" points="15.45584412271571,165.45584412271572 411.4356415871823,-230.52395334175085" stroke="#63C3DC" stroke-width="6" /><polyline fill="none" points="-10.0,300.0 385.9797974644666,-95.97979746446657" stroke="#63C3DC" stroke-width="6" /><polyline fill="none" points="-5.757359312880715,304.24264068711926 390.2224381515859,-91.73715677734731" stroke="#FFFFFF" stroke-width="6" /><polyline fill="none" points="-1.5147186257614305,308.4852813742386 394.4650788387052,-87.49451609022799" stroke="#63C3DC" stroke-width="6" /><polyline fill="none" points="2.727922061357855,312.72792206135784 398.7077195258245,-83.25187540310873" stroke="#FFFFFF" stroke-width="6" /><polyline fill="none" points="6.970562748477139,316.97056274847716 402.9503602129438,-79.00923471598941" stroke="#63C3DC" stroke-width="6" /><polyline fill="none" points="11.213203435596423,321.2132034355964 407.19300090006305,-74.76659402887014" stroke="#FFFFFF" stroke-width="6" /><polyline fill="none" points="15.45584412271571,325.4558441227157 411.4356415871823,-70.52395334175088" stroke="#63C3DC" stroke-width="6" /><polyline fill="none" points="-10.0,380.0 385.9797974644666,-15.979797464466571" stroke="#B596C8" stroke-width="6" /><polyline fill="none" points="-5.757359312880715,384.24264068711926 390.2224381515859,-11.737156777347309" stroke="#FFFFFF" stroke-width="6" /><polyline fill="none" points="-1.5147186257614305,388.4852813742386 394.4650788387052,-7.4945160902279895" stroke="#B596C8" stroke-width="6" /><polyline fill="none" points="2.727922061357855,392.72792206135784 398.7077195258245,-3.251875403108727" stroke="#FFFFFF" stroke-width="6" /><polyline fill="none" points="6.970562748477139,396.97056274847716 402.9503602129438,0.9907652840105925" stroke="#B596C8" stroke-width="6" /><polyline fill="none" points="11.213203435596423,401.2132034355964 407.19300090006305,5.233405971129855" stroke="#FFFFFF" stroke-width="6" /><polyline fill="none" points="15.45584412271571,405.4558441227157 411.4356415871823,9.476046658249118" stroke="#B596C8" stroke-width="6" /><rect fill="none" height="416" stroke="white" stroke-width="20" width="300" x="0" y="0" /><line opacity="0.3" stroke="red" stroke-width="0.5" x1="0" x2="0" y1="0" y2="416" /><text fill="red" font-size="8" x="0" y="15">0</text><line opacity="0.3" stroke="red" stroke-width="0.5" x1="20" x2="20" y1="0" y2="416" /><text fill="red" font-size="8" x="20" y="15">20</text><line opacity="0.3" stroke="red" stroke-width="0.5" x1="40" x2="40" y1="0" y2="416" /><text fill="red" font-size="8" x="40" y="15">40</text><line opacity="0.3" stroke="red" stroke-width="0.5" x1="60" x2="60" y1="0" y2="416" /><text fill="red" font-size="8" x="60" y="15">60</text><line opacity="0.3" stroke="red" stroke-width="0.5" x1="80" x2="80" y1="0" y2="416" /><text fill="red" font-size="8" x="80" y="15">80</text><line opacity="0.3" stroke="red" stroke-width="0.5" x1="100" x2="100" y1="0" y2="416" /><text fill="red" font-size="8" x="100" y="15">100</text><line opacity="0.3" stroke="red" stroke-width="0.5" x1="120" x2="120" y1="0" y2="416" /><text fill="red" font-size="8" x="120" y="15">120</text><line opacity="0.3" stroke="red" stroke-width="0.5" x1="140" x2="140" y1="0" y2="416" /><text fill="red" font-size="8" x="140" y="15">140</text><line opacity="0.3" stroke="red" stroke-width="0.5" x1="160" x2="160" y1="0" y2="416" /><text fill="red" font-size="8" x="160" y="15">160</text><line opacity="0.3" stroke="red" stroke-width="0.5" x1="180" x2="180" y1="0" y2="416" /><text fill="red" font-size="8" x="180" y="15">180</text><line opacity="0.3" stroke="red" stroke-width="0.5" x1="200" x2="200" y1="0" y2="416" /><text fill="red" font-size="8" x="200" y="15">200</text><line opacity="0.3" stroke="red" stroke-width="0.5" x1="220" x2="220" y1="0" y2="416" /><text fill="red" font-size="8" x="220" y="15">220</text><line opacity="0.3" stroke="red" stroke-width="0.5" x1="240" x2="240" y1="0" y2="416" /><text fill="red" font-size="8" x="240" y="15">240</text><line opacity="0.3" stroke="red" stroke-width="0.5" x1="260" x2="260" y1="0" y2="416" /><text fill="red" font-size="8" x="260" y="15">260</text><line opacity="0.3" stroke="red" stroke-width="0.5" x1="280" x2="280" y1="0" y2="416" /><text fill="red" font-size="8" x="280" y="15">280</text><line opacity="0.3" stroke="red" stroke-width="0.5" x1="300" x2="300" y1="0" y2="416" /><text fill="red" font-size="8" x="300" y="15">300</text><line opacity="0.3" stroke="red" stroke-width="0.5" x1="0" x2="300" y1="0" y2="0" /><text fill="red" font-size="8" x="5" y="0">0</text><line opacity="0.3" stroke="red" stroke-width="0.5" x1="0" x2="300" y1="20" y2="20" /><text fill="red" font-size="8" x="5" y="20">20</text><line opacity="0.3" stroke="red" stroke-width="0.5" x1="0" x2="300" y1="40" y2="40" /><text fill="red" font-size="8" x="5" y="40">40</text><line opacity="0.3" stroke="red" stroke-width="0.5" x1="0" x2="300" y1="60" y2="60" /><text fill="red" font-size="8" x="5" y="60">60</text><line opacity="0.3" stroke="red" stroke-width="0.5" x1="0" x2="300" y1="80" y2="80" /><text fill="red" font-size="8" x="5" y="80">80</text><line opacity="0.3" stroke="red" stroke-width="0.5" x1="0" x2="300" y1="100" y2="100" /><text fill="red" font-size="8" x="5" y="100">100</text><line opacity="0.3" stroke="red" stroke-width="0.5" x1="0" x2="300" y1="120" y2="120" /><text fill="red" font-size="8" x="5" y="120">120</text><line opacity="0.3" stroke="red" stroke-width="0.5" x1="0" x2="300" y1="140" y2="140" /><text fill="red" font-size="8" x="5" y="140">140</text><line opacity="0.3" stroke="red" stroke-width="0.5" x1="0" x2="300" y1="160" y2="160" /><text fill="red" font-size="8" x="5" y="160">160</text><line opacity="0.3" stroke="red" stroke-width="0.5" x1="0" x2="300" y1="180" y2="180" /><text fill="red" font-size="8" x="5" y="180">180</text><line opacity="0.3" stroke="red" stroke-width="0.5" x1="0" x2="300" y1="200" y2="200" /><text fill="red" font-size="8" x="5" y="200">200</text><line opacity="0.3" stroke="red" stroke-width="0.5" x1="0" x2="300" y1="220" y2="220" /><text fill="red" font-size="8" x="5" y="220">220</text><line opacity="0.3" stroke="red" stroke-width="0.5" x1="0" x2="300" y1="240" y2="240" /><text fill="red" font-size="8" x="5" y="240">240</text><line opacity="0.3" stroke="red" stroke-width="0.5" x1="0" x2="300" y1="260" y2="260" /><text fill="red" font-size="8" x="5" y="260">260</text><line opacity="0.3" stroke="red" stroke-width="0.5" x1="0" x2="300" y1="280" y2="280" /><text fill="red" font-size="8" x="5" y="280">280</text><line opacity="0.3" stroke="red" stroke-width="0.5" x1="0" x2="300" y1="300" y2="300" /><text fill="red" font-size="8" x="5" y="300">300</text><line opacity="0.3" stroke="red" stroke-width="0.5" x1="0" x2="300" y1="320" y2="320" /><text fill="red" font-size="8" x="5" y="320">320</text><line opacity="0.3" stroke="red" stroke-width="0.5" x1="0" x2="300" y1="340" y2="340" /><text fill="red" font-size="8" x="5" y="340">340</text><line opacity="0.3" stroke="red" stroke-width="0.5" x1="0" x2="300" y1="360" y2="360" /><text fill="red" font-size="8" x="5" y="360">360</text><line opacity="0.3" stroke="red" stroke-width="0.5" x1="0" x2="300" y1="380" y2="380" /><text fill="red" font-size="8" x="5" y="380">380</text><line opacity="0.3" stroke="red" stroke-width="0.5" x1="0" x2="300" y1="400" y2="400" /><text fill="red" font-size="8" x="5" y="400">400</text><circle cx="10" cy="60" fill="white" opacity="0.9" r="10" stroke="#B596C8" stroke-width="2" /><text fill="black" font-size="10" font-weight="bold" text-anchor="middle" x="10" y="63">1</text><circle cx="10" cy="56" fill="white" opacity="0.9" r="10" stroke="#63C3DC" stroke-width="2" /><text fill="black" font-size="10" font-weight="bold" text-anchor="middle" x="10" y="59">2</text><circle cx="10" cy="220" fill="white" opacity="0.9" r="10" stroke="#B596C8" stroke-width="2" /><text fill="black" font-size="10" font-weight="bold" text-anchor="middle" x="10" y="223">4</text><circle cx="74" cy="136" fill="white" opacity="0.9" r="10" stroke="#63C3DC" stroke-width="2" /><text fill="black" font-size="10" font-weight="bold" text-anchor="middle" x="74" y="139">5</text><circle cx="154" cy="56" fill="white" opacity="0.9" r="10" stroke="#63C3DC" stroke-width="2" /><text fill="black" font-size="10" font-weight="bold" text-anchor="middle" x="154" y="59">6</text><circle cx="52" cy="400" fill="white" opacity="0.9" r="10" stroke="#63C3DC" stroke-width="2" /><text fill="black" font-size="10" font-weight="bold" text-anchor="middle" x="52" y="403">9</text><circle cx="170" cy="282" fill="white" opacity="0.9" r="10" stroke="#B596C8" stroke-width="2" /><text fill="black" font-size="10" font-weight="bold" text-anchor="middle" x="170" y="285">10</text><circle cx="132" cy="400" fill="white" opacity="0.9" r="10" stroke="#B596C8" stroke-width="2" /><text fill="black" font-size="10" font-weight="bold" text-anchor="middle" x="132" y="403">11</text><circle cx="216" cy="316" fill="white" opacity="0.9" r="10" stroke="#63C3DC" stroke-width="2" /><text fill="black" font-size="10" font-weight="bold" text-anchor="middle" x="216" y="319">12</text><circle cx="212" cy="400" fill="white" opacity="0.9" r="10" stroke="#B596C8" stroke-width="2" /><text fill="black" font-size="10" font-weight="bold" text-anchor="middle" x="212" y="403">13</text><circle cx="334" cy="278" fill="white" opacity="0.9" r="10" stroke="#63C3DC" stroke-width="2" /><text fill="black" font-size="10" font-weight="bold" text-anchor="middle" x="334" y="281">14</text><circle cx="10" cy="140" fill="white" opacity="0.9" r="10" stroke="#63C3DC" stroke-width="2" /><text fill="black" font-size="10" font-weight="bold" text-anchor="middle" x="10" y="143">3</text><circle cx="10" cy="300" fill="white" opacity="0.9" r="10" stroke="#63C3DC" stroke-width="2" /><text fill="black" font-size="10" font-weight="bold" text-anchor="middle" x="10" y="303">7</text><circle cx="10" cy="380" fill="white" opacity="0.9" r="10" stroke="#B596C8" stroke-width="2" /><text fill="black" font-size="10" font-weight="bold" text-anchor="middle" x="10" y="383">8</text></svg>