<svg baseProfile="full" height="416" version="1.1" width="300" xmlns="http://www.w3.org/2000/svg" xmlns:ev="http://www.w3.org/2001/xml-events" xmlns:xlink="http://www.w3.org/1999/xlink"><defs /><rect fill="white" height="416" width="300" x="0" y="0" /><polyline fill="none" points="116.0,-56.0 195.9030662740799,-135.90306627407986 316.111219075793,-256.1112190757929" stroke="#63C3DC" stroke-linecap="square" stroke-linejoin="round" stroke-width="6" /><polyline fill="none" points="120.24264068711929,-51.757359312880716 195.9030662740799,-127.41778489984131 320.3538597629123,-251.86857838867365" stroke="#FFFFFF" stroke-linecap="square" stroke-linejoin="round" stroke-width="6" /><polyline fill="none" points="124.48528137423857,-47.51471862576143 195.9030662740799,-118.93250352560273 324.59650045003156,-247.62593770155436" stroke="#63C3DC" stroke-linecap="square" stroke-linejoin="round" stroke-width="6" /><polyline fill="none" points="128.72792206135784,-43.27207793864214 195.90306627407986,-110.44722215136414 328.8391411371508,-243.38329701443507" stroke="#FFFFFF" stroke-linecap="square" stroke-linejoin="round" stroke-width="6" /><polyline fill="none" points="132.97056274847714,-39.02943725152286 195.90306627407986,-101.96194077712559 333.0817818242701,-239.1406563273158" stroke="#63C3DC" stroke-linecap="square" stroke-linejoin="round" stroke-width="6" /><polyline fill="none" points="137.21320343559643,-34.78679656440357 195.9030662740799,-93.47665940288701 337.3244225113894,-234.8980156401965" stroke="#FFFFFF" stroke-linecap="square" stroke-linejoin="round" stroke-width="6" /><polyline fill="none" points="141.45584412271572,-30.544155877284286 195.9030662740799,-84.99137802864844 341.56706319850866,-230.65537495307723" stroke="#63C3DC" stroke-linecap="square" stroke-linejoin="round" stroke-width="6" /><polyline fill="none" points="-10.0,220.0 69.90306627407988,140.09693372592014 190.11121907579292,260.30508652763325" stroke="#63C3DC" stroke-linecap="square" stroke-linejoin="round" stroke-width="6" /><polyline fill="none" points="-5.757359312880715,224.2426406871193 69.90306627407988,148.5822151001587 185.86857838867365,264.5477272147525" stroke="#FFFFFF" stroke-linecap="square" stroke-linejoin="round" stroke-width="6" /><polyline fill="none" points="-1.5147186257614305,228.48528137423858 69.90306627407988,157.06749647439727 181.62593770155436,268.79036790187183" stroke="#63C3DC" stroke-linecap="square" stroke-linejoin="round" stroke-width="6" /><polyline fill="none" points="2.727922061357855,232.72792206135784 69.90306627407988,165.55277784863586 177.38329701443507,273.0330085889911" stroke="#FFFFFF" stroke-linecap="square" stroke-linejoin="round" stroke-width="6" /><polyline fill="none" points="6.970562748477139,236.97056274847714 69.90306627407988,174.0380592228744 173.1406563273158,277.27564927611036" stroke="#63C3DC" stroke-linecap="square" stroke-linejoin="round" stroke-width="6" /><polyline fill="none" points="11.213203435596423,241.21320343559643 69.90306627407988,182.523340597113 168.8980156401965,281.5182899632297" stroke="#FFFFFF" stroke-linecap="square" stroke-linejoin="round" stroke-width="6" /><polyline fill="none" points="15.45584412271571,245.45584412271572 69.90306627407988,191.00862197135157 164.65537495307723,285.760930650349" stroke="#63C3DC" stroke-linecap="square" stroke-linejoin="round" stroke-width="6" /><polyline fill="none" points="46.0,404.0 125.90306627407988,324.09693372592017 246.11121907579292,444.3050865276333" stroke="#63C3DC" stroke-linecap="square" stroke-linejoin="round" stroke-width="6" /><polyline fill="none" points="50.242640687119284,408.24264068711926 125.90306627407986,332.5822151001587 241.86857838867363,448.5477272147525" stroke="#FFFFFF" stroke-linecap="square" stroke-linejoin="round" stroke-width="6" /><polyline fill="none" points="54.48528137423857,412.4852813742386 125.90306627407988,341.0674964743973 237.62593770155436,452.79036790187183" stroke="#63C3DC" stroke-linecap="square" stroke-linejoin="round" stroke-width="6" /><polyline fill="none" points="58.72792206135786,416.72792206135784 125.90306627407988,349.55277784863586 233.38329701443507,457.0330085889911" stroke="#FFFFFF" stroke-linecap="square" stroke-linejoin="round" stroke-width="6" /><polyline fill="none" points="62.970562748477136,420.97056274847716 125.90306627407986,358.03805922287444 229.14065632731578,461.2756492761104" stroke="#63C3DC" stroke-linecap="square" stroke-linejoin="round" stroke-width="6" /><polyline fill="none" points="67.21320343559643,425.2132034355964 125.90306627407988,366.52334059711296 224.8980156401965,465.5182899632296" stroke="#FFFFFF" stroke-linecap="square" stroke-linejoin="round" stroke-width="6" /><polyline fill="none" points="71.45584412271572,429.4558441227157 125.90306627407989,375.00862197135154 220.65537495307723,469.76093065034894" stroke="#63C3DC" stroke-linecap="square" stroke-linejoin="round" stroke-width="6" /><polyline fill="none" points="-10.0,380.0 385.9797974644666,-15.979797464466571" stroke="#63C3DC" stroke-width="6" /><polyline fill="none" points="-5.757359312880715,384.24264068711926 390.2224381515859,-11.737156777347309" stroke="#FFFFFF" stroke-width="6" /><polyline fill="none" points="-1.5147186257614305,388.4852813742386 394.4650788387052,-7.4945160902279895" stroke="#63C3DC" stroke-width="6" /><polyline fill="none" points="2.727922061357855,392.72792206135784 398.7077195258245,-3.251875403108727" stroke="#FFFFFF" stroke-width="6" /><polyline fill="none" points="6.970562748477139,396.97056274847716 402.9503602129438,0.9907652840105925" stroke="#63C3DC" stroke-width="6" /><polyline fill="none" points="11.213203435596423,401.2132034355964 407.19300090006305,5.233405971129855" stroke="#FFFFFF" stroke-width="6" /><polyline fill="none" points="15.45584412271571,405.4558441227157 411.4356415871823,9.476046658249118" stroke="#63C3DC" stroke-width="6" /><rect fill="none" height="416" stroke="white" stroke-width="20" width="300" x="0" y="0" /><line opacity="0.3" stroke="red" stroke-width="0.5" x1="0" x2="0" y1="0" y2="416" /><text fill="red" font-size="8" x="0" y="15">0</text><line opacity="0.3" stroke="red" stroke-width="0.5" x1="20" x2="20" y1="0" y2="416" /><text fill="red" font-size="8" x="20" y="15">20</text><line opacity="0.3" stroke="red" stroke-width="0.5" x1="40" x2="40" y1="0" y2="416" /><text fill="red" font-size="8" x="40" y="15">40</text><line opacity="0.3" stroke="red" stroke-width="0.5" x1="60" x2="60" y1="0" y2="416" /><text fill="red" font-size="8" x="60" y="15">60</text><line opacity="0.3" stroke="red" stroke-width="0.5" x1="80" x2="80" y1="0" y2="416" /><text fill="red" font-size="8" x="80" y="15">80</text><line opacity="0.3" stroke="red" stroke-width="0.5" x1="100" x2="100" y1="0" y2="416" /><text fill="red" font-size="8" x="100" y="15">100</text><line opacity="0.3" stroke="red" stroke-width="0.5" x1="120" x2="120" y1="0" y2="416" /><text fill="red" font-size="8" x="120" y="15">120</text><line opacity="0.3" stroke="red" stroke-width="0.5" x1="140" x2="140" y1="0" y2="416" /><text fill="red" font-size="8" x="140" y="15">140</text><line opacity="0.3" stroke="red" stroke-width="0.5" x1="160" x2="160" y1="0" y2="416" /><text fill="red" font-size="8" x="160" y="15">160</text><line opacity="0.3" stroke="red" stroke-width="0.5" x1="180" x2="180" y1="0" y2="416" /><text fill="red" font-size="8" x="180" y="15">180</text><line opacity="0.3" stroke="red" stroke-width="0.5" x1="200" x2="200" y1="0" y2="416" /><text fill="red" font-size="8" x="200" y="15">200</text><line opacity="0.3" stroke="red" stroke-width="0.5" x1="220" x2="220" y1="0" y2="416" /><text fill="red" font-size="8" x="220" y="15">220</text><line opacity="0.3" stroke="red" stroke-width="0.5" x1="240" x2="240" y1="0" y2="416" /><text fill="red" font-size="8" x="240" y="15">240</text><line opacity="0.3" stroke="red" stroke-width="0.5" x1="260" x2="260" y1="0" y2="416" /><text fill="red" font-size="8" x="260" y="15">260</text><line opacity="0.3" stroke="red" stroke-width="0.5" x1="280" x2="280" y1="0" y2="416" /><text fill="red" font-size="8" x="280" y="15">280</text><line opacity="0.3" stroke="red" stroke-width="0.5" x1="300" x2="300" y1="0" y2="416" /><text fill="red" font-size="8" x="300" y="15">300</text><line opacity="0.3" stroke="red" stroke-width="0.5" x1="0" x2="300" y1="0" y2="0" /><text fill="red" font-size="8" x="5" y="0">0</text><line opacity="0.3" stroke="red" stroke-width="0.5" x1="0" x2="300" y1="20" y2="20" /><text fill="red" font-size="8" x="5" y="20">20</text><line opacity="0.3" stroke="red" stroke-width="0.5" x1="0" x2="300" y1="40" y2="40" /><text fill="red" font-size="8" x="5" y="40">40</text><line opacity="0.3" stroke="red" stroke-width="0.5" x1="0" x2="300" y1="60" y2="60" /><text fill="red" font-size="8" x="5" y="60">60</text><line opacity="0.3" stroke="red" stroke-width="0.5" x1="0" x2="300" y1="80" y2="80" /><text fill="red" font-size="8" x="5" y="80">80</text><line opacity="0.3" stroke="red" stroke-width="0.5" x1="0" x2="300" y1="100" y2="100" /><text fill="red" font-size="8" x="5" y="100">100</text><line opacity="0.3" stroke="red" stroke-width="0.5" x1="0" x2="300" y1="120" y2="120" /><text fill="red" font-size="8" x="5" y="120">120</text><line opacity="0.3" stroke="red" stroke-width="0.5" x1="0" x2="300" y1="140" y2="140" /><text fill="red" font-size="8" x="5" y="140">140</text><line opacity="0.3" stroke="red" stroke-width="0.5" x1="0" x2="300" y1="160" y2="160" /><text fill="red" font-size="8" x="5" y="160">160</text><line opacity="0.3" stroke="red" stroke-width="0.5" x1="0" x2="300" y1="180" y2="180" /><text fill="red" font-size="8" x="5" y="180">180</text><line opacity="0.3" stroke="red" stroke-width="0.5" x1="0" x2="300" y1="200" y2="200" /><text fill="red" font-size="8" x="5" y="200">200</text><line opacity="0.3" stroke="red" stroke-width="0.5" x1="0" x2="300" y1="220" y2="220" /><text fill="red" font-size="8" x="5" y="220">220</text><line opacity="0.3" stroke="red" stroke-width="0.5" x1="0" x2="300" y1="240" y2="240" /><text fill="red" font-size="8" x="5" y="240">240</text><line opacity="0.3" stroke="red" stroke-width="0.5" x1="0" x2="300" y1="260" y2="260" /><text fill="red" font-size="8" x="5" y="260">260</text><line opacity="0.3" stroke="red" stroke-width="0.5" x1="0" x2="300" y1="280" y2="280" /><text fill="red" font-size="8" x="5" y="280">280</text><line opacity="0.3" stroke="red" stroke-width="0.5" x1="0" x2="300" y1="300" y2="300" /><text fill="red" font-size="8" x="5" y="300">300</text><line opacity="0.3" stroke="red" stroke-width="0.5" x1="0" x2="300" y1="320" y2="320" /><text fill="red" font-size="8" x="5" y="320">320</text><line opacity="0.3" stroke="red" stroke-width="0.5" x1="0" x2="300" y1="340" y2="340" /><text fill="red" font-size="8" x="5" y="340">340</text><line opacity="0.3" stroke="red" stroke-width="0.5" x1="0" x2="300" y1="360" y2="360" /><text fill="red" font-size="8" x="5" y="360">360</text><line opacity="0.3" stroke="red" stroke-width="0.5" x1="0" x2="300" y1="380" y2="380" /><text fill="red" font-size="8" x="5" y="380">380</text><line opacity="0.3" stroke="red" stroke-width="0.5" x1="0" x2="300" y1="400" y2="400" /><text fill="red" font-size="8" x="5" y="400">400</text><circle cx="116" cy="-56" fill="white" opacity="0.9" r="10" stroke="#63C3DC" stroke-width="2" /><text fill="black" font-size="10" font-weight="bold" text-anchor="middle" x="116" y="-53">2</text><circle cx="10" cy="220" fill="white" opacity="0.9" r="10" stroke="#63C3DC" stroke-width="2" /><text fill="black" font-size="10" font-weight="bold" text-anchor="middle" x="10" y="223">4</text><circle cx="46" cy="400" fill="white" opacity="0.9" r="10" stroke="#63C3DC" stroke-width="2" /><text fill="black" font-size="10" font-weight="bold" text-anchor="middle" x="46" y="403">7</text><circle cx="10" cy="380" fill="white" opacity="0.9" r="10" stroke="#63C3DC" stroke-width="2" /><text fill="black" font-size="10" font-weight="bold" text-anchor="middle" x="10" y="383">9</text></svg>