<svg baseProfile="full" height="416" version="1.1" width="300" xmlns="http://www.w3.org/2000/svg" xmlns:ev="http://www.w3.org/2001/xml-events" xmlns:xlink="http://www.w3.org/1999/xlink"><defs /><rect fill="white" height="416" width="300" x="0" y="0" /><polyline fill="none" points="-10.0,300.0 69.90306627407985,379.9030662740799 149.80613254815972,300.0" stroke="#63C3DC" stroke-linecap="square" stroke-linejoin="round" stroke-width="6" /><polyline fill="none" points="-14.242640687119286,304.24264068711926 69.90306627407985,388.3883476483185 154.04877323527901,304.2426406871193" stroke="#FFFFFF" stroke-linecap="square" stroke-linejoin="round" stroke-width="6" /><polyline fill="none" points="-18.48528137423857,308.4852813742386 69.90306627407985,396.87362902255705 158.2914139223983,308.48528137423864" stroke="#63C3DC" stroke-linecap="square" stroke-linejoin="round" stroke-width="6" /><polyline fill="none" points="-22.72792206135786,312.72792206135784 69.90306627407985,405.3589103967956 162.53405460951757,312.72792206135784" stroke="#FFFFFF" stroke-linecap="square" stroke-linejoin="round" stroke-width="6" /><polyline fill="none" points="-26.970562748477143,316.97056274847716 69.90306627407983,413.84419177103416 166.77669529663683,316.97056274847716" stroke="#63C3DC" stroke-linecap="square" stroke-linejoin="round" stroke-width="6" /><polyline fill="none" points="-31.21320343559643,321.2132034355964 69.90306627407985,422.32947314527274 171.01933598375615,321.2132034355965" stroke="#FFFFFF" stroke-linecap="square" stroke-linejoin="round" stroke-width="6" /><polyline fill="none" points="-35.45584412271572,325.4558441227157 69.90306627407983,430.8147545195113 175.2619766708754,325.45584412271575" stroke="#63C3DC" stroke-linecap="square" stroke-linejoin="round" stroke-width="6" /><polyline fill="none" points="30.0,260.0 109.90306627407985,339.9030662740799" stroke="#63C3DC" stroke-width="6" /><polyline fill="none" points="25.757359312880716,264.24264068711926 105.66042558696057,344.14570696119915" stroke="#FFFFFF" stroke-width="6" /><polyline fill="none" points="21.51471862576143,268.4852813742386 101.41778489984128,348.3883476483185" stroke="#63C3DC" stroke-width="6" /><polyline fill="none" points="17.27207793864214,272.72792206135784 97.17514421272199,352.63098833543773" stroke="#FFFFFF" stroke-width="6" /><polyline fill="none" points="13.029437251522857,276.97056274847716 92.9325035256027,356.87362902255705" stroke="#63C3DC" stroke-width="6" /><polyline fill="none" points="8.78679656440357,281.2132034355964 88.68986283848342,361.1162697096763" stroke="#FFFFFF" stroke-width="6" /><polyline fill="none" points="4.5441558772842825,285.4558441227157 84.44722215136413,365.3589103967956" stroke="#63C3DC" stroke-width="6" /><polyline fill="none" points="52.0,400.0 172.20815280171308,279.7918471982869 292.41630560342617,400.0 412.62445840513925,279.7918471982869" stroke="#63C3DC" stroke-linecap="square" stroke-linejoin="round" stroke-width="6" /><polyline fill="none" points="56.242640687119284,404.24264068711926 172.20815280171308,288.2771285725255 292.41630560342617,408.48528137423864 416.8670990922585,284.0344878854063" stroke="#FFFFFF" stroke-linecap="square" stroke-linejoin="round" stroke-width="6" /><polyline fill="none" points="60.48528137423857,408.4852813742386 172.20815280171308,296.7624099467641 292.41630560342617,416.97056274847716 421.10973977937783,288.2771285725255" stroke="#63C3DC" stroke-linecap="square" stroke-linejoin="round" stroke-width="6" /><polyline fill="none" points="64.72792206135786,412.72792206135784 172.20815280171308,305.24769132100266 292.41630560342617,425.4558441227158 425.35238046649715,292.5197692596449" stroke="#FFFFFF" stroke-linecap="square" stroke-linejoin="round" stroke-width="6" /><polyline fill="none" points="68.97056274847714,416.97056274847716 172.20815280171308,313.73297269524124 292.41630560342617,433.9411254969543 429.59502115361636,296.76240994676414" stroke="#63C3DC" stroke-linecap="square" stroke-linejoin="round" stroke-width="6" /><polyline fill="none" points="73.21320343559643,421.2132034355964 172.20815280171308,322.21825406947977 292.41630560342617,442.42640687119285 433.8376618407357,301.00505063388334" stroke="#FFFFFF" stroke-linecap="square" stroke-linejoin="round" stroke-width="6" /><polyline fill="none" points="77.45584412271572,425.4558441227157 172.20815280171308,330.70353544371835 292.41630560342617,450.9116882454315 438.080302527855,305.2476913210027" stroke="#63C3DC" stroke-linecap="square" stroke-linejoin="round" stroke-width="6" /><polyline fill="none" points="174.0,278.0 213.59797974644667,238.40202025355336 333.8061325481597,358.6101730552665" stroke="#63C3DC" stroke-linecap="square" stroke-linejoin="round" stroke-width="6" /><polyline fill="none" points="178.2426406871193,282.24264068711926 213.59797974644667,246.88730162779189 329.56349186104046,362.8528137423857" stroke="#FFFFFF" stroke-linecap="square" stroke-linejoin="round" stroke-width="6" /><polyline fill="none" points="182.48528137423858,286.4852813742386 213.59797974644667,255.3725830020305 325.32085117392114,367.095454429505" stroke="#63C3DC" stroke-linecap="square" stroke-linejoin="round" stroke-width="6" /><polyline fill="none" points="186.72792206135784,290.72792206135784 213.59797974644664,263.85786437626905 321.0782104868018,371.3380951166243" stroke="#FFFFFF" stroke-linecap="square" stroke-linejoin="round" stroke-width="6" /><polyline fill="none" points="190.97056274847714,294.97056274847716 213.59797974644667,272.34314575050763 316.8355697996826,375.5807358037436" stroke="#63C3DC" stroke-linecap="square" stroke-linejoin="round" stroke-width="6" /><polyline fill="none" points="195.21320343559643,299.2132034355964 213.59797974644667,280.8284271247462 312.5929291125633,379.82337649086287" stroke="#FFFFFF" stroke-linecap="square" stroke-linejoin="round" stroke-width="6" /><polyline fill="none" points="199.45584412271572,303.4558441227157 213.59797974644667,289.31370849898474 308.35028842544403,384.06601717798213" stroke="#63C3DC" stroke-linecap="square" stroke-linejoin="round" stroke-width="6" /><polyline fill="none" points="132.0,400.0 252.20815280171308,279.7918471982869" stroke="#63C3DC" stroke-width="6" /><polyline fill="none" points="136.2426406871193,404.24264068711926 256.45079348883235,284.0344878854062" stroke="#FFFFFF" stroke-width="6" /><polyline fill="none" points="140.48528137423858,408.4852813742386 260.69343417595167,288.2771285725255" stroke="#63C3DC" stroke-width="6" /><polyline fill="none" points="144.72792206135784,412.72792206135784 264.9360748630709,292.51976925964476" stroke="#FFFFFF" stroke-width="6" /><polyline fill="none" points="148.97056274847714,416.97056274847716 269.1787155501902,296.7624099467641" stroke="#63C3DC" stroke-width="6" /><polyline fill="none" points="153.21320343559643,421.2132034355964 273.4213562373095,301.00505063388334" stroke="#FFFFFF" stroke-width="6" /><polyline fill="none" points="157.45584412271572,425.4558441227157 277.66399692442883,305.2476913210026" stroke="#63C3DC" stroke-width="6" /><polyline fill="none" points="250.0,282.0 329.9030662740799,202.09693372592014 369.50104602052653,241.6949134723668 449.4041122946064,161.79184719828694" stroke="#63C3DC" stroke-linecap="square" stroke-linejoin="round" stroke-width="6" /><polyline fill="none" points="254.2426406871193,286.24264068711926 329.9030662740799,210.5822151001587 369.50104602052653,250.18019484660536 453.6467529817257,166.0344878854062" stroke="#FFFFFF" stroke-linecap="square" stroke-linejoin="round" stroke-width="6" /><polyline fill="none" points="258.4852813742386,290.4852813742386 329.9030662740799,219.06749647439727 369.50104602052653,258.66547622084397 457.88939366884495,170.27712857252556" stroke="#63C3DC" stroke-linecap="square" stroke-linejoin="round" stroke-width="6" /><polyline fill="none" points="262.72792206135784,294.72792206135784 329.90306627407983,227.55277784863586 369.5010460205265,267.1507575950825 462.1320343559642,174.51976925964476" stroke="#FFFFFF" stroke-linecap="square" stroke-linejoin="round" stroke-width="6" /><polyline fill="none" points="266.97056274847716,298.97056274847716 329.9030662740799,236.03805922287444 369.50104602052653,275.63603896932113 466.3746750430835,178.76240994676414" stroke="#63C3DC" stroke-linecap="square" stroke-linejoin="round" stroke-width="6" /><polyline fill="none" points="271.2132034355964,303.2132034355964 329.9030662740799,244.523340597113 369.50104602052653,284.12132034355966 470.61731573020285,183.00505063388337" stroke="#FFFFFF" stroke-linecap="square" stroke-linejoin="round" stroke-width="6" /><polyline fill="none" points="275.4558441227157,307.4558441227157 329.90306627407983,253.00862197135154 369.5010460205265,292.6066017177982 474.85995641732205,187.2476913210026" stroke="#63C3DC" stroke-linecap="square" stroke-linejoin="round" stroke-width="6" /><polyline fill="none" points="334.0,198.0 373.59797974644664,158.40202025355336 413.1959594928933,198.00000000000003 809.1757569573599,-197.97979746446654" stroke="#63C3DC" stroke-linecap="square" stroke-linejoin="round" stroke-width="6" /><polyline fill="none" points="338.24264068711926,202.2426406871193 373.59797974644664,166.8873016277919 413.1959594928933,206.48528137423858 813.4183976444792,-193.7371567773473" stroke="#FFFFFF" stroke-linecap="square" stroke-linejoin="round" stroke-width="6" /><polyline fill="none" points="342.4852813742386,206.48528137423858 373.5979797464467,175.3725830020305 413.19595949289334,214.97056274847716 817.6610383315985,-189.494516090228" stroke="#63C3DC" stroke-linecap="square" stroke-linejoin="round" stroke-width="6" /><polyline fill="none" points="346.72792206135784,210.72792206135784 373.59797974644664,183.85786437626905 413.1959594928933,223.45584412271572 821.9036790187178,-185.2518754031087" stroke="#FFFFFF" stroke-linecap="square" stroke-linejoin="round" stroke-width="6" /><polyline fill="none" points="350.97056274847716,214.97056274847714 373.5979797464467,192.34314575050763 413.19595949289334,231.9411254969543 826.1463197058372,-181.00923471598944" stroke="#63C3DC" stroke-linecap="square" stroke-linejoin="round" stroke-width="6" /><polyline fill="none" points="355.2132034355964,219.21320343559643 373.59797974644664,200.82842712474618 413.1959594928933,240.42640687119285 830.3889603929563,-176.76659402887014" stroke="#FFFFFF" stroke-linecap="square" stroke-linejoin="round" stroke-width="6" /><polyline fill="none" points="359.4558441227157,223.45584412271572 373.59797974644664,209.31370849898477 413.1959594928933,248.91168824543144 834.6316010800756,-172.52395334175083" stroke="#63C3DC" stroke-linecap="square" stroke-linejoin="round" stroke-width="6" /><polyline fill="none" points="-10.0,140.0 385.9797974644666,-255.97979746446657" stroke="#63C3DC" stroke-width="6" /><polyline fill="none" points="-5.757359312880715,144.2426406871193 390.2224381515859,-251.73715677734728" stroke="#FFFFFF" stroke-width="6" /><polyline fill="none" points="-1.5147186257614305,148.48528137423858 394.4650788387052,-247.494516090228" stroke="#63C3DC" stroke-width="6" /><polyline fill="none" points="2.727922061357855,152.72792206135784 398.7077195258245,-243.25187540310873" stroke="#FFFFFF" stroke-width="6" /><polyline fill="none" points="6.970562748477139,156.97056274847714 402.9503602129438,-239.00923471598944" stroke="#63C3DC" stroke-width="6" /><polyline fill="none" points="11.213203435596423,161.21320343559643 407.19300090006305,-234.76659402887014" stroke="#FFFFFF" stroke-width="6" /><polyline fill="none" points="15.45584412271571,165.45584412271572 411.4356415871823,-230.52395334175085" stroke="#63C3DC" stroke-width="6" /><rect fill="none" height="416" stroke="white" stroke-width="20" width="300" x="0" y="0" /><line opacity="0.3" stroke="red" stroke-width="0.5" x1="0" x2="0" y1="0" y2="416" /><text fill="red" font-size="8" x="0" y="15">0</text><line opacity="0.3" stroke="red" stroke-width="0.5" x1="20" x2="20" y1="0" y2="416" /><text fill="red" font-size="8" x="20" y="15">20</text><line opacity="0.3" stroke="red" stroke-width="0.5" x1="40" x2="40" y1="0" y2="416" /><text fill="red" font-size="8" x="40" y="15">40</text><line opacity="0.3" stroke="red" stroke-width="0.5" x1="60" x2="60" y1="0" y2="416" /><text fill="red" font-size="8" x="60" y="15">60</text><line opacity="0.3" stroke="red" stroke-width="0.5" x1="80" x2="80" y1="0" y2="416" /><text fill="red" font-size="8" x="80" y="15">80</text><line opacity="0.3" stroke="red" stroke-width="0.5" x1="100" x2="100" y1="0" y2="416" /><text fill="red" font-size="8" x="100" y="15">100</text><line opacity="0.3" stroke="red" stroke-width="0.5" x1="120" x2="120" y1="0" y2="416" /><text fill="red" font-size="8" x="120" y="15">120</text><line opacity="0.3" stroke="red" stroke-width="0.5" x1="140" x2="140" y1="0" y2="416" /><text fill="red" font-size="8" x="140" y="15">140</text><line opacity="0.3" stroke="red" stroke-width="0.5" x1="160" x2="160" y1="0" y2="416" /><text fill="red" font-size="8" x="160" y="15">160</text><line opacity="0.3" stroke="red" stroke-width="0.5" x1="180" x2="180" y1="0" y2="416" /><text fill="red" font-size="8" x="180" y="15">180</text><line opacity="0.3" stroke="red" stroke-width="0.5" x1="200" x2="200" y1="0" y2="416" /><text fill="red" font-size="8" x="200" y="15">200</text><line opacity="0.3" stroke="red" stroke-width="0.5" x1="220" x2="220" y1="0" y2="416" /><text fill="red" font-size="8" x="220" y="15">220</text><line opacity="0.3" stroke="red" stroke-width="0.5" x1="240" x2="240" y1="0" y2="416" /><text fill="red" font-size="8" x="240" y="15">240</text><line opacity="0.3" stroke="red" stroke-width="0.5" x1="260" x2="260" y1="0" y2="416" /><text fill="red" font-size="8" x="260" y="15">260</text><line opacity="0.3" stroke="red" stroke-width="0.5" x1="280" x2="280" y1="0" y2="416" /><text fill="red" font-size="8" x="280" y="15">280</text><line opacity="0.3" stroke="red" stroke-width="0.5" x1="300" x2="300" y1="0" y2="416" /><text fill="red" font-size="8" x="300" y="15">300</text><line opacity="0.3" stroke="red" stroke-width="0.5" x1="0" x2="300" y1="0" y2="0" /><text fill="red" font-size="8" x="5" y="0">0</text><line opacity="0.3" stroke="red" stroke-width="0.5" x1="0" x2="300" y1="20" y2="20" /><text fill="red" font-size="8" x="5" y="20">20</text><line opacity="0.3" stroke="red" stroke-width="0.5" x1="0" x2="300" y1="40" y2="40" /><text fill="red" font-size="8" x="5" y="40">40</text><line opacity="0.3" stroke="red" stroke-width="0.5" x1="0" x2="300" y1="60" y2="60" /><text fill="red" font-size="8" x="5" y="60">60</text><line opacity="0.3" stroke="red" stroke-width="0.5" x1="0" x2="300" y1="80" y2="80" /><text fill="red" font-size="8" x="5" y="80">80</text><line opacity="0.3" stroke="red" stroke-width="0.5" x1="0" x2="300" y1="100" y2="100" /><text fill="red" font-size="8" x="5" y="100">100</text><line opacity="0.3" stroke="red" stroke-width="0.5" x1="0" x2="300" y1="120" y2="120" /><text fill="red" font-size="8" x="5" y="120">120</text><line opacity="0.3" stroke="red" stroke-width="0.5" x1="0" x2="300" y1="140" y2="140" /><text fill="red" font-size="8" x="5" y="140">140</text><line opacity="0.3" stroke="red" stroke-width="0.5" x1="0" x2="300" y1="160" y2="160" /><text fill="red" font-size="8" x="5" y="160">160</text><line opacity="0.3" stroke="red" stroke-width="0.5" x1="0" x2="300" y1="180" y2="180" /><text fill="red" font-size="8" x="5" y="180">180</text><line opacity="0.3" stroke="red" stroke-width="0.5" x1="0" x2="300" y1="200" y2="200" /><text fill="red" font-size="8" x="5" y="200">200</text><line opacity="0.3" stroke="red" stroke-width="0.5" x1="0" x2="300" y1="220" y2="220" /><text fill="red" font-size="8" x="5" y="220">220</text><line opacity="0.3" stroke="red" stroke-width="0.5" x1="0" x2="300" y1="240" y2="240" /><text fill="red" font-size="8" x="5" y="240">240</text><line opacity="0.3" stroke="red" stroke-width="0.5" x1="0" x2="300" y1="260" y2="260" /><text fill="red" font-size="8" x="5" y="260">260</text><line opacity="0.3" stroke="red" stroke-width="0.5" x1="0" x2="300" y1="280" y2="280" /><text fill="red" font-size="8" x="5" y="280">280</text><line opacity="0.3" stroke="red" stroke-width="0.5" x1="0" x2="300" y1="300" y2="300" /><text fill="red" font-size="8" x="5" y="300">300</text><line opacity="0.3" stroke="red" stroke-width="0.5" x1="0" x2="300" y1="320" y2="320" /><text fill="red" font-size="8" x="5" y="320">320</text><line opacity="0.3" stroke="red" stroke-width="0.5" x1="0" x2="300" y1="340" y2="340" /><text fill="red" font-size="8" x="5" y="340">340</text><line opacity="0.3" stroke="red" stroke-width="0.5" x1="0" x2="300" y1="360" y2="360" /><text fill="red" font-size="8" x="5" y="360">360</text><line opacity="0.3" stroke="red" stroke-width="0.5" x1="0" x2="300" y1="380" y2="380" /><text fill="red" font-size="8" x="5" y="380">380</text><line opacity="0.3" stroke="red" stroke-width="0.5" x1="0" x2="300" y1="400" y2="400" /><text fill="red" font-size="8" x="5" y="400">400</text><circle cx="10" cy="300" fill="white" opacity="0.9" r="10" stroke="#63C3DC" stroke-width="2" /><text fill="black" font-size="10" font-weight="bold" text-anchor="middle" x="10" y="303">7</text><circle cx="30" cy="260" fill="white" opacity="0.9" r="10" stroke="#63C3DC" stroke-width="2" /><text fill="black" font-size="10" font-weight="bold" text-anchor="middle" x="30" y="263">8</text><circle cx="52" cy="400" fill="white" opacity="0.9" r="10" stroke="#63C3DC" stroke-width="2" /><text fill="black" font-size="10" font-weight="bold" text-anchor="middle" x="52" y="403">11</text><circle cx="174" cy="278" fill="white" opacity="0.9" r="10" stroke="#63C3DC" stroke-width="2" /><text fill="black" font-size="10" font-weight="bold" text-anchor="middle" x="174" y="281">12</text><circle cx="132" cy="400" fill="white" opacity="0.9" r="10" stroke="#63C3DC" stroke-width="2" /><text fill="black" font-size="10" font-weight="bold" text-anchor="middle" x="132" y="403">13</text><circle cx="250" cy="282" fill="white" opacity="0.9" r="10" stroke="#63C3DC" stroke-width="2" /><text fill="black" font-size="10" font-weight="bold" text-anchor="middle" x="250" y="285">14</text><circle cx="334" cy="198" fill="white" opacity="0.9" r="10" stroke="#63C3DC" stroke-width="2" /><text fill="black" font-size="10" font-weight="bold" text-anchor="middle" x="334" y="201">15</text><circle cx="10" cy="140" fill="white" opacity="0.9" r="10" stroke="#63C3DC" stroke-width="2" /><text fill="black" font-size="10" font-weight="bold" text-anchor="middle" x="10" y="143">3</text></svg>