<svg baseProfile="full" height="624.0" version="1.1" width="450.0" xmlns="http://www.w3.org/2000/svg" xmlns:ev="http://www.w3.org/2001/xml-events" xmlns:xlink="http://www.w3.org/1999/xlink"><defs /><rect fill="white" height="624.0" width="450.0" x="0" y="0" /><g transform="scale(1.5)"><polyline fill="none" points="28.0,22.0 148.20815280171308,-98.20815280171307 187.80613254815972,-58.6101730552664" stroke="#B596C8" stroke-linecap="square" stroke-linejoin="round" stroke-width="6" /><polyline fill="none" points="32.242640687119284,26.242640687119284 148.20815280171308,-89.7228714274745 183.56349186104046,-54.36753236814712" stroke="#FFFFFF" stroke-linecap="square" stroke-linejoin="round" stroke-width="6" /><polyline fill="none" points="36.48528137423857,30.48528137423857 148.20815280171308,-81.23759005323593 179.32085117392117,-50.12489168102783" stroke="#B596C8" stroke-linecap="square" stroke-linejoin="round" stroke-width="6" /><polyline fill="none" points="40.72792206135786,34.72792206135786 148.20815280171308,-72.75230867899735 175.07821048680188,-45.88225099390854" stroke="#FFFFFF" stroke-linecap="square" stroke-linejoin="round" stroke-width="6" /><polyline fill="none" points="44.970562748477136,38.97056274847714 148.20815280171308,-64.26702730475878 170.8355697996826,-41.63961030678926" stroke="#B596C8" stroke-linecap="square" stroke-linejoin="round" stroke-width="6" /><polyline fill="none" points="49.21320343559643,43.21320343559643 148.20815280171308,-55.781745930520216 166.59292911256333,-37.396969619669974" stroke="#FFFFFF" stroke-linecap="square" stroke-linejoin="round" stroke-width="6" /><polyline fill="none" points="53.45584412271571,47.45584412271572 148.20815280171308,-47.29646455628165 162.35028842544403,-33.1543289325507" stroke="#B596C8" stroke-linecap="square" stroke-linejoin="round" stroke-width="6" /><polyline fill="none" points="116.0,254.0 195.9030662740799,174.09693372592014 316.111219075793,294.30508652763325" stroke="#B596C8" stroke-linecap="square" stroke-linejoin="round" stroke-width="6" /><polyline fill="none" points="120.24264068711929,258.24264068711926 195.9030662740799,182.5822151001587 311.86857838867365,298.5477272147525" stroke="#FFFFFF" stroke-linecap="square" stroke-linejoin="round" stroke-width="6" /><polyline fill="none" points="124.48528137423857,262.4852813742386 195.9030662740799,191.06749647439727 307.6259377015544,302.79036790187183" stroke="#B596C8" stroke-linecap="square" stroke-linejoin="round" stroke-width="6" /><polyline fill="none" points="128.72792206135784,266.72792206135784 195.90306627407986,199.55277784863586 303.3832970144351,307.0330085889911" stroke="#FFFFFF" stroke-linecap="square" stroke-linejoin="round" stroke-width="6" /><polyline fill="none" points="132.97056274847714,270.97056274847716 195.90306627407986,208.03805922287444 299.1406563273158,311.2756492761104" stroke="#B596C8" stroke-linecap="square" stroke-linejoin="round" stroke-width="6" /><polyline fill="none" points="137.21320343559643,275.2132034355964 195.9030662740799,216.523340597113 294.8980156401965,315.5182899632297" stroke="#FFFFFF" stroke-linecap="square" stroke-linejoin="round" stroke-width="6" /><polyline fill="none" points="141.45584412271572,279.4558441227157 195.9030662740799,225.00862197135154 290.6553749530772,319.76093065034894" stroke="#B596C8" stroke-linecap="square" stroke-linejoin="round" stroke-width="6" /><polyline fill="none" points="52.0,400.0 172.20815280171308,279.7918471982869 211.80613254815972,319.3898269447336" stroke="#B596C8" stroke-linecap="square" stroke-linejoin="round" stroke-width="6" /><polyline fill="none" points="56.242640687119284,404.24264068711926 172.20815280171308,288.2771285725255 207.56349186104046,323.6324676318529" stroke="#FFFFFF" stroke-linecap="square" stroke-linejoin="round" stroke-width="6" /><polyline fill="none" points="60.48528137423857,408.4852813742386 172.20815280171308,296.7624099467641 203.32085117392117,327.8751083189722" stroke="#B596C8" stroke-linecap="square" stroke-linejoin="round" stroke-width="6" /><polyline fill="none" points="64.72792206135786,412.72792206135784 172.20815280171308,305.24769132100266 199.07821048680188,332.11774900609146" stroke="#FFFFFF" stroke-linecap="square" stroke-linejoin="round" stroke-width="6" /><polyline fill="none" points="68.97056274847714,416.97056274847716 172.20815280171308,313.73297269524124 194.8355697996826,336.3603896932108" stroke="#B596C8" stroke-linecap="square" stroke-linejoin="round" stroke-width="6" /><polyline fill="none" points="73.21320343559643,421.2132034355964 172.20815280171308,322.21825406947977 190.59292911256333,340.60303038033" stroke="#FFFFFF" stroke-linecap="square" stroke-linejoin="round" stroke-width="6" /><polyline fill="none" points="77.45584412271572,425.4558441227157 172.20815280171308,330.70353544371835 186.35028842544403,344.8456710674493" stroke="#B596C8" stroke-linecap="square" stroke-linejoin="round" stroke-width="6" /><polyline fill="none" points="174.0,278.0 253.9030662740799,198.09693372592014 293.50104602052653,237.6949134723668" stroke="#B596C8" stroke-linecap="square" stroke-linejoin="round" stroke-width="6" /><polyline fill="none" points="178.2426406871193,282.24264068711926 253.9030662740799,206.5822151001587 289.25840533340727,241.93755415948607" stroke="#FFFFFF" stroke-linecap="square" stroke-linejoin="round" stroke-width="6" /><polyline fill="none" points="182.48528137423858,286.4852813742386 253.9030662740799,215.06749647439727 285.01576464628795,246.18019484660536" stroke="#B596C8" stroke-linecap="square" stroke-linejoin="round" stroke-width="6" /><polyline fill="none" points="186.72792206135784,290.72792206135784 253.90306627407986,223.55277784863586 280.7731239591687,250.42283553372468" stroke="#FFFFFF" stroke-linecap="square" stroke-linejoin="round" stroke-width="6" /><polyline fill="none" points="190.97056274847714,294.97056274847716 253.90306627407986,232.03805922287444 276.53048327204937,254.66547622084397" stroke="#B596C8" stroke-linecap="square" stroke-linejoin="round" stroke-width="6" /><polyline fill="none" points="195.21320343559643,299.2132034355964 253.9030662740799,240.523340597113 272.2878425849301,258.90811690796323" stroke="#FFFFFF" stroke-linecap="square" stroke-linejoin="round" stroke-width="6" /><polyline fill="none" points="199.45584412271572,303.4558441227157 253.9030662740799,249.00862197135154 268.04520189781084,263.1507575950825" stroke="#B596C8" stroke-linecap="square" stroke-linejoin="round" stroke-width="6" /><polyline fill="none" points="296.0,316.0 375.9030662740799,236.09693372592014 455.8061325481597,316.0 535.7091988222396,236.09693372592014" stroke="#B596C8" stroke-linecap="square" stroke-linejoin="round" stroke-width="6" /><polyline fill="none" points="300.24264068711926,320.24264068711926 375.90306627407983,244.5822151001587 455.80613254815967,324.4852813742386 539.9518395093588,240.33957441303943" stroke="#FFFFFF" stroke-linecap="square" stroke-linejoin="round" stroke-width="6" /><polyline fill="none" points="304.4852813742386,324.4852813742386 375.9030662740799,253.06749647439727 455.8061325481597,332.97056274847716 544.1944801964781,244.58221510015875" stroke="#B596C8" stroke-linecap="square" stroke-linejoin="round" stroke-width="6" /><polyline fill="none" points="308.72792206135784,328.72792206135784 375.90306627407983,261.55277784863586 455.80613254815967,341.45584412271575 548.4371208835973,248.824855787278" stroke="#FFFFFF" stroke-linecap="square" stroke-linejoin="round" stroke-width="6" /><polyline fill="none" points="312.97056274847716,332.97056274847716 375.9030662740799,270.03805922287444 455.8061325481597,349.9411254969543 552.6797615707168,253.06749647439733" stroke="#B596C8" stroke-linecap="square" stroke-linejoin="round" stroke-width="6" /><polyline fill="none" points="317.2132034355964,337.2132034355964 375.9030662740799,278.52334059711296 455.8061325481597,358.42640687119285 556.922402257836,257.31013716151654" stroke="#FFFFFF" stroke-linecap="square" stroke-linejoin="round" stroke-width="6" /><polyline fill="none" points="321.4558441227157,341.4558441227157 375.90306627407983,287.00862197135154 455.80613254815967,366.91168824543144 561.1650429449553,261.55277784863586" stroke="#B596C8" stroke-linecap="square" stroke-linejoin="round" stroke-width="6" /><polyline fill="none" points="380.0,232.0 419.59797974644664,192.40202025355336 459.1959594928933,232.00000000000003" stroke="#B596C8" stroke-linecap="square" stroke-linejoin="round" stroke-width="6" /><polyline fill="none" points="384.24264068711926,236.2426406871193 419.59797974644664,200.8873016277919 454.953318805774,236.2426406871193" stroke="#FFFFFF" stroke-linecap="square" stroke-linejoin="round" stroke-width="6" /><polyline fill="none" points="388.4852813742386,240.48528137423858 419.5979797464467,209.3725830020305 450.71067811865476,240.48528137423858" stroke="#B596C8" stroke-linecap="square" stroke-linejoin="round" stroke-width="6" /><polyline fill="none" points="392.72792206135784,244.72792206135784 419.59797974644664,217.85786437626905 446.46803743153544,244.72792206135787" stroke="#FFFFFF" stroke-linecap="square" stroke-linejoin="round" stroke-width="6" /><polyline fill="none" points="396.97056274847716,248.97056274847714 419.5979797464467,226.34314575050763 442.22539674441623,248.97056274847716" stroke="#B596C8" stroke-linecap="square" stroke-linejoin="round" stroke-width="6" /><polyline fill="none" points="401.2132034355964,253.21320343559643 419.59797974644664,234.82842712474618 437.98275605729685,253.21320343559643" stroke="#FFFFFF" stroke-linecap="square" stroke-linejoin="round" stroke-width="6" /><polyline fill="none" points="405.4558441227157,257.4558441227157 419.59797974644664,243.31370849898474 433.7401153701776,257.4558441227157" stroke="#B596C8" stroke-linecap="square" stroke-linejoin="round" stroke-width="6" /></g><rect fill="none" height="624.0" stroke="white" stroke-width="20" width="450.0" x="0" y="0" /></svg>