<svg baseProfile="full" height="416" version="1.1" width="300" xmlns="http://www.w3.org/2000/svg" xmlns:ev="http://www.w3.org/2001/xml-events" xmlns:xlink="http://www.w3.org/1999/xlink"><defs /><rect fill="white" height="416" width="300" x="0" y="0" /><polyline fill="none" points="-10.0,60.0 69.90306627407988,-19.903066274079862 149.80613254815972,60.00000000000003 229.7091988222396,-19.903066274079833" stroke="#B596C8" stroke-linecap="square" stroke-linejoin="round" stroke-width="6" /><polyline fill="none" points="-5.757359312880715,64.24264068711929 69.90306627407988,-11.417784899841294 149.80613254815972,68.4852813742386 233.95183950935888,-15.660425586960557" stroke="#FFFFFF" stroke-linecap="square" stroke-linejoin="round" stroke-width="6" /><polyline fill="none" points="-1.5147186257614305,68.48528137423857 69.90306627407988,-2.9325035256027263 149.80613254815972,76.97056274847716 238.19448019647817,-11.417784899841266" stroke="#B596C8" stroke-linecap="square" stroke-linejoin="round" stroke-width="6" /><polyline fill="none" points="2.727922061357855,72.72792206135786 69.90306627407988,5.552777848635856 149.80613254815972,85.45584412271575 242.43712088359746,-7.175144212721975" stroke="#FFFFFF" stroke-linecap="square" stroke-linejoin="round" stroke-width="6" /><polyline fill="none" points="6.970562748477139,76.97056274847714 69.90306627407988,14.03805922287441 149.80613254815972,93.9411254969543 246.67976157071672,-2.932503525602698" stroke="#B596C8" stroke-linecap="square" stroke-linejoin="round" stroke-width="6" /><polyline fill="none" points="11.213203435596423,81.21320343559643 69.90306627407988,22.523340597112984 149.80613254815972,102.42640687119288 250.92240225783604,1.310137161516593" stroke="#FFFFFF" stroke-linecap="square" stroke-linejoin="round" stroke-width="6" /><polyline fill="none" points="15.45584412271571,85.45584412271572 69.90306627407988,31.008621971351566 149.80613254815972,110.91168824543146 255.1650429449553,5.552777848635898" stroke="#B596C8" stroke-linecap="square" stroke-linejoin="round" stroke-width="6" /><polyline fill="none" points="74.0,-24.0 469.9797974644666,-419.97979746446657" stroke="#B596C8" stroke-width="6" /><polyline fill="none" points="78.24264068711929,-19.757359312880716 474.22243815158595,-415.7371567773473" stroke="#FFFFFF" stroke-width="6" /><polyline fill="none" points="82.48528137423857,-15.514718625761429 478.4650788387052,-411.494516090228" stroke="#B596C8" stroke-width="6" /><polyline fill="none" points="86.72792206135786,-11.272077938642143 482.7077195258245,-407.2518754031087" stroke="#FFFFFF" stroke-width="6" /><polyline fill="none" points="90.97056274847714,-7.029437251522857 486.9503602129438,-403.0092347159894" stroke="#B596C8" stroke-width="6" /><polyline fill="none" points="95.21320343559643,-2.7867965644035735 491.19300090006305,-398.76659402887014" stroke="#FFFFFF" stroke-width="6" /><polyline fill="none" points="99.45584412271572,1.455844122715714 495.4356415871823,-394.5239533417509" stroke="#B596C8" stroke-width="6" /><polyline fill="none" points="-10.0,220.0 69.90306627407988,140.09693372592014" stroke="#B596C8" stroke-width="6" /><polyline fill="none" points="-5.757359312880715,224.2426406871193 74.14570696119917,144.33957441303943" stroke="#FFFFFF" stroke-width="6" /><polyline fill="none" points="-1.5147186257614305,228.48528137423858 78.38834764831844,148.58221510015872" stroke="#B596C8" stroke-width="6" /><polyline fill="none" points="2.727922061357855,232.72792206135784 82.63098833543773,152.82485578727798" stroke="#FFFFFF" stroke-width="6" /><polyline fill="none" points="6.970562748477139,236.97056274847714 86.87362902255701,157.06749647439727" stroke="#B596C8" stroke-width="6" /><polyline fill="none" points="11.213203435596423,241.21320343559643 91.1162697096763,161.31013716151656" stroke="#FFFFFF" stroke-width="6" /><polyline fill="none" points="15.45584412271571,245.45584412271572 95.35891039679558,165.55277784863586" stroke="#B596C8" stroke-width="6" /><polyline fill="none" points="70.0,140.0 149.9030662740799,60.09693372592014 189.50104602052653,99.6949134723668" stroke="#B596C8" stroke-linecap="square" stroke-linejoin="round" stroke-width="6" /><polyline fill="none" points="74.24264068711929,144.2426406871193 149.9030662740799,68.5822151001587 185.25840533340727,103.9375541594861" stroke="#FFFFFF" stroke-linecap="square" stroke-linejoin="round" stroke-width="6" /><polyline fill="none" points="78.48528137423857,148.48528137423858 149.9030662740799,77.06749647439729 181.01576464628798,108.18019484660539" stroke="#B596C8" stroke-linecap="square" stroke-linejoin="round" stroke-width="6" /><polyline fill="none" points="82.72792206135786,152.72792206135784 149.9030662740799,85.55277784863584 176.7731239591687,112.42283553372465" stroke="#FFFFFF" stroke-linecap="square" stroke-linejoin="round" stroke-width="6" /><polyline fill="none" points="86.97056274847714,156.97056274847714 149.90306627407986,94.03805922287441 172.53048327204937,116.66547622084394" stroke="#B596C8" stroke-linecap="square" stroke-linejoin="round" stroke-width="6" /><polyline fill="none" points="91.21320343559643,161.21320343559643 149.9030662740799,102.52334059711299 168.28784258493013,120.90811690796323" stroke="#FFFFFF" stroke-linecap="square" stroke-linejoin="round" stroke-width="6" /><polyline fill="none" points="95.45584412271572,165.45584412271572 149.9030662740799,111.00862197135157 164.04520189781084,125.15075759508252" stroke="#B596C8" stroke-linecap="square" stroke-linejoin="round" stroke-width="6" /><polyline fill="none" points="154.0,56.0 274.2081528017131,-64.20815280171307 354.1112190757929,15.69491347236682" stroke="#B596C8" stroke-linecap="square" stroke-linejoin="round" stroke-width="6" /><polyline fill="none" points="158.2426406871193,60.242640687119284 274.2081528017131,-55.722871427474495 349.86857838867365,19.937554159486105" stroke="#FFFFFF" stroke-linecap="square" stroke-linejoin="round" stroke-width="6" /><polyline fill="none" points="162.48528137423858,64.48528137423857 274.2081528017131,-47.237590053235934 345.62593770155434,24.18019484660539" stroke="#B596C8" stroke-linecap="square" stroke-linejoin="round" stroke-width="6" /><polyline fill="none" points="166.72792206135784,68.72792206135786 274.2081528017131,-38.75230867899735 341.3832970144351,28.42283553372468" stroke="#FFFFFF" stroke-linecap="square" stroke-linejoin="round" stroke-width="6" /><polyline fill="none" points="170.97056274847714,72.97056274847714 274.2081528017131,-30.2670273047588 337.1406563273158,32.66547622084394" stroke="#B596C8" stroke-linecap="square" stroke-linejoin="round" stroke-width="6" /><polyline fill="none" points="175.21320343559643,77.21320343559643 274.2081528017131,-21.781745930520216 332.8980156401965,36.90811690796324" stroke="#FFFFFF" stroke-linecap="square" stroke-linejoin="round" stroke-width="6" /><polyline fill="none" points="179.45584412271572,81.45584412271572 274.2081528017131,-13.296464556281649 328.6553749530772,41.150757595082524" stroke="#B596C8" stroke-linecap="square" stroke-linejoin="round" stroke-width="6" /><polyline fill="none" points="34.0,256.0 429.9797974644666,-139.97979746446657" stroke="#B596C8" stroke-width="6" /><polyline fill="none" points="38.242640687119284,260.24264068711926 434.2224381515859,-135.7371567773473" stroke="#FFFFFF" stroke-width="6" /><polyline fill="none" points="42.48528137423857,264.4852813742386 438.4650788387052,-131.494516090228" stroke="#B596C8" stroke-width="6" /><polyline fill="none" points="46.72792206135786,268.72792206135784 442.7077195258245,-127.25187540310873" stroke="#FFFFFF" stroke-width="6" /><polyline fill="none" points="50.970562748477136,272.97056274847716 446.9503602129438,-123.00923471598941" stroke="#B596C8" stroke-width="6" /><polyline fill="none" points="55.21320343559643,277.2132034355964 451.19300090006305,-118.76659402887014" stroke="#FFFFFF" stroke-width="6" /><polyline fill="none" points="59.45584412271571,281.4558441227157 455.4356415871823,-114.52395334175088" stroke="#B596C8" stroke-width="6" /><polyline fill="none" points="-10.0,380.0 385.9797974644666,-15.979797464466571" stroke="#B596C8" stroke-width="6" /><polyline fill="none" points="-5.757359312880715,384.24264068711926 390.2224381515859,-11.737156777347309" stroke="#FFFFFF" stroke-width="6" /><polyline fill="none" points="-1.5147186257614305,388.4852813742386 394.4650788387052,-7.4945160902279895" stroke="#B596C8" stroke-width="6" /><polyline fill="none" points="2.727922061357855,392.72792206135784 398.7077195258245,-3.251875403108727" stroke="#FFFFFF" stroke-width="6" /><polyline fill="none" points="6.970562748477139,396.97056274847716 402.9503602129438,0.9907652840105925" stroke="#B596C8" stroke-width="6" /><polyline fill="none" points="11.213203435596423,401.2132034355964 407.19300090006305,5.233405971129855" stroke="#FFFFFF" stroke-width="6" /><polyline fill="none" points="15.45584412271571,405.4558441227157 411.4356415871823,9.476046658249118" stroke="#B596C8" stroke-width="6" /><polyline fill="none" points="212.0,400.0 607.9797974644666,4.0202025355334285" stroke="#B596C8" stroke-width="6" /><polyline fill="none" points="216.2426406871193,404.24264068711926 612.222438151586,8.262843222652691" stroke="#FFFFFF" stroke-width="6" /><polyline fill="none" points="220.48528137423858,408.4852813742386 616.4650788387053,12.50548390977201" stroke="#B596C8" stroke-width="6" /><polyline fill="none" points="224.72792206135784,412.72792206135784 620.7077195258245,16.748124596891273" stroke="#FFFFFF" stroke-width="6" /><polyline fill="none" points="228.97056274847714,416.97056274847716 624.9503602129438,20.990765284010592" stroke="#B596C8" stroke-width="6" /><polyline fill="none" points="233.21320343559643,421.2132034355964 629.193000900063,25.233405971129855" stroke="#FFFFFF" stroke-width="6" /><polyline fill="none" points="237.45584412271572,425.4558441227157 633.4356415871823,29.476046658249118" stroke="#B596C8" stroke-width="6" /><rect fill="none" height="416" stroke="white" stroke-width="20" width="300" x="0" y="0" /><line opacity="0.3" stroke="red" stroke-width="0.5" x1="0" x2="0" y1="0" y2="416" /><text fill="red" font-size="8" x="0" y="15">0</text><line opacity="0.3" stroke="red" stroke-width="0.5" x1="20" x2="20" y1="0" y2="416" /><text fill="red" font-size="8" x="20" y="15">20</text><line opacity="0.3" stroke="red" stroke-width="0.5" x1="40" x2="40" y1="0" y2="416" /><text fill="red" font-size="8" x="40" y="15">40</text><line opacity="0.3" stroke="red" stroke-width="0.5" x1="60" x2="60" y1="0" y2="416" /><text fill="red" font-size="8" x="60" y="15">60</text><line opacity="0.3" stroke="red" stroke-width="0.5" x1="80" x2="80" y1="0" y2="416" /><text fill="red" font-size="8" x="80" y="15">80</text><line opacity="0.3" stroke="red" stroke-width="0.5" x1="100" x2="100" y1="0" y2="416" /><text fill="red" font-size="8" x="100" y="15">100</text><line opacity="0.3" stroke="red" stroke-width="0.5" x1="120" x2="120" y1="0" y2="416" /><text fill="red" font-size="8" x="120" y="15">120</text><line opacity="0.3" stroke="red" stroke-width="0.5" x1="140" x2="140" y1="0" y2="416" /><text fill="red" font-size="8" x="140" y="15">140</text><line opacity="0.3" stroke="red" stroke-width="0.5" x1="160" x2="160" y1="0" y2="416" /><text fill="red" font-size="8" x="160" y="15">160</text><line opacity="0.3" stroke="red" stroke-width="0.5" x1="180" x2="180" y1="0" y2="416" /><text fill="red" font-size="8" x="180" y="15">180</text><line opacity="0.3" stroke="red" stroke-width="0.5" x1="200" x2="200" y1="0" y2="416" /><text fill="red" font-size="8" x="200" y="15">200</text><line opacity="0.3" stroke="red" stroke-width="0.5" x1="220" x2="220" y1="0" y2="416" /><text fill="red" font-size="8" x="220" y="15">220</text><line opacity="0.3" stroke="red" stroke-width="0.5" x1="240" x2="240" y1="0" y2="416" /><text fill="red" font-size="8" x="240" y="15">240</text><line opacity="0.3" stroke="red" stroke-width="0.5" x1="260" x2="260" y1="0" y2="416" /><text fill="red" font-size="8" x="260" y="15">260</text><line opacity="0.3" stroke="red" stroke-width="0.5" x1="280" x2="280" y1="0" y2="416" /><text fill="red" font-size="8" x="280" y="15">280</text><line opacity="0.3" stroke="red" stroke-width="0.5" x1="300" x2="300" y1="0" y2="416" /><text fill="red" font-size="8" x="300" y="15">300</text><line opacity="0.3" stroke="red" stroke-width="0.5" x1="0" x2="300" y1="0" y2="0" /><text fill="red" font-size="8" x="5" y="0">0</text><line opacity="0.3" stroke="red" stroke-width="0.5" x1="0" x2="300" y1="20" y2="20" /><text fill="red" font-size="8" x="5" y="20">20</text><line opacity="0.3" stroke="red" stroke-width="0.5" x1="0" x2="300" y1="40" y2="40" /><text fill="red" font-size="8" x="5" y="40">40</text><line opacity="0.3" stroke="red" stroke-width="0.5" x1="0" x2="300" y1="60" y2="60" /><text fill="red" font-size="8" x="5" y="60">60</text><line opacity="0.3" stroke="red" stroke-width="0.5" x1="0" x2="300" y1="80" y2="80" /><text fill="red" font-size="8" x="5" y="80">80</text><line opacity="0.3" stroke="red" stroke-width="0.5" x1="0" x2="300" y1="100" y2="100" /><text fill="red" font-size="8" x="5" y="100">100</text><line opacity="0.3" stroke="red" stroke-width="0.5" x1="0" x2="300" y1="120" y2="120" /><text fill="red" font-size="8" x="5" y="120">120</text><line opacity="0.3" stroke="red" stroke-width="0.5" x1="0" x2="300" y1="140" y2="140" /><text fill="red" font-size="8" x="5" y="140">140</text><line opacity="0.3" stroke="red" stroke-width="0.5" x1="0" x2="300" y1="160" y2="160" /><text fill="red" font-size="8" x="5" y="160">160</text><line opacity="0.3" stroke="red" stroke-width="0.5" x1="0" x2="300" y1="180" y2="180" /><text fill="red" font-size="8" x="5" y="180">180</text><line opacity="0.3" stroke="red" stroke-width="0.5" x1="0" x2="300" y1="200" y2="200" /><text fill="red" font-size="8" x="5" y="200">200</text><line opacity="0.3" stroke="red" stroke-width="0.5" x1="0" x2="300" y1="220" y2="220" /><text fill="red" font-size="8" x="5" y="220">220</text><line opacity="0.3" stroke="red" stroke-width="0.5" x1="0" x2="300" y1="240" y2="240" /><text fill="red" font-size="8" x="5" y="240">240</text><line opacity="0.3" stroke="red" stroke-width="0.5" x1="0" x2="300" y1="260" y2="260" /><text fill="red" font-size="8" x="5" y="260">260</text><line opacity="0.3" stroke="red" stroke-width="0.5" x1="0" x2="300" y1="280" y2="280" /><text fill="red" font-size="8" x="5" y="280">280</text><line opacity="0.3" stroke="red" stroke-width="0.5" x1="0" x2="300" y1="300" y2="300" /><text fill="red" font-size="8" x="5" y="300">300</text><line opacity="0.3" stroke="red" stroke-width="0.5" x1="0" x2="300" y1="320" y2="320" /><text fill="red" font-size="8" x="5" y="320">320</text><line opacity="0.3" stroke="red" stroke-width="0.5" x1="0" x2="300" y1="340" y2="340" /><text fill="red" font-size="8" x="5" y="340">340</text><line opacity="0.3" stroke="red" stroke-width="0.5" x1="0" x2="300" y1="360" y2="360" /><text fill="red" font-size="8" x="5" y="360">360</text><line opacity="0.3" stroke="red" stroke-width="0.5" x1="0" x2="300" y1="380" y2="380" /><text fill="red" font-size="8" x="5" y="380">380</text><line opacity="0.3" stroke="red" stroke-width="0.5" x1="0" x2="300" y1="400" y2="400" /><text fill="red" font-size="8" x="5" y="400">400</text><circle cx="10" cy="60" fill="white" opacity="0.9" r="10" stroke="#B596C8" stroke-width="2" /><text fill="black" font-size="10" font-weight="bold" text-anchor="middle" x="10" y="63">1</text><circle cx="74" cy="-24" fill="white" opacity="0.9" r="10" stroke="#B596C8" stroke-width="2" /><text fill="black" font-size="10" font-weight="bold" text-anchor="middle" x="74" y="-21">2</text><circle cx="10" cy="220" fill="white" opacity="0.9" r="10" stroke="#B596C8" stroke-width="2" /><text fill="black" font-size="10" font-weight="bold" text-anchor="middle" x="10" y="223">4</text><circle cx="70" cy="140" fill="white" opacity="0.9" r="10" stroke="#B596C8" stroke-width="2" /><text fill="black" font-size="10" font-weight="bold" text-anchor="middle" x="70" y="143">5</text><circle cx="154" cy="56" fill="white" opacity="0.9" r="10" stroke="#B596C8" stroke-width="2" /><text fill="black" font-size="10" font-weight="bold" text-anchor="middle" x="154" y="59">6</text><circle cx="34" cy="256" fill="white" opacity="0.9" r="10" stroke="#B596C8" stroke-width="2" /><text fill="black" font-size="10" font-weight="bold" text-anchor="middle" x="34" y="259">9</text><circle cx="10" cy="380" fill="white" opacity="0.9" r="10" stroke="#B596C8" stroke-width="2" /><text fill="black" font-size="10" font-weight="bold" text-anchor="middle" x="10" y="383">10</text><circle cx="212" cy="400" fill="white" opacity="0.9" r="10" stroke="#B596C8" stroke-width="2" /><text fill="black" font-size="10" font-weight="bold" text-anchor="middle" x="212" y="403">16</text></svg>