<svg baseProfile="full" height="416" version="1.1" width="300" xmlns="http://www.w3.org/2000/svg" xmlns:ev="http://www.w3.org/2001/xml-events" xmlns:xlink="http://www.w3.org/1999/xlink"><defs /><rect fill="white" height="416" width="300" x="0" y="0" /><g><polyline fill="none" points="220.0,232.0 299.9030662740799,152.09693372592014 379.8061325481597,232.00000000000003" stroke="#B596C8" stroke-linecap="square" stroke-linejoin="round" stroke-width="6" /><polyline fill="none" points="224.2426406871193,236.2426406871193 299.9030662740799,160.5822151001587 375.56349186104046,236.2426406871193" stroke="#FFFFFF" stroke-linecap="square" stroke-linejoin="round" stroke-width="6" /><polyline fill="none" points="228.48528137423858,240.48528137423858 299.9030662740799,169.06749647439727 371.32085117392114,240.48528137423858" stroke="#B596C8" stroke-linecap="square" stroke-linejoin="round" stroke-width="6" /><polyline fill="none" points="232.72792206135784,244.72792206135784 299.90306627407983,177.55277784863586 367.0782104868018,244.7279220613579" stroke="#FFFFFF" stroke-linecap="square" stroke-linejoin="round" stroke-width="6" /><polyline fill="none" points="236.97056274847714,248.97056274847714 299.9030662740799,186.0380592228744 362.8355697996826,248.97056274847716" stroke="#B596C8" stroke-linecap="square" stroke-linejoin="round" stroke-width="6" /><polyline fill="none" points="241.21320343559643,253.21320343559643 299.9030662740799,194.523340597113 358.5929291125633,253.21320343559645" stroke="#FFFFFF" stroke-linecap="square" stroke-linejoin="round" stroke-width="6" /><polyline fill="none" points="245.45584412271572,257.4558441227157 299.9030662740799,203.00862197135154 354.35028842544403,257.4558441227157" stroke="#B596C8" stroke-linecap="square" stroke-linejoin="round" stroke-width="6" /><polyline fill="none" points="132.0,400.0 171.59797974644667,360.40202025355336 211.19595949289334,400.0 291.0990257669732,320.09693372592017" stroke="#B596C8" stroke-linecap="square" stroke-linejoin="round" stroke-width="6" /><polyline fill="none" points="136.2426406871193,404.24264068711926 171.59797974644667,368.8873016277919 211.19595949289334,408.4852813742385 295.3416664540925,324.3395744130394" stroke="#FFFFFF" stroke-linecap="square" stroke-linejoin="round" stroke-width="6" /><polyline fill="none" points="140.48528137423858,408.4852813742386 171.59797974644667,377.3725830020305 211.19595949289334,416.97056274847716 299.58430714121175,328.58221510015875" stroke="#B596C8" stroke-linecap="square" stroke-linejoin="round" stroke-width="6" /><polyline fill="none" points="144.72792206135784,412.72792206135784 171.59797974644664,385.85786437626905 211.19595949289328,425.4558441227157 303.826947828331,332.82485578727795" stroke="#FFFFFF" stroke-linecap="square" stroke-linejoin="round" stroke-width="6" /><polyline fill="none" points="148.97056274847714,416.97056274847716 171.59797974644667,394.34314575050763 211.19595949289334,433.9411254969543 308.06958851545033,337.06749647439733" stroke="#B596C8" stroke-linecap="square" stroke-linejoin="round" stroke-width="6" /><polyline fill="none" points="153.21320343559643,421.2132034355964 171.59797974644667,402.8284271247462 211.19595949289334,442.42640687119285 312.31222920256965,341.31013716151654" stroke="#FFFFFF" stroke-linecap="square" stroke-linejoin="round" stroke-width="6" /><polyline fill="none" points="157.45584412271572,425.4558441227157 171.59797974644667,411.31370849898474 211.19595949289334,450.9116882454314 316.5548698896889,345.5527778486358" stroke="#B596C8" stroke-linecap="square" stroke-linejoin="round" stroke-width="6" /><polyline fill="none" points="174.0,358.0 253.9030662740799,278.09693372592017 333.8061325481597,358.00000000000006 413.7091988222396,278.09693372592017" stroke="#B596C8" stroke-linecap="square" stroke-linejoin="round" stroke-width="6" /><polyline fill="none" points="178.2426406871193,362.24264068711926 253.9030662740799,286.5822151001587 333.8061325481597,366.4852813742386 417.9518395093589,282.33957441303943" stroke="#FFFFFF" stroke-linecap="square" stroke-linejoin="round" stroke-width="6" /><polyline fill="none" points="182.48528137423858,366.4852813742386 253.9030662740799,295.0674964743973 333.8061325481597,374.97056274847716 422.19448019647814,286.58221510015875" stroke="#B596C8" stroke-linecap="square" stroke-linejoin="round" stroke-width="6" /><polyline fill="none" points="186.72792206135784,370.72792206135784 253.90306627407986,303.55277784863586 333.8061325481597,383.45584412271575 426.43712088359746,290.824855787278" stroke="#FFFFFF" stroke-linecap="square" stroke-linejoin="round" stroke-width="6" /><polyline fill="none" points="190.97056274847714,374.97056274847716 253.90306627407986,312.03805922287444 333.8061325481597,391.9411254969543 430.6797615707167,295.06749647439733" stroke="#B596C8" stroke-linecap="square" stroke-linejoin="round" stroke-width="6" /><polyline fill="none" points="195.21320343559643,379.2132034355964 253.9030662740799,320.52334059711296 333.8061325481597,400.42640687119285 434.92240225783604,299.31013716151654" stroke="#FFFFFF" stroke-linecap="square" stroke-linejoin="round" stroke-width="6" /><polyline fill="none" points="199.45584412271572,383.4558441227157 253.9030662740799,329.00862197135154 333.8061325481597,408.91168824543144 439.1650429449553,303.55277784863586" stroke="#B596C8" stroke-linecap="square" stroke-linejoin="round" stroke-width="6" /><polyline fill="none" points="212.0,400.0 251.59797974644667,360.40202025355336 331.50104602052653,440.30508652763325" stroke="#B596C8" stroke-linecap="square" stroke-linejoin="round" stroke-width="6" /><polyline fill="none" points="216.2426406871193,404.24264068711926 251.59797974644667,368.8873016277919 327.25840533340727,444.5477272147525" stroke="#FFFFFF" stroke-linecap="square" stroke-linejoin="round" stroke-width="6" /><polyline fill="none" points="220.48528137423858,408.4852813742386 251.59797974644667,377.3725830020305 323.01576464628795,448.79036790187183" stroke="#B596C8" stroke-linecap="square" stroke-linejoin="round" stroke-width="6" /><polyline fill="none" points="224.72792206135784,412.72792206135784 251.59797974644664,385.85786437626905 318.77312395916863,453.0330085889911" stroke="#FFFFFF" stroke-linecap="square" stroke-linejoin="round" stroke-width="6" /><polyline fill="none" points="228.97056274847714,416.97056274847716 251.59797974644667,394.34314575050763 314.53048327204937,457.27564927611036" stroke="#B596C8" stroke-linecap="square" stroke-linejoin="round" stroke-width="6" /><polyline fill="none" points="233.21320343559643,421.2132034355964 251.59797974644667,402.8284271247462 310.2878425849301,461.5182899632297" stroke="#FFFFFF" stroke-linecap="square" stroke-linejoin="round" stroke-width="6" /><polyline fill="none" points="237.45584412271572,425.4558441227157 251.59797974644667,411.31370849898474 306.0452018978108,465.7609306503489" stroke="#B596C8" stroke-linecap="square" stroke-linejoin="round" stroke-width="6" /><polyline fill="none" points="-10.0,300.0 385.9797974644666,-95.97979746446657" stroke="#B596C8" stroke-width="6" /><polyline fill="none" points="-5.757359312880715,304.24264068711926 390.2224381515859,-91.73715677734731" stroke="#FFFFFF" stroke-width="6" /><polyline fill="none" points="-1.5147186257614305,308.4852813742386 394.4650788387052,-87.49451609022799" stroke="#B596C8" stroke-width="6" /><polyline fill="none" points="2.727922061357855,312.72792206135784 398.7077195258245,-83.25187540310873" stroke="#FFFFFF" stroke-width="6" /><polyline fill="none" points="6.970562748477139,316.97056274847716 402.9503602129438,-79.00923471598941" stroke="#B596C8" stroke-width="6" /><polyline fill="none" points="11.213203435596423,321.2132034355964 407.19300090006305,-74.76659402887014" stroke="#FFFFFF" stroke-width="6" /><polyline fill="none" points="15.45584412271571,325.4558441227157 411.4356415871823,-70.52395334175088" stroke="#B596C8" stroke-width="6" /></g><rect fill="none" height="416" stroke="white" stroke-width="20" width="300" x="0" y="0" /></svg>