<svg baseProfile="full" height="416" version="1.1" width="300" xmlns="http://www.w3.org/2000/svg" xmlns:ev="http://www.w3.org/2001/xml-events" xmlns:xlink="http://www.w3.org/1999/xlink"><defs /><rect fill="white" height="416" width="300" x="0" y="0" /><polyline fill="none" points="-10.0,380.0 69.90306627407985,459.9030662740799 149.80613254815972,380.0 270.0142853498728,500.20815280171314" stroke="#63C3DC" stroke-linecap="square" stroke-linejoin="round" stroke-width="6" /><polyline fill="none" points="-14.242640687119286,384.24264068711926 69.90306627407985,468.3883476483185 149.80613254815972,388.48528137423864 265.7716446627535,504.45079348883246" stroke="#FFFFFF" stroke-linecap="square" stroke-linejoin="round" stroke-width="6" /><polyline fill="none" points="-18.48528137423857,388.4852813742386 69.90306627407985,476.87362902255705 149.80613254815972,396.97056274847716 261.5290039756342,508.69343417595167" stroke="#63C3DC" stroke-linecap="square" stroke-linejoin="round" stroke-width="6" /><polyline fill="none" points="-22.72792206135786,392.72792206135784 69.90306627407985,485.3589103967956 149.80613254815972,405.4558441227157 257.2863632885149,512.936074863071" stroke="#FFFFFF" stroke-linecap="square" stroke-linejoin="round" stroke-width="6" /><polyline fill="none" points="-26.970562748477143,396.97056274847716 69.90306627407983,493.84419177103416 149.80613254815972,413.9411254969543 253.04372260139564,517.1787155501903" stroke="#63C3DC" stroke-linecap="square" stroke-linejoin="round" stroke-width="6" /><polyline fill="none" points="-31.21320343559643,401.2132034355964 69.90306627407985,502.32947314527274 149.80613254815972,422.42640687119285 248.80108191427635,521.4213562373095" stroke="#FFFFFF" stroke-linecap="square" stroke-linejoin="round" stroke-width="6" /><polyline fill="none" points="-35.45584412271572,405.4558441227157 69.90306627407983,510.8147545195113 149.80613254815972,430.9116882454315 244.55844122715706,525.6639969244288" stroke="#63C3DC" stroke-linecap="square" stroke-linejoin="round" stroke-width="6" /><polyline fill="none" points="-6.0,376.0 73.90306627407988,296.09693372592017 194.11121907579292,416.3050865276333 274.0142853498728,336.4020202535535" stroke="#63C3DC" stroke-linecap="square" stroke-linejoin="round" stroke-width="6" /><polyline fill="none" points="-1.7573593128807152,380.24264068711926 73.90306627407988,304.5822151001587 194.11121907579292,424.79036790187183 278.25692603699207,340.6446609406727" stroke="#FFFFFF" stroke-linecap="square" stroke-linejoin="round" stroke-width="6" /><polyline fill="none" points="2.4852813742385695,384.4852813742386 73.90306627407988,313.0674964743973 194.11121907579292,433.27564927611036 282.49956672411133,344.88730162779194" stroke="#63C3DC" stroke-linecap="square" stroke-linejoin="round" stroke-width="6" /><polyline fill="none" points="6.727922061357855,388.72792206135784 73.90306627407988,321.55277784863586 194.11121907579292,441.760930650349 286.74220741123065,349.12994231491126" stroke="#FFFFFF" stroke-linecap="square" stroke-linejoin="round" stroke-width="6" /><polyline fill="none" points="10.970562748477139,392.97056274847716 73.90306627407988,330.03805922287444 194.11121907579292,450.2462120245875 290.9848480983499,353.3725830020305" stroke="#63C3DC" stroke-linecap="square" stroke-linejoin="round" stroke-width="6" /><polyline fill="none" points="15.213203435596423,397.2132034355964 73.90306627407988,338.52334059711296 194.11121907579292,458.73149339882605 295.22748878546923,357.61522368914973" stroke="#FFFFFF" stroke-linecap="square" stroke-linejoin="round" stroke-width="6" /><polyline fill="none" points="19.45584412271571,401.4558441227157 73.90306627407988,347.00862197135154 194.11121907579292,467.2167747730647 299.4701294725885,361.8578643762691" stroke="#63C3DC" stroke-linecap="square" stroke-linejoin="round" stroke-width="6" /><polyline fill="none" points="78.0,292.0 157.9030662740799,212.09693372592014 237.80613254815972,292.0 633.7859300126263,-103.97979746446657" stroke="#63C3DC" stroke-linecap="square" stroke-linejoin="round" stroke-width="6" /><polyline fill="none" points="82.24264068711929,296.24264068711926 157.9030662740799,220.5822151001587 237.80613254815972,300.4852813742386 638.0285706997456,-99.73715677734731" stroke="#FFFFFF" stroke-linecap="square" stroke-linejoin="round" stroke-width="6" /><polyline fill="none" points="86.48528137423857,300.4852813742386 157.9030662740799,229.06749647439727 237.80613254815972,308.97056274847716 642.2712113868649,-95.49451609022799" stroke="#63C3DC" stroke-linecap="square" stroke-linejoin="round" stroke-width="6" /><polyline fill="none" points="90.72792206135786,304.72792206135784 157.9030662740799,237.55277784863586 237.80613254815972,317.45584412271575 646.5138520739843,-91.25187540310867" stroke="#FFFFFF" stroke-linecap="square" stroke-linejoin="round" stroke-width="6" /><polyline fill="none" points="94.97056274847714,308.97056274847716 157.90306627407986,246.03805922287444 237.80613254815972,325.9411254969543 650.7564927611036,-87.00923471598941" stroke="#63C3DC" stroke-linecap="square" stroke-linejoin="round" stroke-width="6" /><polyline fill="none" points="99.21320343559643,313.2132034355964 157.9030662740799,254.523340597113 237.80613254815972,334.42640687119285 654.9991334482228,-82.76659402887014" stroke="#FFFFFF" stroke-linecap="square" stroke-linejoin="round" stroke-width="6" /><polyline fill="none" points="103.45584412271572,317.4558441227157 157.9030662740799,263.00862197135154 237.80613254815972,342.91168824543144 659.2417741353421,-78.52395334175083" stroke="#63C3DC" stroke-linecap="square" stroke-linejoin="round" stroke-width="6" /><polyline fill="none" points="52.0,400.0 131.9030662740799,320.09693372592017 211.80613254815972,400.00000000000006" stroke="#63C3DC" stroke-linecap="square" stroke-linejoin="round" stroke-width="6" /><polyline fill="none" points="56.242640687119284,404.24264068711926 131.90306627407986,328.5822151001587 207.56349186104043,404.2426406871193" stroke="#FFFFFF" stroke-linecap="square" stroke-linejoin="round" stroke-width="6" /><polyline fill="none" points="60.48528137423857,408.4852813742386 131.9030662740799,337.0674964743973 203.32085117392117,408.4852813742386" stroke="#63C3DC" stroke-linecap="square" stroke-linejoin="round" stroke-width="6" /><polyline fill="none" points="64.72792206135786,412.72792206135784 131.9030662740799,345.55277784863586 199.07821048680188,412.7279220613579" stroke="#FFFFFF" stroke-linecap="square" stroke-linejoin="round" stroke-width="6" /><polyline fill="none" points="68.97056274847714,416.97056274847716 131.90306627407986,354.03805922287444 194.83556979968256,416.97056274847716" stroke="#63C3DC" stroke-linecap="square" stroke-linejoin="round" stroke-width="6" /><polyline fill="none" points="73.21320343559643,421.2132034355964 131.9030662740799,362.52334059711296 190.59292911256333,421.2132034355964" stroke="#FFFFFF" stroke-linecap="square" stroke-linejoin="round" stroke-width="6" /><polyline fill="none" points="77.45584412271572,425.4558441227157 131.9030662740799,371.00862197135154 186.35028842544403,425.4558441227157" stroke="#63C3DC" stroke-linecap="square" stroke-linejoin="round" stroke-width="6" /><polyline fill="none" points="136.0,316.0 215.9030662740799,236.09693372592014 336.111219075793,356.30508652763325 375.7091988222396,316.7071067811866" stroke="#63C3DC" stroke-linecap="square" stroke-linejoin="round" stroke-width="6" /><polyline fill="none" points="140.2426406871193,320.24264068711926 215.9030662740799,244.5822151001587 336.111219075793,364.79036790187183 379.95183950935893,320.9497474683059" stroke="#FFFFFF" stroke-linecap="square" stroke-linejoin="round" stroke-width="6" /><polyline fill="none" points="144.48528137423858,324.4852813742386 215.9030662740799,253.06749647439727 336.111219075793,373.27564927611036 384.1944801964782,325.19238815542514" stroke="#63C3DC" stroke-linecap="square" stroke-linejoin="round" stroke-width="6" /><polyline fill="none" points="148.72792206135784,328.72792206135784 215.90306627407986,261.55277784863586 336.1112190757929,381.760930650349 388.43712088359746,329.4350288425445" stroke="#FFFFFF" stroke-linecap="square" stroke-linejoin="round" stroke-width="6" /><polyline fill="none" points="152.97056274847714,332.97056274847716 215.90306627407986,270.03805922287444 336.1112190757929,390.2462120245875 392.6797615707167,333.6776695296637" stroke="#63C3DC" stroke-linecap="square" stroke-linejoin="round" stroke-width="6" /><polyline fill="none" points="157.21320343559643,337.2132034355964 215.9030662740799,278.52334059711296 336.111219075793,398.73149339882605 396.92240225783604,337.920310216783" stroke="#FFFFFF" stroke-linecap="square" stroke-linejoin="round" stroke-width="6" /><polyline fill="none" points="161.45584412271572,341.4558441227157 215.9030662740799,287.00862197135154 336.111219075793,407.2167747730647 401.16504294495536,342.1629509039023" stroke="#63C3DC" stroke-linecap="square" stroke-linejoin="round" stroke-width="6" /><polyline fill="none" points="220.0,232.0 299.9030662740799,152.09693372592014 379.8061325481597,232.00000000000003" stroke="#B596C8" stroke-linecap="square" stroke-linejoin="round" stroke-width="6" /><polyline fill="none" points="224.2426406871193,236.2426406871193 299.9030662740799,160.5822151001587 375.56349186104046,236.2426406871193" stroke="#FFFFFF" stroke-linecap="square" stroke-linejoin="round" stroke-width="6" /><polyline fill="none" points="228.48528137423858,240.48528137423858 299.9030662740799,169.06749647439727 371.32085117392114,240.48528137423858" stroke="#B596C8" stroke-linecap="square" stroke-linejoin="round" stroke-width="6" /><polyline fill="none" points="232.72792206135784,244.72792206135784 299.90306627407983,177.55277784863586 367.0782104868018,244.7279220613579" stroke="#FFFFFF" stroke-linecap="square" stroke-linejoin="round" stroke-width="6" /><polyline fill="none" points="236.97056274847714,248.97056274847714 299.9030662740799,186.0380592228744 362.8355697996826,248.97056274847716" stroke="#B596C8" stroke-linecap="square" stroke-linejoin="round" stroke-width="6" /><polyline fill="none" points="241.21320343559643,253.21320343559643 299.9030662740799,194.523340597113 358.5929291125633,253.21320343559645" stroke="#FFFFFF" stroke-linecap="square" stroke-linejoin="round" stroke-width="6" /><polyline fill="none" points="245.45584412271572,257.4558441227157 299.9030662740799,203.00862197135154 354.35028842544403,257.4558441227157" stroke="#B596C8" stroke-linecap="square" stroke-linejoin="round" stroke-width="6" /><polyline fill="none" points="132.0,400.0 171.59797974644667,360.40202025355336 211.19595949289334,400.0 291.0990257669732,320.09693372592017" stroke="#B596C8" stroke-linecap="square" stroke-linejoin="round" stroke-width="6" /><polyline fill="none" points="136.2426406871193,404.24264068711926 171.59797974644667,368.8873016277919 211.19595949289334,408.4852813742385 295.3416664540925,324.3395744130394" stroke="#FFFFFF" stroke-linecap="square" stroke-linejoin="round" stroke-width="6" /><polyline fill="none" points="140.48528137423858,408.4852813742386 171.59797974644667,377.3725830020305 211.19595949289334,416.97056274847716 299.58430714121175,328.58221510015875" stroke="#B596C8" stroke-linecap="square" stroke-linejoin="round" stroke-width="6" /><polyline fill="none" points="144.72792206135784,412.72792206135784 171.59797974644664,385.85786437626905 211.19595949289328,425.4558441227157 303.826947828331,332.82485578727795" stroke="#FFFFFF" stroke-linecap="square" stroke-linejoin="round" stroke-width="6" /><polyline fill="none" points="148.97056274847714,416.97056274847716 171.59797974644667,394.34314575050763 211.19595949289334,433.9411254969543 308.06958851545033,337.06749647439733" stroke="#B596C8" stroke-linecap="square" stroke-linejoin="round" stroke-width="6" /><polyline fill="none" points="153.21320343559643,421.2132034355964 171.59797974644667,402.8284271247462 211.19595949289334,442.42640687119285 312.31222920256965,341.31013716151654" stroke="#FFFFFF" stroke-linecap="square" stroke-linejoin="round" stroke-width="6" /><polyline fill="none" points="157.45584412271572,425.4558441227157 171.59797974644667,411.31370849898474 211.19595949289334,450.9116882454314 316.5548698896889,345.5527778486358" stroke="#B596C8" stroke-linecap="square" stroke-linejoin="round" stroke-width="6" /><polyline fill="none" points="174.0,358.0 253.9030662740799,278.09693372592017 333.8061325481597,358.00000000000006 413.7091988222396,278.09693372592017" stroke="#B596C8" stroke-linecap="square" stroke-linejoin="round" stroke-width="6" /><polyline fill="none" points="178.2426406871193,362.24264068711926 253.9030662740799,286.5822151001587 333.8061325481597,366.4852813742386 417.9518395093589,282.33957441303943" stroke="#FFFFFF" stroke-linecap="square" stroke-linejoin="round" stroke-width="6" /><polyline fill="none" points="182.48528137423858,366.4852813742386 253.9030662740799,295.0674964743973 333.8061325481597,374.97056274847716 422.19448019647814,286.58221510015875" stroke="#B596C8" stroke-linecap="square" stroke-linejoin="round" stroke-width="6" /><polyline fill="none" points="186.72792206135784,370.72792206135784 253.90306627407986,303.55277784863586 333.8061325481597,383.45584412271575 426.43712088359746,290.824855787278" stroke="#FFFFFF" stroke-linecap="square" stroke-linejoin="round" stroke-width="6" /><polyline fill="none" points="190.97056274847714,374.97056274847716 253.90306627407986,312.03805922287444 333.8061325481597,391.9411254969543 430.6797615707167,295.06749647439733" stroke="#B596C8" stroke-linecap="square" stroke-linejoin="round" stroke-width="6" /><polyline fill="none" points="195.21320343559643,379.2132034355964 253.9030662740799,320.52334059711296 333.8061325481597,400.42640687119285 434.92240225783604,299.31013716151654" stroke="#FFFFFF" stroke-linecap="square" stroke-linejoin="round" stroke-width="6" /><polyline fill="none" points="199.45584412271572,383.4558441227157 253.9030662740799,329.00862197135154 333.8061325481597,408.91168824543144 439.1650429449553,303.55277784863586" stroke="#B596C8" stroke-linecap="square" stroke-linejoin="round" stroke-width="6" /><polyline fill="none" points="258.0,274.0 653.9797974644666,-121.97979746446657" stroke="#63C3DC" stroke-width="6" /><polyline fill="none" points="262.24264068711926,278.24264068711926 658.222438151586,-117.73715677734731" stroke="#FFFFFF" stroke-width="6" /><polyline fill="none" points="266.4852813742386,282.4852813742386 662.4650788387053,-113.49451609022799" stroke="#63C3DC" stroke-width="6" /><polyline fill="none" points="270.72792206135784,286.72792206135784 666.7077195258245,-109.25187540310873" stroke="#FFFFFF" stroke-width="6" /><polyline fill="none" points="274.97056274847716,290.97056274847716 670.9503602129438,-105.00923471598941" stroke="#63C3DC" stroke-width="6" /><polyline fill="none" points="279.2132034355964,295.2132034355964 675.193000900063,-100.76659402887014" stroke="#FFFFFF" stroke-width="6" /><polyline fill="none" points="283.4558441227157,299.4558441227157 679.4356415871823,-96.52395334175088" stroke="#63C3DC" stroke-width="6" /><polyline fill="none" points="212.0,400.0 251.59797974644667,360.40202025355336 331.50104602052653,440.30508652763325" stroke="#B596C8" stroke-linecap="square" stroke-linejoin="round" stroke-width="6" /><polyline fill="none" points="216.2426406871193,404.24264068711926 251.59797974644667,368.8873016277919 327.25840533340727,444.5477272147525" stroke="#FFFFFF" stroke-linecap="square" stroke-linejoin="round" stroke-width="6" /><polyline fill="none" points="220.48528137423858,408.4852813742386 251.59797974644667,377.3725830020305 323.01576464628795,448.79036790187183" stroke="#B596C8" stroke-linecap="square" stroke-linejoin="round" stroke-width="6" /><polyline fill="none" points="224.72792206135784,412.72792206135784 251.59797974644664,385.85786437626905 318.77312395916863,453.0330085889911" stroke="#FFFFFF" stroke-linecap="square" stroke-linejoin="round" stroke-width="6" /><polyline fill="none" points="228.97056274847714,416.97056274847716 251.59797974644667,394.34314575050763 314.53048327204937,457.27564927611036" stroke="#B596C8" stroke-linecap="square" stroke-linejoin="round" stroke-width="6" /><polyline fill="none" points="233.21320343559643,421.2132034355964 251.59797974644667,402.8284271247462 310.2878425849301,461.5182899632297" stroke="#FFFFFF" stroke-linecap="square" stroke-linejoin="round" stroke-width="6" /><polyline fill="none" points="237.45584412271572,425.4558441227157 251.59797974644667,411.31370849898474 306.0452018978108,465.7609306503489" stroke="#B596C8" stroke-linecap="square" stroke-linejoin="round" stroke-width="6" /><polyline fill="none" points="254.0,358.0 333.9030662740799,278.09693372592017 454.111219075793,398.3050865276333" stroke="#63C3DC" stroke-linecap="square" stroke-linejoin="round" stroke-width="6" /><polyline fill="none" points="258.24264068711926,362.24264068711926 333.90306627407983,286.5822151001587 449.8685783886736,402.5477272147525" stroke="#FFFFFF" stroke-linecap="square" stroke-linejoin="round" stroke-width="6" /><polyline fill="none" points="262.4852813742386,366.4852813742386 333.9030662740799,295.0674964743973 445.6259377015544,406.79036790187183" stroke="#63C3DC" stroke-linecap="square" stroke-linejoin="round" stroke-width="6" /><polyline fill="none" points="266.72792206135784,370.72792206135784 333.90306627407983,303.55277784863586 441.383297014435,411.0330085889911" stroke="#FFFFFF" stroke-linecap="square" stroke-linejoin="round" stroke-width="6" /><polyline fill="none" points="270.97056274847716,374.97056274847716 333.9030662740799,312.03805922287444 437.1406563273158,415.2756492761104" stroke="#63C3DC" stroke-linecap="square" stroke-linejoin="round" stroke-width="6" /><polyline fill="none" points="275.2132034355964,379.2132034355964 333.9030662740799,320.52334059711296 432.8980156401965,419.5182899632296" stroke="#FFFFFF" stroke-linecap="square" stroke-linejoin="round" stroke-width="6" /><polyline fill="none" points="279.4558441227157,383.4558441227157 333.90306627407983,329.00862197135154 428.65537495307717,423.76093065034894" stroke="#63C3DC" stroke-linecap="square" stroke-linejoin="round" stroke-width="6" /><polyline fill="none" points="338.0,274.0 377.59797974644664,234.40202025355336 417.1959594928933,274.0" stroke="#63C3DC" stroke-linecap="square" stroke-linejoin="round" stroke-width="6" /><polyline fill="none" points="342.24264068711926,278.24264068711926 377.59797974644664,242.88730162779189 412.953318805774,278.24264068711926" stroke="#FFFFFF" stroke-linecap="square" stroke-linejoin="round" stroke-width="6" /><polyline fill="none" points="346.4852813742386,282.4852813742386 377.5979797464467,251.3725830020305 408.71067811865476,282.4852813742386" stroke="#63C3DC" stroke-linecap="square" stroke-linejoin="round" stroke-width="6" /><polyline fill="none" points="350.72792206135784,286.72792206135784 377.59797974644664,259.85786437626905 404.46803743153544,286.72792206135784" stroke="#FFFFFF" stroke-linecap="square" stroke-linejoin="round" stroke-width="6" /><polyline fill="none" points="354.97056274847716,290.97056274847716 377.5979797464467,268.34314575050763 400.22539674441623,290.97056274847716" stroke="#63C3DC" stroke-linecap="square" stroke-linejoin="round" stroke-width="6" /><polyline fill="none" points="359.2132034355964,295.2132034355964 377.59797974644664,276.8284271247462 395.98275605729685,295.2132034355964" stroke="#FFFFFF" stroke-linecap="square" stroke-linejoin="round" stroke-width="6" /><polyline fill="none" points="363.4558441227157,299.4558441227157 377.59797974644664,285.31370849898474 391.7401153701776,299.4558441227157" stroke="#63C3DC" stroke-linecap="square" stroke-linejoin="round" stroke-width="6" /><polyline fill="none" points="-10.0,60.0 385.9797974644666,-335.97979746446657" stroke="#63C3DC" stroke-width="6" /><polyline fill="none" points="-5.757359312880715,64.24264068711929 390.2224381515859,-331.7371567773473" stroke="#FFFFFF" stroke-width="6" /><polyline fill="none" points="-1.5147186257614305,68.48528137423857 394.4650788387052,-327.494516090228" stroke="#63C3DC" stroke-width="6" /><polyline fill="none" points="2.727922061357855,72.72792206135786 398.7077195258245,-323.2518754031087" stroke="#FFFFFF" stroke-width="6" /><polyline fill="none" points="6.970562748477139,76.97056274847714 402.9503602129438,-319.00923471598946" stroke="#63C3DC" stroke-width="6" /><polyline fill="none" points="11.213203435596423,81.21320343559643 407.19300090006305,-314.76659402887014" stroke="#FFFFFF" stroke-width="6" /><polyline fill="none" points="15.45584412271571,85.45584412271572 411.4356415871823,-310.5239533417508" stroke="#63C3DC" stroke-width="6" /><polyline fill="none" points="-10.0,140.0 385.9797974644666,-255.97979746446657" stroke="#63C3DC" stroke-width="6" /><polyline fill="none" points="-5.757359312880715,144.2426406871193 390.2224381515859,-251.73715677734728" stroke="#FFFFFF" stroke-width="6" /><polyline fill="none" points="-1.5147186257614305,148.48528137423858 394.4650788387052,-247.494516090228" stroke="#63C3DC" stroke-width="6" /><polyline fill="none" points="2.727922061357855,152.72792206135784 398.7077195258245,-243.25187540310873" stroke="#FFFFFF" stroke-width="6" /><polyline fill="none" points="6.970562748477139,156.97056274847714 402.9503602129438,-239.00923471598944" stroke="#63C3DC" stroke-width="6" /><polyline fill="none" points="11.213203435596423,161.21320343559643 407.19300090006305,-234.76659402887014" stroke="#FFFFFF" stroke-width="6" /><polyline fill="none" points="15.45584412271571,165.45584412271572 411.4356415871823,-230.52395334175085" stroke="#63C3DC" stroke-width="6" /><polyline fill="none" points="-10.0,220.0 385.9797974644666,-175.97979746446657" stroke="#63C3DC" stroke-width="6" /><polyline fill="none" points="-5.757359312880715,224.2426406871193 390.2224381515859,-171.73715677734728" stroke="#FFFFFF" stroke-width="6" /><polyline fill="none" points="-1.5147186257614305,228.48528137423858 394.4650788387052,-167.494516090228" stroke="#63C3DC" stroke-width="6" /><polyline fill="none" points="2.727922061357855,232.72792206135784 398.7077195258245,-163.25187540310873" stroke="#FFFFFF" stroke-width="6" /><polyline fill="none" points="6.970562748477139,236.97056274847714 402.9503602129438,-159.00923471598944" stroke="#63C3DC" stroke-width="6" /><polyline fill="none" points="11.213203435596423,241.21320343559643 407.19300090006305,-154.76659402887014" stroke="#FFFFFF" stroke-width="6" /><polyline fill="none" points="15.45584412271571,245.45584412271572 411.4356415871823,-150.52395334175085" stroke="#63C3DC" stroke-width="6" /><polyline fill="none" points="-10.0,300.0 385.9797974644666,-95.97979746446657" stroke="#B596C8" stroke-width="6" /><polyline fill="none" points="-5.757359312880715,304.24264068711926 390.2224381515859,-91.73715677734731" stroke="#FFFFFF" stroke-width="6" /><polyline fill="none" points="-1.5147186257614305,308.4852813742386 394.4650788387052,-87.49451609022799" stroke="#B596C8" stroke-width="6" /><polyline fill="none" points="2.727922061357855,312.72792206135784 398.7077195258245,-83.25187540310873" stroke="#FFFFFF" stroke-width="6" /><polyline fill="none" points="6.970562748477139,316.97056274847716 402.9503602129438,-79.00923471598941" stroke="#B596C8" stroke-width="6" /><polyline fill="none" points="11.213203435596423,321.2132034355964 407.19300090006305,-74.76659402887014" stroke="#FFFFFF" stroke-width="6" /><polyline fill="none" points="15.45584412271571,325.4558441227157 411.4356415871823,-70.52395334175088" stroke="#B596C8" stroke-width="6" /><rect fill="none" height="416" stroke="white" stroke-width="20" width="300" x="0" y="0" /></svg>