<svg baseProfile="full" height="624.0" version="1.1" width="450.0" xmlns="http://www.w3.org/2000/svg" xmlns:ev="http://www.w3.org/2001/xml-events" xmlns:xlink="http://www.w3.org/1999/xlink"><defs><mask id="cyanMask"><rect fill="white" height="624.0" width="450.0" x="0" y="0" /><polyline fill="none" points="-10.0,60.0 69.90306627407985,139.9030662740799 149.80613254815972,60.000000000000014 229.70919882223956,139.9030662740799" stroke="black" stroke-linecap="square" stroke-linejoin="round" stroke-width="6" /><polyline fill="none" points="-14.242640687119286,64.24264068711929 69.90306627407985,148.38834764831847 149.80613254815972,68.4852813742386 225.4665581351203,144.1457069611992" stroke="black" stroke-linecap="square" stroke-linejoin="round" stroke-width="6" /><polyline fill="none" points="-18.48528137423857,68.48528137423857 69.90306627407985,156.87362902255703 149.80613254815972,76.97056274847715 221.223917448001,148.38834764831847" stroke="black" stroke-linecap="square" stroke-linejoin="round" stroke-width="6" /><polyline fill="none" points="-22.72792206135786,72.72792206135784 69.90306627407985,165.35891039679558 149.80613254815972,85.4558441227157 216.9812767608817,152.63098833543773" stroke="black" stroke-linecap="square" stroke-linejoin="round" stroke-width="6" /><polyline fill="none" points="-26.970562748477143,76.97056274847714 69.90306627407983,173.84419177103416 149.80613254815972,93.94112549695429 212.73863607376245,156.87362902255703" stroke="black" stroke-linecap="square" stroke-linejoin="round" stroke-width="6" /><polyline fill="none" points="-31.21320343559643,81.21320343559643 69.90306627407985,182.32947314527274 149.80613254815972,102.42640687119287 208.49599538664316,161.11626970967632" stroke="black" stroke-linecap="square" stroke-linejoin="round" stroke-width="6" /><polyline fill="none" points="-35.45584412271572,85.4558441227157 69.90306627407983,190.81475451951133 149.80613254815972,110.91168824543145 204.25335469952387,165.35891039679564" stroke="black" stroke-linecap="square" stroke-linejoin="round" stroke-width="6" /><polyline fill="none" points="-6.0,56.0 33.59797974644666,16.40202025355334" stroke="black" stroke-linecap="square" stroke-linejoin="round" stroke-width="6" /><polyline fill="none" points="-1.7573593128807152,60.242640687119284 37.840620433565945,20.644660940672622" stroke="black" stroke-linecap="square" stroke-linejoin="round" stroke-width="6" /><polyline fill="none" points="2.4852813742385695,64.48528137423857 42.08326112068523,24.887301627791906" stroke="black" stroke-linecap="square" stroke-linejoin="round" stroke-width="6" /><polyline fill="none" points="6.727922061357855,68.72792206135786 46.32590180780451,29.129942314911197" stroke="black" stroke-linecap="square" stroke-linejoin="round" stroke-width="6" /><polyline fill="none" points="10.970562748477139,72.97056274847714 50.568542494923804,33.372583002030474" stroke="black" stroke-linecap="square" stroke-linejoin="round" stroke-width="6" /><polyline fill="none" points="15.213203435596423,77.21320343559643 54.81118318204308,37.615223689149765" stroke="black" stroke-linecap="square" stroke-linejoin="round" stroke-width="6" /><polyline fill="none" points="19.45584412271571,81.45584412271572 59.05382386916237,41.857864376269056" stroke="black" stroke-linecap="square" stroke-linejoin="round" stroke-width="6" /><polyline fill="none" points="32.0,18.0 427.9797974644666,-377.9797974644666" stroke="black" stroke-linecap="square" stroke-linejoin="round" stroke-width="6" /><polyline fill="none" points="36.242640687119284,22.242640687119284 432.2224381515859,-373.73715677734737" stroke="black" stroke-linecap="square" stroke-linejoin="round" stroke-width="6" /><polyline fill="none" points="40.48528137423857,26.48528137423857 436.4650788387052,-369.49451609022805" stroke="black" stroke-linecap="square" stroke-linejoin="round" stroke-width="6" /><polyline fill="none" points="44.72792206135786,30.72792206135786 440.7077195258245,-365.2518754031088" stroke="black" stroke-linecap="square" stroke-linejoin="round" stroke-width="6" /><polyline fill="none" points="48.970562748477136,34.97056274847714 444.9503602129438,-361.00923471598946" stroke="black" stroke-linecap="square" stroke-linejoin="round" stroke-width="6" /><polyline fill="none" points="53.21320343559643,39.21320343559643 449.19300090006305,-356.7665940288702" stroke="black" stroke-linecap="square" stroke-linejoin="round" stroke-width="6" /><polyline fill="none" points="57.45584412271571,43.45584412271572 453.4356415871823,-352.52395334175094" stroke="black" stroke-linecap="square" stroke-linejoin="round" stroke-width="6" /><polyline fill="none" points="-10.0,140.0 29.59797974644666,100.40202025355333 149.80613254815972,220.61017305526644 229.7091988222396,140.70710678118655" stroke="black" stroke-linecap="square" stroke-linejoin="round" stroke-width="6" /><polyline fill="none" points="-5.757359312880715,144.2426406871193 29.59797974644666,108.88730162779191 149.80613254815972,229.09545442950503 233.95183950935888,144.94974746830587" stroke="black" stroke-linecap="square" stroke-linejoin="round" stroke-width="6" /><polyline fill="none" points="-1.5147186257614305,148.48528137423858 29.59797974644666,117.3725830020305 149.80613254815972,237.5807358037436 238.19448019647817,149.19238815542516" stroke="black" stroke-linecap="square" stroke-linejoin="round" stroke-width="6" /><polyline fill="none" points="2.727922061357855,152.72792206135784 29.59797974644666,125.85786437626903 149.80613254815972,246.06601717798213 242.43712088359746,153.4350288425444" stroke="black" stroke-linecap="square" stroke-linejoin="round" stroke-width="6" /><polyline fill="none" points="6.970562748477139,156.97056274847714 29.59797974644666,134.3431457505076 149.80613254815972,254.55129855222071 246.67976157071672,157.67766952966372" stroke="black" stroke-linecap="square" stroke-linejoin="round" stroke-width="6" /><polyline fill="none" points="11.213203435596423,161.21320343559643 29.59797974644666,142.82842712474618 149.80613254815972,263.0365799264593 250.92240225783604,161.92031021678298" stroke="black" stroke-linecap="square" stroke-linejoin="round" stroke-width="6" /><polyline fill="none" points="15.45584412271571,165.45584412271572 29.59797974644666,151.31370849898477 149.80613254815972,271.5218613006979 255.1650429449553,166.1629509039023" stroke="black" stroke-linecap="square" stroke-linejoin="round" stroke-width="6" /><polyline fill="none" points="-10.0,300.0 69.90306627407985,379.9030662740799 109.5010460205265,340.30508652763325" stroke="black" stroke-linecap="square" stroke-linejoin="round" stroke-width="6" /><polyline fill="none" points="-14.242640687119286,304.24264068711926 69.90306627407985,388.3883476483185 113.7436867076458,344.5477272147525" stroke="black" stroke-linecap="square" stroke-linejoin="round" stroke-width="6" /><polyline fill="none" points="-18.48528137423857,308.4852813742386 69.90306627407985,396.87362902255705 117.98632739476508,348.79036790187183" stroke="black" stroke-linecap="square" stroke-linejoin="round" stroke-width="6" /><polyline fill="none" points="-22.72792206135786,312.72792206135784 69.90306627407985,405.3589103967956 122.22896808188437,353.03300858899104" stroke="black" stroke-linecap="square" stroke-linejoin="round" stroke-width="6" /><polyline fill="none" points="-26.970562748477143,316.97056274847716 69.90306627407983,413.84419177103416 126.47160876900364,357.27564927611036" stroke="black" stroke-linecap="square" stroke-linejoin="round" stroke-width="6" /><polyline fill="none" points="-31.21320343559643,321.2132034355964 69.90306627407985,422.32947314527274 130.71424945612293,361.5182899632297" stroke="black" stroke-linecap="square" stroke-linejoin="round" stroke-width="6" /><polyline fill="none" points="-35.45584412271572,325.4558441227157 69.90306627407983,430.8147545195113 134.95689014324222,365.76093065034894" stroke="black" stroke-linecap="square" stroke-linejoin="round" stroke-width="6" /><polyline fill="none" points="212.0,400.0 291.9030662740799,320.0969337259201 331.50104602052653,359.6949134723668 451.7091988222396,239.48676067065372" stroke="black" stroke-linecap="square" stroke-linejoin="round" stroke-width="6" /><polyline fill="none" points="216.2426406871193,404.24264068711926 291.9030662740799,328.5822151001587 331.50104602052653,368.18019484660533 455.95183950935893,243.72940135777296" stroke="black" stroke-linecap="square" stroke-linejoin="round" stroke-width="6" /><polyline fill="none" points="220.48528137423858,408.4852813742386 291.9030662740799,337.0674964743973 331.50104602052653,376.66547622084397 460.1944801964782,247.9720420448923" stroke="black" stroke-linecap="square" stroke-linejoin="round" stroke-width="6" /><polyline fill="none" points="224.72792206135784,412.72792206135784 291.90306627407983,345.55277784863586 331.5010460205265,385.1507575950825 464.43712088359746,252.21468273201154" stroke="black" stroke-linecap="square" stroke-linejoin="round" stroke-width="6" /><polyline fill="none" points="228.97056274847714,416.97056274847716 291.9030662740799,354.03805922287444 331.50104602052653,393.63603896932113 468.6797615707168,256.45732341913094" stroke="black" stroke-linecap="square" stroke-linejoin="round" stroke-width="6" /><polyline fill="none" points="233.21320343559643,421.2132034355964 291.9030662740799,362.52334059711296 331.50104602052653,402.12132034355966 472.92240225783604,260.69996410625015" stroke="black" stroke-linecap="square" stroke-linejoin="round" stroke-width="6" /><polyline fill="none" points="237.45584412271572,425.4558441227157 291.9030662740799,371.00862197135154 331.50104602052653,410.6066017177982 477.1650429449553,264.94260479336936" stroke="black" stroke-linecap="square" stroke-linejoin="round" stroke-width="6" /><polyline fill="none" points="-10.0,220.0 385.9797974644666,-175.97979746446663" stroke="black" stroke-linecap="square" stroke-linejoin="round" stroke-width="6" /><polyline fill="none" points="-5.757359312880715,224.2426406871193 390.2224381515859,-171.73715677734734" stroke="black" stroke-linecap="square" stroke-linejoin="round" stroke-width="6" /><polyline fill="none" points="-1.5147186257614305,228.48528137423858 394.4650788387052,-167.49451609022805" stroke="black" stroke-linecap="square" stroke-linejoin="round" stroke-width="6" /><polyline fill="none" points="2.727922061357855,232.72792206135784 398.7077195258245,-163.25187540310878" stroke="black" stroke-linecap="square" stroke-linejoin="round" stroke-width="6" /><polyline fill="none" points="6.970562748477139,236.97056274847714 402.9503602129438,-159.0092347159895" stroke="black" stroke-linecap="square" stroke-linejoin="round" stroke-width="6" /><polyline fill="none" points="11.213203435596423,241.21320343559643 407.19300090006305,-154.7665940288702" stroke="black" stroke-linecap="square" stroke-linejoin="round" stroke-width="6" /><polyline fill="none" points="15.45584412271571,245.45584412271572 411.4356415871823,-150.5239533417509" stroke="black" stroke-linecap="square" stroke-linejoin="round" stroke-width="6" /><polyline fill="none" points="52.0,400.0 447.9797974644666,4.020202535533372" stroke="black" stroke-linecap="square" stroke-linejoin="round" stroke-width="6" /><polyline fill="none" points="56.242640687119284,404.24264068711926 452.2224381515859,8.262843222652634" stroke="black" stroke-linecap="square" stroke-linejoin="round" stroke-width="6" /><polyline fill="none" points="60.48528137423857,408.4852813742386 456.4650788387052,12.505483909771954" stroke="black" stroke-linecap="square" stroke-linejoin="round" stroke-width="6" /><polyline fill="none" points="64.72792206135786,412.72792206135784 460.7077195258245,16.748124596891216" stroke="black" stroke-linecap="square" stroke-linejoin="round" stroke-width="6" /><polyline fill="none" points="68.97056274847714,416.97056274847716 464.9503602129438,20.990765284010536" stroke="black" stroke-linecap="square" stroke-linejoin="round" stroke-width="6" /><polyline fill="none" points="73.21320343559643,421.2132034355964 469.19300090006305,25.233405971129798" stroke="black" stroke-linecap="square" stroke-linejoin="round" stroke-width="6" /><polyline fill="none" points="77.45584412271572,425.4558441227157 473.4356415871823,29.47604665824906" stroke="black" stroke-linecap="square" stroke-linejoin="round" stroke-width="6" /></mask></defs><rect fill="white" height="624.0" width="450.0" x="0" y="0" /><g mask="url(#cyanMask)" transform="scale(1.5)"><polyline fill="none" points="32.0,98.0 111.90306627407988,18.096933725920124 232.11121907579292,138.30508652763325" stroke="#63C3DC" stroke-linecap="square" stroke-linejoin="round" stroke-width="6" /><polyline fill="none" points="36.242640687119284,102.24264068711929 111.90306627407986,26.582215100158706 227.86857838867363,142.5477272147525" stroke="#FFFFFF" stroke-linecap="square" stroke-linejoin="round" stroke-width="6" /><polyline fill="none" points="40.48528137423857,106.48528137423857 111.90306627407988,35.06749647439726 223.62593770155436,146.79036790187178" stroke="#63C3DC" stroke-linecap="square" stroke-linejoin="round" stroke-width="6" /><polyline fill="none" points="44.72792206135786,110.72792206135786 111.90306627407988,43.55277784863584 219.38329701443507,151.0330085889911" stroke="#FFFFFF" stroke-linecap="square" stroke-linejoin="round" stroke-width="6" /><polyline fill="none" points="48.970562748477136,114.97056274847714 111.90306627407986,52.0380592228744 215.14065632731578,155.27564927611036" stroke="#63C3DC" stroke-linecap="square" stroke-linejoin="round" stroke-width="6" /><polyline fill="none" points="53.21320343559643,119.21320343559643 111.90306627407988,60.52334059711298 210.8980156401965,159.51828996322965" stroke="#FFFFFF" stroke-linecap="square" stroke-linejoin="round" stroke-width="6" /><polyline fill="none" points="57.45584412271571,123.45584412271572 111.90306627407988,69.00862197135154 206.65537495307723,163.76093065034894" stroke="#63C3DC" stroke-linecap="square" stroke-linejoin="round" stroke-width="6" /><polyline fill="none" points="-6.0,296.0 33.59797974644666,256.40202025355336 73.19595949289331,296.0" stroke="#63C3DC" stroke-linecap="square" stroke-linejoin="round" stroke-width="6" /><polyline fill="none" points="-1.7573593128807152,300.24264068711926 33.59797974644666,264.8873016277919 68.95331880577403,300.24264068711926" stroke="#FFFFFF" stroke-linecap="square" stroke-linejoin="round" stroke-width="6" /><polyline fill="none" points="2.4852813742385695,304.4852813742386 33.59797974644666,273.37258300203047 64.71067811865474,304.4852813742386" stroke="#63C3DC" stroke-linecap="square" stroke-linejoin="round" stroke-width="6" /><polyline fill="none" points="6.727922061357855,308.72792206135784 33.59797974644666,281.85786437626905 60.468037431535464,308.72792206135784" stroke="#FFFFFF" stroke-linecap="square" stroke-linejoin="round" stroke-width="6" /><polyline fill="none" points="10.970562748477139,312.97056274847716 33.59797974644666,290.34314575050763 56.22539674441617,312.97056274847716" stroke="#63C3DC" stroke-linecap="square" stroke-linejoin="round" stroke-width="6" /><polyline fill="none" points="15.213203435596423,317.2132034355964 33.59797974644666,298.8284271247462 51.982756057296896,317.2132034355964" stroke="#FFFFFF" stroke-linecap="square" stroke-linejoin="round" stroke-width="6" /><polyline fill="none" points="19.45584412271571,321.4558441227157 33.59797974644666,307.31370849898474 47.740115370177605,321.4558441227157" stroke="#63C3DC" stroke-linecap="square" stroke-linejoin="round" stroke-width="6" /><polyline fill="none" points="132.0,400.0 252.20815280171308,279.7918471982869" stroke="#63C3DC" stroke-width="6" /><polyline fill="none" points="136.2426406871193,404.24264068711926 256.45079348883235,284.0344878854062" stroke="#FFFFFF" stroke-width="6" /><polyline fill="none" points="140.48528137423858,408.4852813742386 260.69343417595167,288.2771285725255" stroke="#63C3DC" stroke-width="6" /><polyline fill="none" points="144.72792206135784,412.72792206135784 264.9360748630709,292.51976925964476" stroke="#FFFFFF" stroke-width="6" /><polyline fill="none" points="148.97056274847714,416.97056274847716 269.1787155501902,296.7624099467641" stroke="#63C3DC" stroke-width="6" /><polyline fill="none" points="153.21320343559643,421.2132034355964 273.4213562373095,301.00505063388334" stroke="#FFFFFF" stroke-width="6" /><polyline fill="none" points="157.45584412271572,425.4558441227157 277.66399692442883,305.2476913210026" stroke="#63C3DC" stroke-width="6" /><polyline fill="none" points="250.0,282.0 370.2081528017131,161.79184719828692 450.1112190757929,241.6949134723668" stroke="#63C3DC" stroke-linecap="square" stroke-linejoin="round" stroke-width="6" /><polyline fill="none" points="254.2426406871193,286.24264068711926 370.2081528017131,170.27712857252544 445.86857838867365,245.93755415948604" stroke="#FFFFFF" stroke-linecap="square" stroke-linejoin="round" stroke-width="6" /><polyline fill="none" points="258.4852813742386,290.4852813742386 370.2081528017131,178.76240994676408 441.62593770155434,250.1801948466054" stroke="#63C3DC" stroke-linecap="square" stroke-linejoin="round" stroke-width="6" /><polyline fill="none" points="262.72792206135784,294.72792206135784 370.2081528017131,187.2476913210026 437.3832970144351,254.42283553372465" stroke="#FFFFFF" stroke-linecap="square" stroke-linejoin="round" stroke-width="6" /><polyline fill="none" points="266.97056274847716,298.97056274847716 370.20815280171314,195.73297269524122 433.14065632731587,258.66547622084397" stroke="#63C3DC" stroke-linecap="square" stroke-linejoin="round" stroke-width="6" /><polyline fill="none" points="271.2132034355964,303.2132034355964 370.2081528017131,204.21825406947977 428.8980156401965,262.90811690796323" stroke="#FFFFFF" stroke-linecap="square" stroke-linejoin="round" stroke-width="6" /><polyline fill="none" points="275.4558441227157,307.4558441227157 370.2081528017131,212.7035354437183 424.6553749530772,267.1507575950825" stroke="#63C3DC" stroke-linecap="square" stroke-linejoin="round" stroke-width="6" /><polyline fill="none" points="296.0,316.0 416.2081528017131,195.79184719828692 496.1112190757929,275.6949134723668 616.319371877506,155.48676067065372" stroke="#63C3DC" stroke-linecap="square" stroke-linejoin="round" stroke-width="6" /><polyline fill="none" points="300.24264068711926,320.24264068711926 416.2081528017131,204.27712857252544 496.1112190757929,284.18019484660533 620.5620125646253,159.72940135777296" stroke="#FFFFFF" stroke-linecap="square" stroke-linejoin="round" stroke-width="6" /><polyline fill="none" points="304.4852813742386,324.4852813742386 416.2081528017131,212.76240994676408 496.1112190757929,292.66547622084397 624.8046532517446,163.9720420448923" stroke="#63C3DC" stroke-linecap="square" stroke-linejoin="round" stroke-width="6" /><polyline fill="none" points="308.72792206135784,328.72792206135784 416.2081528017131,221.2476913210026 496.1112190757929,301.1507575950825 629.0472939388638,168.21468273201154" stroke="#FFFFFF" stroke-linecap="square" stroke-linejoin="round" stroke-width="6" /><polyline fill="none" points="312.97056274847716,332.97056274847716 416.20815280171314,229.73297269524122 496.111219075793,309.63603896932113 633.2899346259832,172.45732341913092" stroke="#63C3DC" stroke-linecap="square" stroke-linejoin="round" stroke-width="6" /><polyline fill="none" points="317.2132034355964,337.2132034355964 416.2081528017131,238.21825406947977 496.1112190757929,318.12132034355966 637.5325753131024,176.69996410625015" stroke="#FFFFFF" stroke-linecap="square" stroke-linejoin="round" stroke-width="6" /><polyline fill="none" points="321.4558441227157,341.4558441227157 416.2081528017131,246.7035354437183 496.1112190757929,326.6066017177982 641.7752160002217,180.94260479336938" stroke="#63C3DC" stroke-linecap="square" stroke-linejoin="round" stroke-width="6" /><polyline fill="none" points="418.0,194.0 497.9030662740799,114.09693372592012 537.5010460205266,153.6949134723668" stroke="#63C3DC" stroke-linecap="square" stroke-linejoin="round" stroke-width="6" /><polyline fill="none" points="422.24264068711926,198.2426406871193 497.90306627407983,122.5822151001587 533.2584053334072,157.9375541594861" stroke="#FFFFFF" stroke-linecap="square" stroke-linejoin="round" stroke-width="6" /><polyline fill="none" points="426.4852813742386,202.48528137423858 497.9030662740799,131.06749647439727 529.015764646288,162.18019484660536" stroke="#63C3DC" stroke-linecap="square" stroke-linejoin="round" stroke-width="6" /><polyline fill="none" points="430.72792206135784,206.72792206135784 497.90306627407983,139.55277784863583 524.7731239591686,166.42283553372465" stroke="#FFFFFF" stroke-linecap="square" stroke-linejoin="round" stroke-width="6" /><polyline fill="none" points="434.97056274847716,210.97056274847714 497.9030662740799,148.0380592228744 520.5304832720494,170.66547622084394" stroke="#63C3DC" stroke-linecap="square" stroke-linejoin="round" stroke-width="6" /><polyline fill="none" points="439.2132034355964,215.21320343559643 497.9030662740799,156.52334059711296 516.2878425849301,174.9081169079632" stroke="#FFFFFF" stroke-linecap="square" stroke-linejoin="round" stroke-width="6" /><polyline fill="none" points="443.4558441227157,219.45584412271572 497.90306627407983,165.00862197135154 512.0452018978108,179.1507575950825" stroke="#63C3DC" stroke-linecap="square" stroke-linejoin="round" stroke-width="6" /><polyline fill="none" points="-10.0,380.0 385.9797974644666,-15.979797464466628" stroke="#63C3DC" stroke-width="6" /><polyline fill="none" points="-5.757359312880715,384.24264068711926 390.2224381515859,-11.737156777347366" stroke="#FFFFFF" stroke-width="6" /><polyline fill="none" points="-1.5147186257614305,388.4852813742386 394.4650788387052,-7.494516090228046" stroke="#63C3DC" stroke-width="6" /><polyline fill="none" points="2.727922061357855,392.72792206135784 398.7077195258245,-3.2518754031087838" stroke="#FFFFFF" stroke-width="6" /><polyline fill="none" points="6.970562748477139,396.97056274847716 402.9503602129438,0.9907652840105357" stroke="#63C3DC" stroke-width="6" /><polyline fill="none" points="11.213203435596423,401.2132034355964 407.19300090006305,5.233405971129798" stroke="#FFFFFF" stroke-width="6" /><polyline fill="none" points="15.45584412271571,405.4558441227157 411.4356415871823,9.47604665824906" stroke="#63C3DC" stroke-width="6" /></g><rect fill="none" height="624.0" stroke="white" stroke-width="20" width="450.0" x="0" y="0" /></svg>