<svg baseProfile="full" height="624.0" version="1.1" width="450.0" xmlns="http://www.w3.org/2000/svg" xmlns:ev="http://www.w3.org/2001/xml-events" xmlns:xlink="http://www.w3.org/1999/xlink"><defs /><rect fill="white" height="624.0" width="450.0" x="0" y="0" /><g transform="scale(1.5)"><polyline fill="none" points="-10.0,60.0 29.59797974644666,20.402020253553346" stroke="#63C3DC" stroke-width="6" /><polyline fill="none" points="-5.757359312880715,64.24264068711929 33.840620433565945,24.644660940672637" stroke="#FFFFFF" stroke-width="6" /><polyline fill="none" points="-1.5147186257614305,68.48528137423857 38.08326112068523,28.887301627791913" stroke="#63C3DC" stroke-width="6" /><polyline fill="none" points="2.727922061357855,72.72792206135786 42.32590180780451,33.129942314911204" stroke="#FFFFFF" stroke-width="6" /><polyline fill="none" points="6.970562748477139,76.97056274847714 46.568542494923804,37.37258300203048" stroke="#63C3DC" stroke-width="6" /><polyline fill="none" points="11.213203435596423,81.21320343559643 50.81118318204308,41.61522368914977" stroke="#FFFFFF" stroke-width="6" /><polyline fill="none" points="15.45584412271571,85.45584412271572 55.05382386916237,45.85786437626906" stroke="#63C3DC" stroke-width="6" /><polyline fill="none" points="28.0,22.0 148.20815280171308,-98.20815280171307 187.80613254815972,-58.6101730552664" stroke="#B596C8" stroke-linecap="square" stroke-linejoin="round" stroke-width="6" /><polyline fill="none" points="32.242640687119284,26.242640687119284 148.20815280171308,-89.7228714274745 183.56349186104046,-54.36753236814712" stroke="#FFFFFF" stroke-linecap="square" stroke-linejoin="round" stroke-width="6" /><polyline fill="none" points="36.48528137423857,30.48528137423857 148.20815280171308,-81.23759005323593 179.32085117392117,-50.12489168102783" stroke="#B596C8" stroke-linecap="square" stroke-linejoin="round" stroke-width="6" /><polyline fill="none" points="40.72792206135786,34.72792206135786 148.20815280171308,-72.75230867899735 175.07821048680188,-45.88225099390854" stroke="#FFFFFF" stroke-linecap="square" stroke-linejoin="round" stroke-width="6" /><polyline fill="none" points="44.970562748477136,38.97056274847714 148.20815280171308,-64.26702730475878 170.8355697996826,-41.63961030678926" stroke="#B596C8" stroke-linecap="square" stroke-linejoin="round" stroke-width="6" /><polyline fill="none" points="49.21320343559643,43.21320343559643 148.20815280171308,-55.781745930520216 166.59292911256333,-37.396969619669974" stroke="#FFFFFF" stroke-linecap="square" stroke-linejoin="round" stroke-width="6" /><polyline fill="none" points="53.45584412271571,47.45584412271572 148.20815280171308,-47.29646455628165 162.35028842544403,-33.1543289325507" stroke="#B596C8" stroke-linecap="square" stroke-linejoin="round" stroke-width="6" /><polyline fill="none" points="150.0,-100.0 270.2081528017131,-220.20815280171308 350.1112190757929,-140.3050865276332" stroke="#63C3DC" stroke-linecap="square" stroke-linejoin="round" stroke-width="6" /><polyline fill="none" points="154.2426406871193,-95.75735931288071 270.2081528017131,-211.7228714274745 345.86857838867365,-136.0624458405139" stroke="#FFFFFF" stroke-linecap="square" stroke-linejoin="round" stroke-width="6" /><polyline fill="none" points="158.48528137423858,-91.51471862576143 270.2081528017131,-203.23759005323592 341.62593770155434,-131.8198051533946" stroke="#63C3DC" stroke-linecap="square" stroke-linejoin="round" stroke-width="6" /><polyline fill="none" points="162.72792206135784,-87.27207793864214 270.2081528017131,-194.75230867899734 337.3832970144351,-127.5771644662753" stroke="#FFFFFF" stroke-linecap="square" stroke-linejoin="round" stroke-width="6" /><polyline fill="none" points="166.97056274847714,-83.02943725152286 270.2081528017131,-186.2670273047588 333.1406563273158,-123.33452377915607" stroke="#63C3DC" stroke-linecap="square" stroke-linejoin="round" stroke-width="6" /><polyline fill="none" points="171.21320343559643,-78.78679656440357 270.2081528017131,-177.78174593052023 328.8980156401965,-119.09188309203677" stroke="#FFFFFF" stroke-linecap="square" stroke-linejoin="round" stroke-width="6" /><polyline fill="none" points="175.45584412271572,-74.54415587728428 270.2081528017131,-169.29646455628165 324.6553749530772,-114.84924240491748" stroke="#63C3DC" stroke-linecap="square" stroke-linejoin="round" stroke-width="6" /><polyline fill="none" points="-10.0,140.0 69.90306627407985,219.9030662740799" stroke="#63C3DC" stroke-width="6" /><polyline fill="none" points="-14.242640687119286,144.2426406871193 65.66042558696056,224.14570696119918" stroke="#FFFFFF" stroke-width="6" /><polyline fill="none" points="-18.48528137423857,148.48528137423858 61.41778489984128,228.38834764831847" stroke="#63C3DC" stroke-width="6" /><polyline fill="none" points="-22.72792206135786,152.72792206135784 57.17514421272199,232.63098833543773" stroke="#FFFFFF" stroke-width="6" /><polyline fill="none" points="-26.970562748477143,156.97056274847714 52.932503525602705,236.87362902255703" stroke="#63C3DC" stroke-width="6" /><polyline fill="none" points="-31.21320343559643,161.21320343559643 48.68986283848342,241.11626970967632" stroke="#FFFFFF" stroke-width="6" /><polyline fill="none" points="-35.45584412271572,165.4558441227157 44.44722215136413,245.35891039679558" stroke="#63C3DC" stroke-width="6" /><polyline fill="none" points="-6.0,136.0 73.90306627407988,56.09693372592014" stroke="#63C3DC" stroke-width="6" /><polyline fill="none" points="-1.7573593128807152,140.2426406871193 78.14570696119917,60.33957441303943" stroke="#FFFFFF" stroke-width="6" /><polyline fill="none" points="2.4852813742385695,144.48528137423858 82.38834764831844,64.58221510015872" stroke="#63C3DC" stroke-width="6" /><polyline fill="none" points="6.727922061357855,148.72792206135784 86.63098833543773,68.82485578727798" stroke="#FFFFFF" stroke-width="6" /><polyline fill="none" points="10.970562748477139,152.97056274847714 90.87362902255701,73.06749647439727" stroke="#63C3DC" stroke-width="6" /><polyline fill="none" points="15.213203435596423,157.21320343559643 95.1162697096763,77.31013716151656" stroke="#FFFFFF" stroke-width="6" /><polyline fill="none" points="19.45584412271571,161.45584412271572 99.35891039679558,81.55277784863586" stroke="#63C3DC" stroke-width="6" /><polyline fill="none" points="74.0,56.0 153.9030662740799,-23.903066274079862 233.80613254815972,56.00000000000003 629.7859300126263,-339.9797974644665" stroke="#63C3DC" stroke-linecap="square" stroke-linejoin="round" stroke-width="6" /><polyline fill="none" points="78.24264068711929,60.242640687119284 153.9030662740799,-15.417784899841301 233.80613254815972,64.48528137423858 634.0285706997456,-335.7371567773473" stroke="#FFFFFF" stroke-linecap="square" stroke-linejoin="round" stroke-width="6" /><polyline fill="none" points="82.48528137423857,64.48528137423857 153.9030662740799,-6.932503525602726 233.80613254815972,72.97056274847716 638.2712113868649,-331.494516090228" stroke="#63C3DC" stroke-linecap="square" stroke-linejoin="round" stroke-width="6" /><polyline fill="none" points="86.72792206135786,68.72792206135786 153.9030662740799,1.5527778486358557 233.80613254815972,81.45584412271575 642.5138520739843,-327.25187540310867" stroke="#FFFFFF" stroke-linecap="square" stroke-linejoin="round" stroke-width="6" /><polyline fill="none" points="90.97056274847714,72.97056274847714 153.90306627407986,10.03805922287441 233.80613254815972,89.9411254969543 646.7564927611036,-323.00923471598946" stroke="#63C3DC" stroke-linecap="square" stroke-linejoin="round" stroke-width="6" /><polyline fill="none" points="95.21320343559643,77.21320343559643 153.9030662740799,18.523340597112984 233.80613254815972,98.42640687119288 650.9991334482228,-318.76659402887014" stroke="#FFFFFF" stroke-linecap="square" stroke-linejoin="round" stroke-width="6" /><polyline fill="none" points="99.45584412271572,81.45584412271572 153.9030662740799,27.008621971351566 233.80613254815972,106.91168824543146 655.2417741353421,-314.5239533417508" stroke="#63C3DC" stroke-linecap="square" stroke-linejoin="round" stroke-width="6" /><polyline fill="none" points="-10.0,300.0 29.59797974644666,260.40202025355336 69.19595949289331,300.0 149.09902576697317,220.09693372592014" stroke="#63C3DC" stroke-linecap="square" stroke-linejoin="round" stroke-width="6" /><polyline fill="none" points="-5.757359312880715,304.24264068711926 29.59797974644666,268.8873016277919 69.19595949289331,308.4852813742385 153.3416664540925,224.33957441303937" stroke="#FFFFFF" stroke-linecap="square" stroke-linejoin="round" stroke-width="6" /><polyline fill="none" points="-1.5147186257614305,308.4852813742386 29.59797974644666,277.3725830020305 69.19595949289331,316.97056274847716 157.58430714121175,228.58221510015875" stroke="#63C3DC" stroke-linecap="square" stroke-linejoin="round" stroke-width="6" /><polyline fill="none" points="2.727922061357855,312.72792206135784 29.59797974644666,285.85786437626905 69.19595949289331,325.4558441227157 161.82694782833104,232.82485578727795" stroke="#FFFFFF" stroke-linecap="square" stroke-linejoin="round" stroke-width="6" /><polyline fill="none" points="6.970562748477139,316.97056274847716 29.59797974644666,294.34314575050763 69.19595949289331,333.9411254969543 166.06958851545033,237.06749647439733" stroke="#63C3DC" stroke-linecap="square" stroke-linejoin="round" stroke-width="6" /><polyline fill="none" points="11.213203435596423,321.2132034355964 29.59797974644666,302.8284271247462 69.19595949289331,342.42640687119285 170.3122292025696,241.31013716151656" stroke="#FFFFFF" stroke-linecap="square" stroke-linejoin="round" stroke-width="6" /><polyline fill="none" points="15.45584412271571,325.4558441227157 29.59797974644666,311.31370849898474 69.19595949289331,350.9116882454314 174.55486988968892,245.5527778486358" stroke="#63C3DC" stroke-linecap="square" stroke-linejoin="round" stroke-width="6" /><polyline fill="none" points="32.0,258.0 111.90306627407988,178.09693372592014 191.80613254815972,258.0 587.7859300126263,-137.97979746446657" stroke="#63C3DC" stroke-linecap="square" stroke-linejoin="round" stroke-width="6" /><polyline fill="none" points="36.242640687119284,262.24264068711926 111.90306627407986,186.5822151001587 191.80613254815972,266.4852813742386 592.0285706997456,-133.7371567773473" stroke="#FFFFFF" stroke-linecap="square" stroke-linejoin="round" stroke-width="6" /><polyline fill="none" points="40.48528137423857,266.4852813742386 111.90306627407988,195.06749647439727 191.80613254815972,274.97056274847716 596.2712113868649,-129.494516090228" stroke="#63C3DC" stroke-linecap="square" stroke-linejoin="round" stroke-width="6" /><polyline fill="none" points="44.72792206135786,270.72792206135784 111.90306627407988,203.55277784863586 191.80613254815972,283.45584412271575 600.5138520739843,-125.25187540310867" stroke="#FFFFFF" stroke-linecap="square" stroke-linejoin="round" stroke-width="6" /><polyline fill="none" points="48.970562748477136,274.97056274847716 111.90306627407986,212.03805922287444 191.80613254815972,291.9411254969543 604.7564927611036,-121.00923471598941" stroke="#63C3DC" stroke-linecap="square" stroke-linejoin="round" stroke-width="6" /><polyline fill="none" points="53.21320343559643,279.2132034355964 111.90306627407988,220.523340597113 191.80613254815972,300.42640687119285 608.9991334482228,-116.76659402887014" stroke="#FFFFFF" stroke-linecap="square" stroke-linejoin="round" stroke-width="6" /><polyline fill="none" points="57.45584412271571,283.4558441227157 111.90306627407988,229.00862197135154 191.80613254815972,308.91168824543144 613.2417741353421,-112.52395334175083" stroke="#63C3DC" stroke-linecap="square" stroke-linejoin="round" stroke-width="6" /><polyline fill="none" points="-10.0,380.0 29.59797974644666,340.40202025355336 109.5010460205265,420.30508652763325" stroke="#63C3DC" stroke-linecap="square" stroke-linejoin="round" stroke-width="6" /><polyline fill="none" points="-5.757359312880715,384.24264068711926 29.59797974644666,348.8873016277919 105.25840533340724,424.5477272147525" stroke="#FFFFFF" stroke-linecap="square" stroke-linejoin="round" stroke-width="6" /><polyline fill="none" points="-1.5147186257614305,388.4852813742386 29.59797974644666,357.3725830020305 101.01576464628795,428.79036790187183" stroke="#63C3DC" stroke-linecap="square" stroke-linejoin="round" stroke-width="6" /><polyline fill="none" points="2.727922061357855,392.72792206135784 29.59797974644666,365.85786437626905 96.77312395916866,433.0330085889911" stroke="#FFFFFF" stroke-linecap="square" stroke-linejoin="round" stroke-width="6" /><polyline fill="none" points="6.970562748477139,396.97056274847716 29.59797974644666,374.34314575050763 92.53048327204937,437.27564927611036" stroke="#63C3DC" stroke-linecap="square" stroke-linejoin="round" stroke-width="6" /><polyline fill="none" points="11.213203435596423,401.2132034355964 29.59797974644666,382.8284271247462 88.28784258493009,441.5182899632297" stroke="#FFFFFF" stroke-linecap="square" stroke-linejoin="round" stroke-width="6" /><polyline fill="none" points="15.45584412271571,405.4558441227157 29.59797974644666,391.31370849898474 84.04520189781081,445.7609306503489" stroke="#63C3DC" stroke-linecap="square" stroke-linejoin="round" stroke-width="6" /><polyline fill="none" points="32.0,338.0 111.90306627407988,258.09693372592017 151.50104602052653,297.6949134723668" stroke="#63C3DC" stroke-linecap="square" stroke-linejoin="round" stroke-width="6" /><polyline fill="none" points="36.242640687119284,342.24264068711926 111.90306627407986,266.5822151001587 147.25840533340724,301.93755415948607" stroke="#FFFFFF" stroke-linecap="square" stroke-linejoin="round" stroke-width="6" /><polyline fill="none" points="40.48528137423857,346.4852813742386 111.90306627407988,275.0674964743973 143.01576464628795,306.1801948466054" stroke="#63C3DC" stroke-linecap="square" stroke-linejoin="round" stroke-width="6" /><polyline fill="none" points="44.72792206135786,350.72792206135784 111.90306627407988,283.55277784863586 138.7731239591687,310.42283553372465" stroke="#FFFFFF" stroke-linecap="square" stroke-linejoin="round" stroke-width="6" /><polyline fill="none" points="48.970562748477136,354.97056274847716 111.90306627407986,292.03805922287444 134.53048327204937,314.66547622084397" stroke="#63C3DC" stroke-linecap="square" stroke-linejoin="round" stroke-width="6" /><polyline fill="none" points="53.21320343559643,359.2132034355964 111.90306627407988,300.52334059711296 130.2878425849301,318.9081169079632" stroke="#FFFFFF" stroke-linecap="square" stroke-linejoin="round" stroke-width="6" /><polyline fill="none" points="57.45584412271571,363.4558441227157 111.90306627407988,309.00862197135154 126.04520189781083,323.1507575950825" stroke="#63C3DC" stroke-linecap="square" stroke-linejoin="round" stroke-width="6" /><polyline fill="none" points="116.0,254.0 195.9030662740799,174.09693372592014 316.111219075793,294.30508652763325" stroke="#B596C8" stroke-linecap="square" stroke-linejoin="round" stroke-width="6" /><polyline fill="none" points="120.24264068711929,258.24264068711926 195.9030662740799,182.5822151001587 311.86857838867365,298.5477272147525" stroke="#FFFFFF" stroke-linecap="square" stroke-linejoin="round" stroke-width="6" /><polyline fill="none" points="124.48528137423857,262.4852813742386 195.9030662740799,191.06749647439727 307.6259377015544,302.79036790187183" stroke="#B596C8" stroke-linecap="square" stroke-linejoin="round" stroke-width="6" /><polyline fill="none" points="128.72792206135784,266.72792206135784 195.90306627407986,199.55277784863586 303.3832970144351,307.0330085889911" stroke="#FFFFFF" stroke-linecap="square" stroke-linejoin="round" stroke-width="6" /><polyline fill="none" points="132.97056274847714,270.97056274847716 195.90306627407986,208.03805922287444 299.1406563273158,311.2756492761104" stroke="#B596C8" stroke-linecap="square" stroke-linejoin="round" stroke-width="6" /><polyline fill="none" points="137.21320343559643,275.2132034355964 195.9030662740799,216.523340597113 294.8980156401965,315.5182899632297" stroke="#FFFFFF" stroke-linecap="square" stroke-linejoin="round" stroke-width="6" /><polyline fill="none" points="141.45584412271572,279.4558441227157 195.9030662740799,225.00862197135154 290.6553749530772,319.76093065034894" stroke="#B596C8" stroke-linecap="square" stroke-linejoin="round" stroke-width="6" /><polyline fill="none" points="52.0,400.0 172.20815280171308,279.7918471982869 211.80613254815972,319.3898269447336" stroke="#B596C8" stroke-linecap="square" stroke-linejoin="round" stroke-width="6" /><polyline fill="none" points="56.242640687119284,404.24264068711926 172.20815280171308,288.2771285725255 207.56349186104046,323.6324676318529" stroke="#FFFFFF" stroke-linecap="square" stroke-linejoin="round" stroke-width="6" /><polyline fill="none" points="60.48528137423857,408.4852813742386 172.20815280171308,296.7624099467641 203.32085117392117,327.8751083189722" stroke="#B596C8" stroke-linecap="square" stroke-linejoin="round" stroke-width="6" /><polyline fill="none" points="64.72792206135786,412.72792206135784 172.20815280171308,305.24769132100266 199.07821048680188,332.11774900609146" stroke="#FFFFFF" stroke-linecap="square" stroke-linejoin="round" stroke-width="6" /><polyline fill="none" points="68.97056274847714,416.97056274847716 172.20815280171308,313.73297269524124 194.8355697996826,336.3603896932108" stroke="#B596C8" stroke-linecap="square" stroke-linejoin="round" stroke-width="6" /><polyline fill="none" points="73.21320343559643,421.2132034355964 172.20815280171308,322.21825406947977 190.59292911256333,340.60303038033" stroke="#FFFFFF" stroke-linecap="square" stroke-linejoin="round" stroke-width="6" /><polyline fill="none" points="77.45584412271572,425.4558441227157 172.20815280171308,330.70353544371835 186.35028842544403,344.8456710674493" stroke="#B596C8" stroke-linecap="square" stroke-linejoin="round" stroke-width="6" /><polyline fill="none" points="174.0,278.0 253.9030662740799,198.09693372592014 293.50104602052653,237.6949134723668" stroke="#B596C8" stroke-linecap="square" stroke-linejoin="round" stroke-width="6" /><polyline fill="none" points="178.2426406871193,282.24264068711926 253.9030662740799,206.5822151001587 289.25840533340727,241.93755415948607" stroke="#FFFFFF" stroke-linecap="square" stroke-linejoin="round" stroke-width="6" /><polyline fill="none" points="182.48528137423858,286.4852813742386 253.9030662740799,215.06749647439727 285.01576464628795,246.18019484660536" stroke="#B596C8" stroke-linecap="square" stroke-linejoin="round" stroke-width="6" /><polyline fill="none" points="186.72792206135784,290.72792206135784 253.90306627407986,223.55277784863586 280.7731239591687,250.42283553372468" stroke="#FFFFFF" stroke-linecap="square" stroke-linejoin="round" stroke-width="6" /><polyline fill="none" points="190.97056274847714,294.97056274847716 253.90306627407986,232.03805922287444 276.53048327204937,254.66547622084397" stroke="#B596C8" stroke-linecap="square" stroke-linejoin="round" stroke-width="6" /><polyline fill="none" points="195.21320343559643,299.2132034355964 253.9030662740799,240.523340597113 272.2878425849301,258.90811690796323" stroke="#FFFFFF" stroke-linecap="square" stroke-linejoin="round" stroke-width="6" /><polyline fill="none" points="199.45584412271572,303.4558441227157 253.9030662740799,249.00862197135154 268.04520189781084,263.1507575950825" stroke="#B596C8" stroke-linecap="square" stroke-linejoin="round" stroke-width="6" /><polyline fill="none" points="258.0,194.0 337.9030662740799,114.09693372592014 377.50104602052653,153.6949134723668" stroke="#63C3DC" stroke-linecap="square" stroke-linejoin="round" stroke-width="6" /><polyline fill="none" points="262.24264068711926,198.2426406871193 337.90306627407983,122.5822151001587 373.2584053334072,157.9375541594861" stroke="#FFFFFF" stroke-linecap="square" stroke-linejoin="round" stroke-width="6" /><polyline fill="none" points="266.4852813742386,202.48528137423858 337.9030662740799,131.06749647439727 369.01576464628795,162.18019484660536" stroke="#63C3DC" stroke-linecap="square" stroke-linejoin="round" stroke-width="6" /><polyline fill="none" points="270.72792206135784,206.72792206135784 337.90306627407983,139.55277784863586 364.77312395916863,166.42283553372468" stroke="#FFFFFF" stroke-linecap="square" stroke-linejoin="round" stroke-width="6" /><polyline fill="none" points="274.97056274847716,210.97056274847714 337.9030662740799,148.0380592228744 360.5304832720494,170.66547622084394" stroke="#63C3DC" stroke-linecap="square" stroke-linejoin="round" stroke-width="6" /><polyline fill="none" points="279.2132034355964,215.21320343559643 337.9030662740799,156.523340597113 356.2878425849301,174.90811690796323" stroke="#FFFFFF" stroke-linecap="square" stroke-linejoin="round" stroke-width="6" /><polyline fill="none" points="283.4558441227157,219.45584412271572 337.90306627407983,165.00862197135157 352.0452018978108,179.15075759508252" stroke="#63C3DC" stroke-linecap="square" stroke-linejoin="round" stroke-width="6" /><polyline fill="none" points="132.0,400.0 252.20815280171308,279.7918471982869 332.1112190757929,359.6949134723668" stroke="#63C3DC" stroke-linecap="square" stroke-linejoin="round" stroke-width="6" /><polyline fill="none" points="136.2426406871193,404.24264068711926 252.20815280171308,288.2771285725255 327.86857838867365,363.9375541594861" stroke="#FFFFFF" stroke-linecap="square" stroke-linejoin="round" stroke-width="6" /><polyline fill="none" points="140.48528137423858,408.4852813742386 252.20815280171308,296.7624099467641 323.62593770155434,368.1801948466054" stroke="#63C3DC" stroke-linecap="square" stroke-linejoin="round" stroke-width="6" /><polyline fill="none" points="144.72792206135784,412.72792206135784 252.20815280171308,305.24769132100266 319.3832970144351,372.4228355337247" stroke="#FFFFFF" stroke-linecap="square" stroke-linejoin="round" stroke-width="6" /><polyline fill="none" points="148.97056274847714,416.97056274847716 252.20815280171308,313.73297269524124 315.1406563273158,376.66547622084397" stroke="#63C3DC" stroke-linecap="square" stroke-linejoin="round" stroke-width="6" /><polyline fill="none" points="153.21320343559643,421.2132034355964 252.20815280171308,322.21825406947977 310.8980156401965,380.90811690796323" stroke="#FFFFFF" stroke-linecap="square" stroke-linejoin="round" stroke-width="6" /><polyline fill="none" points="157.45584412271572,425.4558441227157 252.20815280171308,330.70353544371835 306.6553749530772,385.1507575950825" stroke="#63C3DC" stroke-linecap="square" stroke-linejoin="round" stroke-width="6" /><polyline fill="none" points="254.0,278.0 333.9030662740799,198.09693372592014 454.111219075793,318.30508652763325" stroke="#63C3DC" stroke-linecap="square" stroke-linejoin="round" stroke-width="6" /><polyline fill="none" points="258.24264068711926,282.24264068711926 333.90306627407983,206.5822151001587 449.8685783886736,322.5477272147525" stroke="#FFFFFF" stroke-linecap="square" stroke-linejoin="round" stroke-width="6" /><polyline fill="none" points="262.4852813742386,286.4852813742386 333.9030662740799,215.06749647439727 445.6259377015544,326.79036790187183" stroke="#63C3DC" stroke-linecap="square" stroke-linejoin="round" stroke-width="6" /><polyline fill="none" points="266.72792206135784,290.72792206135784 333.90306627407983,223.55277784863586 441.383297014435,331.0330085889911" stroke="#FFFFFF" stroke-linecap="square" stroke-linejoin="round" stroke-width="6" /><polyline fill="none" points="270.97056274847716,294.97056274847716 333.9030662740799,232.03805922287444 437.1406563273158,335.2756492761104" stroke="#63C3DC" stroke-linecap="square" stroke-linejoin="round" stroke-width="6" /><polyline fill="none" points="275.2132034355964,299.2132034355964 333.9030662740799,240.523340597113 432.8980156401965,339.5182899632297" stroke="#FFFFFF" stroke-linecap="square" stroke-linejoin="round" stroke-width="6" /><polyline fill="none" points="279.4558441227157,303.4558441227157 333.90306627407983,249.00862197135154 428.65537495307717,343.76093065034894" stroke="#63C3DC" stroke-linecap="square" stroke-linejoin="round" stroke-width="6" /><polyline fill="none" points="212.0,400.0 291.9030662740799,320.09693372592017 412.111219075793,440.3050865276333 532.319371877506,320.0969337259202" stroke="#63C3DC" stroke-linecap="square" stroke-linejoin="round" stroke-width="6" /><polyline fill="none" points="216.2426406871193,404.24264068711926 291.9030662740799,328.5822151001587 412.111219075793,448.79036790187183 536.5620125646253,324.3395744130395" stroke="#FFFFFF" stroke-linecap="square" stroke-linejoin="round" stroke-width="6" /><polyline fill="none" points="220.48528137423858,408.4852813742386 291.9030662740799,337.0674964743973 412.111219075793,457.27564927611036 540.8046532517446,328.5822151001587" stroke="#63C3DC" stroke-linecap="square" stroke-linejoin="round" stroke-width="6" /><polyline fill="none" points="224.72792206135784,412.72792206135784 291.90306627407983,345.55277784863586 412.11121907579286,465.760930650349 545.0472939388638,332.82485578727807" stroke="#FFFFFF" stroke-linecap="square" stroke-linejoin="round" stroke-width="6" /><polyline fill="none" points="228.97056274847714,416.97056274847716 291.9030662740799,354.03805922287444 412.111219075793,474.2462120245875 549.2899346259832,337.06749647439733" stroke="#63C3DC" stroke-linecap="square" stroke-linejoin="round" stroke-width="6" /><polyline fill="none" points="233.21320343559643,421.2132034355964 291.9030662740799,362.52334059711296 412.111219075793,482.73149339882605 553.5325753131025,341.31013716151654" stroke="#FFFFFF" stroke-linecap="square" stroke-linejoin="round" stroke-width="6" /><polyline fill="none" points="237.45584412271572,425.4558441227157 291.9030662740799,371.00862197135154 412.111219075793,491.2167747730647 557.7752160002218,345.5527778486359" stroke="#63C3DC" stroke-linecap="square" stroke-linejoin="round" stroke-width="6" /><polyline fill="none" points="296.0,316.0 375.9030662740799,236.09693372592014 455.8061325481597,316.0 535.7091988222396,236.09693372592014" stroke="#B596C8" stroke-linecap="square" stroke-linejoin="round" stroke-width="6" /><polyline fill="none" points="300.24264068711926,320.24264068711926 375.90306627407983,244.5822151001587 455.80613254815967,324.4852813742386 539.9518395093588,240.33957441303943" stroke="#FFFFFF" stroke-linecap="square" stroke-linejoin="round" stroke-width="6" /><polyline fill="none" points="304.4852813742386,324.4852813742386 375.9030662740799,253.06749647439727 455.8061325481597,332.97056274847716 544.1944801964781,244.58221510015875" stroke="#B596C8" stroke-linecap="square" stroke-linejoin="round" stroke-width="6" /><polyline fill="none" points="308.72792206135784,328.72792206135784 375.90306627407983,261.55277784863586 455.80613254815967,341.45584412271575 548.4371208835973,248.824855787278" stroke="#FFFFFF" stroke-linecap="square" stroke-linejoin="round" stroke-width="6" /><polyline fill="none" points="312.97056274847716,332.97056274847716 375.9030662740799,270.03805922287444 455.8061325481597,349.9411254969543 552.6797615707168,253.06749647439733" stroke="#B596C8" stroke-linecap="square" stroke-linejoin="round" stroke-width="6" /><polyline fill="none" points="317.2132034355964,337.2132034355964 375.9030662740799,278.52334059711296 455.8061325481597,358.42640687119285 556.922402257836,257.31013716151654" stroke="#FFFFFF" stroke-linecap="square" stroke-linejoin="round" stroke-width="6" /><polyline fill="none" points="321.4558441227157,341.4558441227157 375.90306627407983,287.00862197135154 455.80613254815967,366.91168824543144 561.1650429449553,261.55277784863586" stroke="#B596C8" stroke-linecap="square" stroke-linejoin="round" stroke-width="6" /><polyline fill="none" points="380.0,232.0 419.59797974644664,192.40202025355336 459.1959594928933,232.00000000000003" stroke="#B596C8" stroke-linecap="square" stroke-linejoin="round" stroke-width="6" /><polyline fill="none" points="384.24264068711926,236.2426406871193 419.59797974644664,200.8873016277919 454.953318805774,236.2426406871193" stroke="#FFFFFF" stroke-linecap="square" stroke-linejoin="round" stroke-width="6" /><polyline fill="none" points="388.4852813742386,240.48528137423858 419.5979797464467,209.3725830020305 450.71067811865476,240.48528137423858" stroke="#B596C8" stroke-linecap="square" stroke-linejoin="round" stroke-width="6" /><polyline fill="none" points="392.72792206135784,244.72792206135784 419.59797974644664,217.85786437626905 446.46803743153544,244.72792206135787" stroke="#FFFFFF" stroke-linecap="square" stroke-linejoin="round" stroke-width="6" /><polyline fill="none" points="396.97056274847716,248.97056274847714 419.5979797464467,226.34314575050763 442.22539674441623,248.97056274847716" stroke="#B596C8" stroke-linecap="square" stroke-linejoin="round" stroke-width="6" /><polyline fill="none" points="401.2132034355964,253.21320343559643 419.59797974644664,234.82842712474618 437.98275605729685,253.21320343559643" stroke="#FFFFFF" stroke-linecap="square" stroke-linejoin="round" stroke-width="6" /><polyline fill="none" points="405.4558441227157,257.4558441227157 419.59797974644664,243.31370849898474 433.7401153701776,257.4558441227157" stroke="#B596C8" stroke-linecap="square" stroke-linejoin="round" stroke-width="6" /><polyline fill="none" points="-10.0,220.0 385.9797974644666,-175.97979746446657" stroke="#63C3DC" stroke-width="6" /><polyline fill="none" points="-5.757359312880715,224.2426406871193 390.2224381515859,-171.73715677734728" stroke="#FFFFFF" stroke-width="6" /><polyline fill="none" points="-1.5147186257614305,228.48528137423858 394.4650788387052,-167.494516090228" stroke="#63C3DC" stroke-width="6" /><polyline fill="none" points="2.727922061357855,232.72792206135784 398.7077195258245,-163.25187540310873" stroke="#FFFFFF" stroke-width="6" /><polyline fill="none" points="6.970562748477139,236.97056274847714 402.9503602129438,-159.00923471598944" stroke="#63C3DC" stroke-width="6" /><polyline fill="none" points="11.213203435596423,241.21320343559643 407.19300090006305,-154.76659402887014" stroke="#FFFFFF" stroke-width="6" /><polyline fill="none" points="15.45584412271571,245.45584412271572 411.4356415871823,-150.52395334175085" stroke="#63C3DC" stroke-width="6" /></g><rect fill="none" height="624.0" stroke="white" stroke-width="20" width="450.0" x="0" y="0" /></svg>