<svg baseProfile="full" height="416" version="1.1" width="300" xmlns="http://www.w3.org/2000/svg" xmlns:ev="http://www.w3.org/2001/xml-events" xmlns:xlink="http://www.w3.org/1999/xlink"><defs /><rect fill="white" height="416" width="300" x="0" y="0" /><polyline fill="none" points="-10.0,60.0 110.20815280171308,-60.20815280171307 190.11121907579292,19.69491347236682" stroke="#B596C8" stroke-linecap="square" stroke-linejoin="round" stroke-width="6" /><polyline fill="none" points="-5.757359312880715,64.24264068711929 110.2081528017131,-51.72287142747449 185.86857838867365,23.937554159486112" stroke="#FFFFFF" stroke-linecap="square" stroke-linejoin="round" stroke-width="6" /><polyline fill="none" points="-1.5147186257614305,68.48528137423857 110.20815280171308,-43.237590053235934 181.62593770155436,28.18019484660539" stroke="#B596C8" stroke-linecap="square" stroke-linejoin="round" stroke-width="6" /><polyline fill="none" points="2.727922061357855,72.72792206135786 110.20815280171308,-34.75230867899735 177.38329701443507,32.42283553372468" stroke="#FFFFFF" stroke-linecap="square" stroke-linejoin="round" stroke-width="6" /><polyline fill="none" points="6.970562748477139,76.97056274847714 110.20815280171308,-26.2670273047588 173.1406563273158,36.66547622084394" stroke="#B596C8" stroke-linecap="square" stroke-linejoin="round" stroke-width="6" /><polyline fill="none" points="11.213203435596423,81.21320343559643 110.20815280171308,-17.781745930520216 168.89801564019652,40.90811690796324" stroke="#FFFFFF" stroke-linecap="square" stroke-linejoin="round" stroke-width="6" /><polyline fill="none" points="15.45584412271571,85.45584412271572 110.20815280171308,-9.296464556281649 164.65537495307723,45.150757595082524" stroke="#B596C8" stroke-linecap="square" stroke-linejoin="round" stroke-width="6" /><polyline fill="none" points="-10.0,140.0 29.597979746446654,179.59797974644667 109.50104602052653,99.6949134723668 269.30717856868625,-60.11121907579292" stroke="#B596C8" stroke-linecap="square" stroke-linejoin="round" stroke-width="6" /><polyline fill="none" points="-14.242640687119286,144.2426406871193 29.597979746446654,188.08326112068525 109.50104602052653,108.18019484660539 273.5498192558056,-55.868578388673626" stroke="#FFFFFF" stroke-linecap="square" stroke-linejoin="round" stroke-width="6" /><polyline fill="none" points="-18.48528137423857,148.48528137423858 29.59797974644665,196.56854249492383 109.50104602052653,116.66547622084397 277.7924599429249,-51.625937701554335" stroke="#B596C8" stroke-linecap="square" stroke-linejoin="round" stroke-width="6" /><polyline fill="none" points="-22.72792206135786,152.72792206135784 29.597979746446647,205.0538238691624 109.50104602052653,125.15075759508252 282.0351006300441,-47.383297014435044" stroke="#FFFFFF" stroke-linecap="square" stroke-linejoin="round" stroke-width="6" /><polyline fill="none" points="-26.970562748477143,156.97056274847714 29.597979746446647,213.53910524340097 109.50104602052653,133.6360389693211 286.2777413171634,-43.14065632731575" stroke="#B596C8" stroke-linecap="square" stroke-linejoin="round" stroke-width="6" /><polyline fill="none" points="-31.21320343559643,161.21320343559643 29.597979746446644,222.02438661763952 109.50104602052652,142.12132034355966 290.5203820042827,-38.89801564019649" stroke="#FFFFFF" stroke-linecap="square" stroke-linejoin="round" stroke-width="6" /><polyline fill="none" points="-35.45584412271572,165.4558441227157 29.59797974644664,230.50966799187808 109.50104602052652,150.6066017177982 294.763022691402,-34.65537495307723" stroke="#B596C8" stroke-linecap="square" stroke-linejoin="round" stroke-width="6" /><polyline fill="none" points="75.0,135.0 114.59797974644667,95.40202025355335 194.50104602052653,175.30508652763325" stroke="#B596C8" stroke-linecap="square" stroke-linejoin="round" stroke-width="6" /><polyline fill="none" points="79.24264068711929,139.2426406871193 114.59797974644667,103.88730162779191 190.25840533340724,179.5477272147525" stroke="#FFFFFF" stroke-linecap="square" stroke-linejoin="round" stroke-width="6" /><polyline fill="none" points="83.48528137423857,143.48528137423858 114.59797974644667,112.3725830020305 186.01576464628795,183.79036790187183" stroke="#B596C8" stroke-linecap="square" stroke-linejoin="round" stroke-width="6" /><polyline fill="none" points="87.72792206135786,147.72792206135784 114.59797974644667,120.85786437626905 181.7731239591687,188.0330085889911" stroke="#FFFFFF" stroke-linecap="square" stroke-linejoin="round" stroke-width="6" /><polyline fill="none" points="91.97056274847714,151.97056274847714 114.59797974644665,129.34314575050763 177.53048327204937,192.27564927611036" stroke="#B596C8" stroke-linecap="square" stroke-linejoin="round" stroke-width="6" /><polyline fill="none" points="96.21320343559643,156.21320343559643 114.59797974644667,137.82842712474618 173.2878425849301,196.51828996322965" stroke="#FFFFFF" stroke-linecap="square" stroke-linejoin="round" stroke-width="6" /><polyline fill="none" points="100.45584412271572,160.45584412271572 114.59797974644667,146.31370849898477 169.0452018978108,200.76093065034894" stroke="#B596C8" stroke-linecap="square" stroke-linejoin="round" stroke-width="6" /><polyline fill="none" points="-10.0,300.0 110.20815280171308,179.79184719828692 149.80613254815972,219.38982694473358" stroke="#B596C8" stroke-linecap="square" stroke-linejoin="round" stroke-width="6" /><polyline fill="none" points="-5.757359312880715,304.24264068711926 110.2081528017131,188.2771285725255 145.56349186104046,223.63246763185288" stroke="#FFFFFF" stroke-linecap="square" stroke-linejoin="round" stroke-width="6" /><polyline fill="none" points="-1.5147186257614305,308.4852813742386 110.20815280171308,196.76240994676408 141.32085117392117,227.87510831897217" stroke="#B596C8" stroke-linecap="square" stroke-linejoin="round" stroke-width="6" /><polyline fill="none" points="2.727922061357855,312.72792206135784 110.20815280171308,205.24769132100263 137.07821048680188,232.11774900609146" stroke="#FFFFFF" stroke-linecap="square" stroke-linejoin="round" stroke-width="6" /><polyline fill="none" points="6.970562748477139,316.97056274847716 110.20815280171308,213.73297269524124 132.8355697996826,236.36038969321078" stroke="#B596C8" stroke-linecap="square" stroke-linejoin="round" stroke-width="6" /><polyline fill="none" points="11.213203435596423,321.2132034355964 110.20815280171308,222.21825406947977 128.59292911256333,240.60303038033" stroke="#FFFFFF" stroke-linecap="square" stroke-linejoin="round" stroke-width="6" /><polyline fill="none" points="15.45584412271571,325.4558441227157 110.20815280171308,230.70353544371832 124.35028842544403,244.84567106744927" stroke="#B596C8" stroke-linecap="square" stroke-linejoin="round" stroke-width="6" /><polyline fill="none" points="126.0,404.0 165.59797974644664,443.59797974644664 245.50104602052653,363.6949134723668 444.90515831513295,164.29080117776041" stroke="#B596C8" stroke-linecap="square" stroke-linejoin="round" stroke-width="6" /><polyline fill="none" points="121.75735931288071,408.24264068711926 165.59797974644664,452.0832611206852 245.50104602052653,372.18019484660533 449.1477990022522,168.53344186487965" stroke="#FFFFFF" stroke-linecap="square" stroke-linejoin="round" stroke-width="6" /><polyline fill="none" points="117.51471862576143,412.4852813742386 165.59797974644664,460.5685424949238 245.50104602052653,380.66547622084397 453.39043968937153,172.77608255199902" stroke="#B596C8" stroke-linecap="square" stroke-linejoin="round" stroke-width="6" /><polyline fill="none" points="113.27207793864214,416.72792206135784 165.59797974644664,469.0538238691624 245.50104602052653,389.1507575950825 457.6330803764908,177.01872323911826" stroke="#FFFFFF" stroke-linecap="square" stroke-linejoin="round" stroke-width="6" /><polyline fill="none" points="109.02943725152286,420.97056274847716 165.59797974644664,477.53910524340097 245.50104602052653,397.63603896932113 461.87572106361006,181.2613639262376" stroke="#B596C8" stroke-linecap="square" stroke-linejoin="round" stroke-width="6" /><polyline fill="none" points="104.78679656440357,425.2132034355964 165.59797974644664,486.02438661763955 245.50104602052653,406.12132034355966 466.1183617507294,185.50400461335684" stroke="#FFFFFF" stroke-linecap="square" stroke-linejoin="round" stroke-width="6" /><polyline fill="none" points="100.54415587728428,429.4558441227157 165.59797974644664,494.5096679918781 245.50104602052653,414.6066017177982 470.3610024378487,189.7466453004761" stroke="#B596C8" stroke-linecap="square" stroke-linejoin="round" stroke-width="6" /><polyline fill="none" points="206.0,404.0 443.58787847867995,166.41212152132005" stroke="#B596C8" stroke-width="6" /><polyline fill="none" points="210.2426406871193,408.24264068711926 447.8305191657993,170.6547622084393" stroke="#FFFFFF" stroke-width="6" /><polyline fill="none" points="214.48528137423858,412.4852813742386 452.0731598529186,174.89740289555863" stroke="#B596C8" stroke-width="6" /><polyline fill="none" points="218.72792206135784,416.72792206135784 456.3158005400378,179.1400435826779" stroke="#FFFFFF" stroke-width="6" /><polyline fill="none" points="222.97056274847714,420.97056274847716 460.5584412271571,183.3826842697972" stroke="#B596C8" stroke-width="6" /><polyline fill="none" points="227.21320343559643,425.2132034355964 464.80108191427644,187.62532495691647" stroke="#FFFFFF" stroke-width="6" /><polyline fill="none" points="231.45584412271572,429.4558441227157 469.0437226013957,191.86796564403573" stroke="#B596C8" stroke-width="6" /><rect fill="none" height="416" stroke="white" stroke-width="20" width="300" x="0" y="0" /><line opacity="0.3" stroke="red" stroke-width="0.5" x1="0" x2="0" y1="0" y2="416" /><text fill="red" font-size="8" x="0" y="15">0</text><line opacity="0.3" stroke="red" stroke-width="0.5" x1="20" x2="20" y1="0" y2="416" /><text fill="red" font-size="8" x="20" y="15">20</text><line opacity="0.3" stroke="red" stroke-width="0.5" x1="40" x2="40" y1="0" y2="416" /><text fill="red" font-size="8" x="40" y="15">40</text><line opacity="0.3" stroke="red" stroke-width="0.5" x1="60" x2="60" y1="0" y2="416" /><text fill="red" font-size="8" x="60" y="15">60</text><line opacity="0.3" stroke="red" stroke-width="0.5" x1="80" x2="80" y1="0" y2="416" /><text fill="red" font-size="8" x="80" y="15">80</text><line opacity="0.3" stroke="red" stroke-width="0.5" x1="100" x2="100" y1="0" y2="416" /><text fill="red" font-size="8" x="100" y="15">100</text><line opacity="0.3" stroke="red" stroke-width="0.5" x1="120" x2="120" y1="0" y2="416" /><text fill="red" font-size="8" x="120" y="15">120</text><line opacity="0.3" stroke="red" stroke-width="0.5" x1="140" x2="140" y1="0" y2="416" /><text fill="red" font-size="8" x="140" y="15">140</text><line opacity="0.3" stroke="red" stroke-width="0.5" x1="160" x2="160" y1="0" y2="416" /><text fill="red" font-size="8" x="160" y="15">160</text><line opacity="0.3" stroke="red" stroke-width="0.5" x1="180" x2="180" y1="0" y2="416" /><text fill="red" font-size="8" x="180" y="15">180</text><line opacity="0.3" stroke="red" stroke-width="0.5" x1="200" x2="200" y1="0" y2="416" /><text fill="red" font-size="8" x="200" y="15">200</text><line opacity="0.3" stroke="red" stroke-width="0.5" x1="220" x2="220" y1="0" y2="416" /><text fill="red" font-size="8" x="220" y="15">220</text><line opacity="0.3" stroke="red" stroke-width="0.5" x1="240" x2="240" y1="0" y2="416" /><text fill="red" font-size="8" x="240" y="15">240</text><line opacity="0.3" stroke="red" stroke-width="0.5" x1="260" x2="260" y1="0" y2="416" /><text fill="red" font-size="8" x="260" y="15">260</text><line opacity="0.3" stroke="red" stroke-width="0.5" x1="280" x2="280" y1="0" y2="416" /><text fill="red" font-size="8" x="280" y="15">280</text><line opacity="0.3" stroke="red" stroke-width="0.5" x1="300" x2="300" y1="0" y2="416" /><text fill="red" font-size="8" x="300" y="15">300</text><line opacity="0.3" stroke="red" stroke-width="0.5" x1="0" x2="300" y1="0" y2="0" /><text fill="red" font-size="8" x="5" y="0">0</text><line opacity="0.3" stroke="red" stroke-width="0.5" x1="0" x2="300" y1="20" y2="20" /><text fill="red" font-size="8" x="5" y="20">20</text><line opacity="0.3" stroke="red" stroke-width="0.5" x1="0" x2="300" y1="40" y2="40" /><text fill="red" font-size="8" x="5" y="40">40</text><line opacity="0.3" stroke="red" stroke-width="0.5" x1="0" x2="300" y1="60" y2="60" /><text fill="red" font-size="8" x="5" y="60">60</text><line opacity="0.3" stroke="red" stroke-width="0.5" x1="0" x2="300" y1="80" y2="80" /><text fill="red" font-size="8" x="5" y="80">80</text><line opacity="0.3" stroke="red" stroke-width="0.5" x1="0" x2="300" y1="100" y2="100" /><text fill="red" font-size="8" x="5" y="100">100</text><line opacity="0.3" stroke="red" stroke-width="0.5" x1="0" x2="300" y1="120" y2="120" /><text fill="red" font-size="8" x="5" y="120">120</text><line opacity="0.3" stroke="red" stroke-width="0.5" x1="0" x2="300" y1="140" y2="140" /><text fill="red" font-size="8" x="5" y="140">140</text><line opacity="0.3" stroke="red" stroke-width="0.5" x1="0" x2="300" y1="160" y2="160" /><text fill="red" font-size="8" x="5" y="160">160</text><line opacity="0.3" stroke="red" stroke-width="0.5" x1="0" x2="300" y1="180" y2="180" /><text fill="red" font-size="8" x="5" y="180">180</text><line opacity="0.3" stroke="red" stroke-width="0.5" x1="0" x2="300" y1="200" y2="200" /><text fill="red" font-size="8" x="5" y="200">200</text><line opacity="0.3" stroke="red" stroke-width="0.5" x1="0" x2="300" y1="220" y2="220" /><text fill="red" font-size="8" x="5" y="220">220</text><line opacity="0.3" stroke="red" stroke-width="0.5" x1="0" x2="300" y1="240" y2="240" /><text fill="red" font-size="8" x="5" y="240">240</text><line opacity="0.3" stroke="red" stroke-width="0.5" x1="0" x2="300" y1="260" y2="260" /><text fill="red" font-size="8" x="5" y="260">260</text><line opacity="0.3" stroke="red" stroke-width="0.5" x1="0" x2="300" y1="280" y2="280" /><text fill="red" font-size="8" x="5" y="280">280</text><line opacity="0.3" stroke="red" stroke-width="0.5" x1="0" x2="300" y1="300" y2="300" /><text fill="red" font-size="8" x="5" y="300">300</text><line opacity="0.3" stroke="red" stroke-width="0.5" x1="0" x2="300" y1="320" y2="320" /><text fill="red" font-size="8" x="5" y="320">320</text><line opacity="0.3" stroke="red" stroke-width="0.5" x1="0" x2="300" y1="340" y2="340" /><text fill="red" font-size="8" x="5" y="340">340</text><line opacity="0.3" stroke="red" stroke-width="0.5" x1="0" x2="300" y1="360" y2="360" /><text fill="red" font-size="8" x="5" y="360">360</text><line opacity="0.3" stroke="red" stroke-width="0.5" x1="0" x2="300" y1="380" y2="380" /><text fill="red" font-size="8" x="5" y="380">380</text><line opacity="0.3" stroke="red" stroke-width="0.5" x1="0" x2="300" y1="400" y2="400" /><text fill="red" font-size="8" x="5" y="400">400</text><circle cx="10" cy="60" fill="white" opacity="0.9" r="10" stroke="#B596C8" stroke-width="2" /><text fill="black" font-size="10" font-weight="bold" text-anchor="middle" x="10" y="63">1</text><circle cx="10" cy="140" fill="white" opacity="0.9" r="10" stroke="#B596C8" stroke-width="2" /><text fill="black" font-size="10" font-weight="bold" text-anchor="middle" x="10" y="143">3</text><circle cx="75" cy="135" fill="white" opacity="0.9" r="10" stroke="#B596C8" stroke-width="2" /><text fill="black" font-size="10" font-weight="bold" text-anchor="middle" x="75" y="138">5</text><circle cx="10" cy="300" fill="white" opacity="0.9" r="10" stroke="#B596C8" stroke-width="2" /><text fill="black" font-size="10" font-weight="bold" text-anchor="middle" x="10" y="303">6</text><circle cx="126" cy="400" fill="white" opacity="0.9" r="10" stroke="#B596C8" stroke-width="2" /><text fill="black" font-size="10" font-weight="bold" text-anchor="middle" x="126" y="403">8</text><circle cx="206" cy="400" fill="white" opacity="0.9" r="10" stroke="#B596C8" stroke-width="2" /><text fill="black" font-size="10" font-weight="bold" text-anchor="middle" x="206" y="403">10</text></svg>