<svg baseProfile="full" height="624.0" version="1.1" width="450.0" xmlns="http://www.w3.org/2000/svg" xmlns:ev="http://www.w3.org/2001/xml-events" xmlns:xlink="http://www.w3.org/1999/xlink"><defs /><rect fill="white" height="624.0" width="450.0" x="0" y="0" /><g transform="scale(1.5)"><polyline fill="none" points="-10.0,60.0 69.90306627407985,139.9030662740799 149.80613254815972,60.000000000000014 229.70919882223956,139.9030662740799" stroke="#B596C8" stroke-linecap="square" stroke-linejoin="round" stroke-width="6" /><polyline fill="none" points="-14.242640687119286,64.24264068711929 69.90306627407985,148.38834764831847 149.80613254815972,68.4852813742386 225.4665581351203,144.1457069611992" stroke="#FFFFFF" stroke-linecap="square" stroke-linejoin="round" stroke-width="6" /><polyline fill="none" points="-18.48528137423857,68.48528137423857 69.90306627407985,156.87362902255703 149.80613254815972,76.97056274847715 221.223917448001,148.38834764831847" stroke="#B596C8" stroke-linecap="square" stroke-linejoin="round" stroke-width="6" /><polyline fill="none" points="-22.72792206135786,72.72792206135784 69.90306627407985,165.35891039679558 149.80613254815972,85.4558441227157 216.9812767608817,152.63098833543773" stroke="#FFFFFF" stroke-linecap="square" stroke-linejoin="round" stroke-width="6" /><polyline fill="none" points="-26.970562748477143,76.97056274847714 69.90306627407983,173.84419177103416 149.80613254815972,93.94112549695429 212.73863607376245,156.87362902255703" stroke="#B596C8" stroke-linecap="square" stroke-linejoin="round" stroke-width="6" /><polyline fill="none" points="-31.21320343559643,81.21320343559643 69.90306627407985,182.32947314527274 149.80613254815972,102.42640687119287 208.49599538664316,161.11626970967632" stroke="#FFFFFF" stroke-linecap="square" stroke-linejoin="round" stroke-width="6" /><polyline fill="none" points="-35.45584412271572,85.4558441227157 69.90306627407983,190.81475451951133 149.80613254815972,110.91168824543145 204.25335469952387,165.35891039679564" stroke="#B596C8" stroke-linecap="square" stroke-linejoin="round" stroke-width="6" /><polyline fill="none" points="-6.0,56.0 33.59797974644666,16.40202025355334" stroke="#B596C8" stroke-width="6" /><polyline fill="none" points="-1.7573593128807152,60.242640687119284 37.840620433565945,20.644660940672622" stroke="#FFFFFF" stroke-width="6" /><polyline fill="none" points="2.4852813742385695,64.48528137423857 42.08326112068523,24.887301627791906" stroke="#B596C8" stroke-width="6" /><polyline fill="none" points="6.727922061357855,68.72792206135786 46.32590180780451,29.129942314911197" stroke="#FFFFFF" stroke-width="6" /><polyline fill="none" points="10.970562748477139,72.97056274847714 50.568542494923804,33.372583002030474" stroke="#B596C8" stroke-width="6" /><polyline fill="none" points="15.213203435596423,77.21320343559643 54.81118318204308,37.615223689149765" stroke="#FFFFFF" stroke-width="6" /><polyline fill="none" points="19.45584412271571,81.45584412271572 59.05382386916237,41.857864376269056" stroke="#B596C8" stroke-width="6" /><polyline fill="none" points="32.0,18.0 427.9797974644666,-377.9797974644666" stroke="#B596C8" stroke-width="6" /><polyline fill="none" points="36.242640687119284,22.242640687119284 432.2224381515859,-373.73715677734737" stroke="#FFFFFF" stroke-width="6" /><polyline fill="none" points="40.48528137423857,26.48528137423857 436.4650788387052,-369.49451609022805" stroke="#B596C8" stroke-width="6" /><polyline fill="none" points="44.72792206135786,30.72792206135786 440.7077195258245,-365.2518754031088" stroke="#FFFFFF" stroke-width="6" /><polyline fill="none" points="48.970562748477136,34.97056274847714 444.9503602129438,-361.00923471598946" stroke="#B596C8" stroke-width="6" /><polyline fill="none" points="53.21320343559643,39.21320343559643 449.19300090006305,-356.7665940288702" stroke="#FFFFFF" stroke-width="6" /><polyline fill="none" points="57.45584412271571,43.45584412271572 453.4356415871823,-352.52395334175094" stroke="#B596C8" stroke-width="6" /><polyline fill="none" points="-10.0,140.0 29.59797974644666,100.40202025355333 149.80613254815972,220.61017305526644 229.7091988222396,140.70710678118655" stroke="#B596C8" stroke-linecap="square" stroke-linejoin="round" stroke-width="6" /><polyline fill="none" points="-5.757359312880715,144.2426406871193 29.59797974644666,108.88730162779191 149.80613254815972,229.09545442950503 233.95183950935888,144.94974746830587" stroke="#FFFFFF" stroke-linecap="square" stroke-linejoin="round" stroke-width="6" /><polyline fill="none" points="-1.5147186257614305,148.48528137423858 29.59797974644666,117.3725830020305 149.80613254815972,237.5807358037436 238.19448019647817,149.19238815542516" stroke="#B596C8" stroke-linecap="square" stroke-linejoin="round" stroke-width="6" /><polyline fill="none" points="2.727922061357855,152.72792206135784 29.59797974644666,125.85786437626903 149.80613254815972,246.06601717798213 242.43712088359746,153.4350288425444" stroke="#FFFFFF" stroke-linecap="square" stroke-linejoin="round" stroke-width="6" /><polyline fill="none" points="6.970562748477139,156.97056274847714 29.59797974644666,134.3431457505076 149.80613254815972,254.55129855222071 246.67976157071672,157.67766952966372" stroke="#B596C8" stroke-linecap="square" stroke-linejoin="round" stroke-width="6" /><polyline fill="none" points="11.213203435596423,161.21320343559643 29.59797974644666,142.82842712474618 149.80613254815972,263.0365799264593 250.92240225783604,161.92031021678298" stroke="#FFFFFF" stroke-linecap="square" stroke-linejoin="round" stroke-width="6" /><polyline fill="none" points="15.45584412271571,165.45584412271572 29.59797974644666,151.31370849898477 149.80613254815972,271.5218613006979 255.1650429449553,166.1629509039023" stroke="#B596C8" stroke-linecap="square" stroke-linejoin="round" stroke-width="6" /><polyline fill="none" points="-10.0,300.0 69.90306627407985,379.9030662740799 109.5010460205265,340.30508652763325" stroke="#B596C8" stroke-linecap="square" stroke-linejoin="round" stroke-width="6" /><polyline fill="none" points="-14.242640687119286,304.24264068711926 69.90306627407985,388.3883476483185 113.7436867076458,344.5477272147525" stroke="#FFFFFF" stroke-linecap="square" stroke-linejoin="round" stroke-width="6" /><polyline fill="none" points="-18.48528137423857,308.4852813742386 69.90306627407985,396.87362902255705 117.98632739476508,348.79036790187183" stroke="#B596C8" stroke-linecap="square" stroke-linejoin="round" stroke-width="6" /><polyline fill="none" points="-22.72792206135786,312.72792206135784 69.90306627407985,405.3589103967956 122.22896808188437,353.03300858899104" stroke="#FFFFFF" stroke-linecap="square" stroke-linejoin="round" stroke-width="6" /><polyline fill="none" points="-26.970562748477143,316.97056274847716 69.90306627407983,413.84419177103416 126.47160876900364,357.27564927611036" stroke="#B596C8" stroke-linecap="square" stroke-linejoin="round" stroke-width="6" /><polyline fill="none" points="-31.21320343559643,321.2132034355964 69.90306627407985,422.32947314527274 130.71424945612293,361.5182899632297" stroke="#FFFFFF" stroke-linecap="square" stroke-linejoin="round" stroke-width="6" /><polyline fill="none" points="-35.45584412271572,325.4558441227157 69.90306627407983,430.8147545195113 134.95689014324222,365.76093065034894" stroke="#B596C8" stroke-linecap="square" stroke-linejoin="round" stroke-width="6" /><polyline fill="none" points="212.0,400.0 291.9030662740799,320.0969337259201 331.50104602052653,359.6949134723668 451.7091988222396,239.48676067065372" stroke="#B596C8" stroke-linecap="square" stroke-linejoin="round" stroke-width="6" /><polyline fill="none" points="216.2426406871193,404.24264068711926 291.9030662740799,328.5822151001587 331.50104602052653,368.18019484660533 455.95183950935893,243.72940135777296" stroke="#FFFFFF" stroke-linecap="square" stroke-linejoin="round" stroke-width="6" /><polyline fill="none" points="220.48528137423858,408.4852813742386 291.9030662740799,337.0674964743973 331.50104602052653,376.66547622084397 460.1944801964782,247.9720420448923" stroke="#B596C8" stroke-linecap="square" stroke-linejoin="round" stroke-width="6" /><polyline fill="none" points="224.72792206135784,412.72792206135784 291.90306627407983,345.55277784863586 331.5010460205265,385.1507575950825 464.43712088359746,252.21468273201154" stroke="#FFFFFF" stroke-linecap="square" stroke-linejoin="round" stroke-width="6" /><polyline fill="none" points="228.97056274847714,416.97056274847716 291.9030662740799,354.03805922287444 331.50104602052653,393.63603896932113 468.6797615707168,256.45732341913094" stroke="#B596C8" stroke-linecap="square" stroke-linejoin="round" stroke-width="6" /><polyline fill="none" points="233.21320343559643,421.2132034355964 291.9030662740799,362.52334059711296 331.50104602052653,402.12132034355966 472.92240225783604,260.69996410625015" stroke="#FFFFFF" stroke-linecap="square" stroke-linejoin="round" stroke-width="6" /><polyline fill="none" points="237.45584412271572,425.4558441227157 291.9030662740799,371.00862197135154 331.50104602052653,410.6066017177982 477.1650429449553,264.94260479336936" stroke="#B596C8" stroke-linecap="square" stroke-linejoin="round" stroke-width="6" /><polyline fill="none" points="-10.0,220.0 385.9797974644666,-175.97979746446663" stroke="#B596C8" stroke-width="6" /><polyline fill="none" points="-5.757359312880715,224.2426406871193 390.2224381515859,-171.73715677734734" stroke="#FFFFFF" stroke-width="6" /><polyline fill="none" points="-1.5147186257614305,228.48528137423858 394.4650788387052,-167.49451609022805" stroke="#B596C8" stroke-width="6" /><polyline fill="none" points="2.727922061357855,232.72792206135784 398.7077195258245,-163.25187540310878" stroke="#FFFFFF" stroke-width="6" /><polyline fill="none" points="6.970562748477139,236.97056274847714 402.9503602129438,-159.0092347159895" stroke="#B596C8" stroke-width="6" /><polyline fill="none" points="11.213203435596423,241.21320343559643 407.19300090006305,-154.7665940288702" stroke="#FFFFFF" stroke-width="6" /><polyline fill="none" points="15.45584412271571,245.45584412271572 411.4356415871823,-150.5239533417509" stroke="#B596C8" stroke-width="6" /><polyline fill="none" points="52.0,400.0 447.9797974644666,4.020202535533372" stroke="#B596C8" stroke-width="6" /><polyline fill="none" points="56.242640687119284,404.24264068711926 452.2224381515859,8.262843222652634" stroke="#FFFFFF" stroke-width="6" /><polyline fill="none" points="60.48528137423857,408.4852813742386 456.4650788387052,12.505483909771954" stroke="#B596C8" stroke-width="6" /><polyline fill="none" points="64.72792206135786,412.72792206135784 460.7077195258245,16.748124596891216" stroke="#FFFFFF" stroke-width="6" /><polyline fill="none" points="68.97056274847714,416.97056274847716 464.9503602129438,20.990765284010536" stroke="#B596C8" stroke-width="6" /><polyline fill="none" points="73.21320343559643,421.2132034355964 469.19300090006305,25.233405971129798" stroke="#FFFFFF" stroke-width="6" /><polyline fill="none" points="77.45584412271572,425.4558441227157 473.4356415871823,29.47604665824906" stroke="#B596C8" stroke-width="6" /></g><rect fill="none" height="624.0" stroke="white" stroke-width="20" width="450.0" x="0" y="0" /></svg>